<mxfile host="app.diagrams.net" agent="Mozilla/5.0 (Windows NT 10.0; Win64; x64) AppleWebKit/537.36 (KHTML, like Gecko) Chrome/130.0.0.0 Safari/537.36" version="24.8.3">
  <diagram name="PÃ¡gina-1" id="sy6xE5g7_RSdXNKp1qlK">
    <mxGraphModel dx="1434" dy="772" grid="1" gridSize="10" guides="1" tooltips="1" connect="1" arrows="1" fold="1" page="1" pageScale="1" pageWidth="1654" pageHeight="1169" math="0" shadow="0">
      <root>
        <mxCell id="0" />
        <mxCell id="1" parent="0" />
        <mxCell id="XNcS4B2B-zJWbk4Hjfbm-1" value="" style="shape=ext;double=1;rounded=0;whiteSpace=wrap;html=1;" parent="1" vertex="1">
          <mxGeometry x="261.97" y="434" width="260" height="310" as="geometry" />
        </mxCell>
        <mxCell id="XNcS4B2B-zJWbk4Hjfbm-3" value="Controller" style="rounded=1;whiteSpace=wrap;html=1;" parent="1" vertex="1">
          <mxGeometry x="300" y="500" width="180" height="30" as="geometry" />
        </mxCell>
        <mxCell id="XNcS4B2B-zJWbk4Hjfbm-4" value="Service" style="rounded=1;whiteSpace=wrap;html=1;" parent="1" vertex="1">
          <mxGeometry x="300" y="550" width="180" height="30" as="geometry" />
        </mxCell>
        <mxCell id="XNcS4B2B-zJWbk4Hjfbm-5" value="Repository" style="rounded=1;whiteSpace=wrap;html=1;" parent="1" vertex="1">
          <mxGeometry x="303.93" y="600" width="176.07" height="30" as="geometry" />
        </mxCell>
        <mxCell id="XNcS4B2B-zJWbk4Hjfbm-6" value="Entities" style="rounded=1;whiteSpace=wrap;html=1;" parent="1" vertex="1">
          <mxGeometry x="300" y="650" width="180" height="30" as="geometry" />
        </mxCell>
        <mxCell id="XNcS4B2B-zJWbk4Hjfbm-7" value="" style="shape=image;verticalLabelPosition=bottom;labelBackgroundColor=default;verticalAlign=top;aspect=fixed;imageAspect=0;image=data:image/png,iVBORw0KGgoAAAANSUhEUgAAAlgAAAE7CAYAAAAB7v+1AAAAGXRFWHRTb2Z0d2FyZQBBZG9iZSBJbWFnZVJlYWR5ccllPAAAYMJJREFUeNrsnQmcHEX1x19Vz+yVhIQblSMcAoIKAqIikADiASiXisgVBEE8ICCoiEJABBWEACoKKAECCsopIod/2CAeeHDJIXe4TyEhyW52Z7rq/950TbLZTM/OTHfPdM/8vv152c3OTE9XdXXXr1+9eqWstQQAAAAAAOJDowoAAAAAACCwAAAAAAAgsAAAAAAAILAAAAAAAAAEFgAAAAAABBYAAAAAAAQWAAAAAACAwAIAAAAAgMACAAAAAIDAAgAAAAAAEFgAAAAAABBYAAAAAAAQWAAAAAAAEFgAAAAAAAACCwAAAAAAAgsAAAAAAAILAAAAAABAYAEAAAAAQGABAAAAAEBgAQAAAAAACCwAAAAAAAgsAAAAAAAILAAAAAAAAIEFAAAAAACBBQAAAAAAgQUAAAAAAIEFAAAAAAAgsAAAAAAAILAAAAAAACCwAAAAAAAABBYAAAAAAAQWAAAAAEBbkUMVAABANjnyxqntVqQ+ti3Z9mHbiG1ttufZHmG7ja2fbT7OPGgl5+7WD4EFAAAgM2zFdgLbHqP+viHbjmxfYbuD7RQntABINRgiBAAA0Gr2YvtDBXE1mh3YbmQ7AFUGILAAAACAcMQ79Su21Wp8/zj3/r1RdQACCwAAAFieFdl+xDaxzs9JeMvpbGuiCgEEFgAAALAsn6AgqL0R3sn2OVQhgMACAAAAluJR9GG+/VGNAAILAAAAWIqkZPhgxH1MZlsDVQkgsAAAAICAPNvbI+5DvGCroioBBBYAAAAQYNiGYtiPj6oEEFgAAABAwGK2hyLuY5DtRVQlgMACAAAAAsR79c+I+7iHbR6qEkBgAQAAAAGW7VqKNsT3c1QjgMACAAAAluXPbFc2+NlbnAEAgQUAAACMYIDtWLaH6/zcU+5zg6hCAIEFAAAALM9LbHtSsNhzLfyV7TNsD6LqAAQWAAAAEM5jbJ9lO4LtXyHvuY/tGLbdKQhuByDV5FAFAAAAUoAMF0rQusRkrc22AVsv2zDbk2xz2f6HagIQWAAAAED9vOnsflQFyDIYIgQAAAAAgMACAAAAAIDAAgAAAACAwAIAAAAAABBYAAAAAAAQWAAAAAAAEFgAAAAAAAACCwAAAAAAAgsAAAAAoA0IzeR+8HXvy1RBLG853np1HxlFpCybsTTIW7fqZSWpyPLfh+xi/p3/p3Tp/cb65Kn8SkrZ1Ywx2/Lf1+IXN+DdjSvtFsSF4m0RWfuEteZZrfVfrFWv+LbwplYeFXnjv5Ns3aqndP4MV/+QHaRe3qwOzl/pnNqB0vuyxoTcxGZ8TRebx5YPeV2WHZHKK6SsffeNuB/JcS12x5j0/a+bbTzbZHcMk93/fbZn2N6iIKv4M67uhlLezLqdlesxqWPucvU3sg+R8zUY4/67S/eNoL0OJdAetPuOvPuOYWdJ4o2oN2+5bmzZ67Md0SOuuQ3Z1mOb5K63pX1FUBfPU7A8klx7AwnXiZyPld3xSHuQBchfcN8bv8BqZ2zQr0jZ36OU2o5/7sWiamvted1U9uopKKJkZJboLC+4YVq6m+v/Gv79Lj4j/+HzUkQF1S1KZL22d7B9gG0dto3ZVmFbK6QVP+kEw3PuBvYQ29PuZvJ8jB1kbaKb6OMULN77Uba3u7+JuJLFfK9lu97dYONiXbb12XZg20ruAa6+PPfdqkKnZ9wxyYLEsnzLP9judXX5WkrawhZse7J9gm0TVx65nh5hu4HtRoq+QPI7Xfvalu3DFKwXuPqIepL2cyvb79lublDAy7Hv7drFu9l62BawPcD2J9ceHopYjlVde9uLbTN3rQy48/t/rr7+HtN5WdEJiXVdW5PvW8PV22qj3itt7HG2+e7nve6YnnZCI6us6u5TH3Bt573uQcajsUfRRHgtdHVxJ1s/23+dAIrr/OzBtj/bdiPuA/K9L1KwLuZlbP9p6AZnre0oD9ZiM+h16e7Pcce+h6e83as86YPmMexb/wZui9cOm6Hf9OheAw9WVT7sOogPsW3JtlIM+xQR8yjbg2z/YpvjbjBJIaLwB+7GVg05ppPZfh3xqflTzrZ1QiEqcgP+t+uIr3H11QrE03M829eliVV53zy2H7N9vwHhI2JnHydK16nxM1exTa+zIzyG7TgnQMIQQXs22+kN1teO7rNbV3mPCJ1L2b5NjS8u/RF3jW7jvitKP/O4a2u3u4eO1zNyy9vGXXPSbt4fo9vifie2pI3dFWE/W7m2tO0Y75M2fCbbWeU/nLtbPwTWaIFFSu3FHfPXczq3jcXoX/qcW7wVTfGvmvQZZO11EFjL0Os6OulIN6XArZ4UvvNoPcx2OdttbK/EuP+3OVHywRrfL56Yw9gubqDOPs32NffU3J1Qfckw4n1sFzoPy4KmXTJEv5TbdR2fEZF1bI2idCe2GWybU+AtrRfp/PasURBI3R1aZzmOq1Ms7uqE+oQa3y/euH3Z3qijvUl5j6LAEzc+gXMu3qzZ0senVGiJx/FjbF91AibJ+5R4+u52Dw13NiD+xDu1Zh2fOYntlHoEVtsHuTshtS7fii4nrX7naQ/iKsXnSs4Pn6drSueLzxvOVeka3cPd7EWUfDjhm5YgbvK1naC7zImH89l2brCjHX0DnlmHuBJyrkP5RB2fkWP9k/NEvD9BcSWswLa9qyvxaH2ebVwT2saxdYorcgL922O8Z2MnrG91HVGj53xb1ymNVfdfrlNclctxXB1ekfc4MTqhju8QD9SsGtvOju5BROpt64TEVdCXEX2XAk/zca7tpQWpr1vYrqPAg5f0fWqi+04Z1r2IgqHYWpAhy5/VKa7IXTe71nvzbusOO6+6Pqe1vk1p/XmFyKpMUPI1yvnS+lY+f/t0sMha33Xa19LYbuwkkSGbL7kOV+JTDopw7xCRtHsDn5MO64QaOvuVnHfjRicOms0mrpMVT9aHEvweEUHTG/ysDCmuF/KanNs/sn0upuMUAbhpldfXdkKhEb7pBMdY9DpRsnoD37GbE8zVxLW0tz+4h59mIWX5kRMzW7X4PrWee5C5wT1oNBt5ADvEtdsDanj/FyiIhasXEdrH1CNq21ZgcZfscS/9vS6v+xKl1PqQLRl03Si1AZ+/S/k8nmI7L6WIDG3NGePm3gpk2EiG6iTQ+PA6n9Tz7gbYqDfpw2MITQn0/r27CXaloJ4k0PtEiu71q4QEaL+9wc+Od4J5JF2uw/4VBQHIcTHOeRnC2D3C94mY3r+G90nM3R6NP++VPGxehdc2ch4baW89LWpnO7gHnwNb9P0HuvtUlOs6TqE3iwLvVF8VzfPFiPW9RacLrG6l6OfK099JwY0WRKOLz+N35Xx20LmUJ/MrKAgETyPKeVDknNxUxxO0DM/sGPG79wz5+8eduNomRfUkT7oSoH89xRNYP1IMfTDiPnYeIQrkOMXrdlxCfcK2VHnGuvxt14j7rsXTNoWiBZlLDNqaFQT0jTGchzhY0Qnj45v4nTL8dw7bJVT/UFuiz+VsR7D9NuQB5EMRj1fVcb9rQ4FlqU+ROk8rfSiBtoHP5xf5vJ5rk/EGpIlvUBC0mZXZrdu5jmbnGt4r09KjTqVcq8LfDneC9O0prSOJR/mj+xlX57Z2xH2IZ6nsfTyPAo9pUqwZ8nDUFcNDhEyYWGWM92wU8Tu8UUJKHhIkWH6DFLUxOcbT3MNZ0qzqyn9kiu9Lu7gHmw0r3D+i3ltrjfUKF1g2g5sctVLqZK3UFwm0ochSh/P5/XY2W2dNcWTy5PVDqjwckWYkHuQC9yRdjbVj+K6NKtTZ+TV8d6uRMIVrYvDYlMXRajGINNmH3CuTHl7KUeX4V7ko/BiExVixVVFjb9WI9iXeuKudyEgjp7J9JsH9y/UnQeUfz8B9aSsnBCeP+JtP0RMsj6+n4Ye8kK0cpNKBaZXbn/85lkD7iiytT/Bs/gGyxatUe81ZEO/GGRk+frmJycyu7yTY0dEoT4jE7/yYsjN5RYZIZYr9fhQMrUbt9KMgmdFlOPXEJpR7fgxCqvrtP9rrtfCWe0C4kJKfHRdVzEq+Jkkw+2DM+97YictNMnRfknipWRTELL4R0z5NPSejIn1NmWUcK2tx73s2Vrdpf3q8vjOpaP5CQa6mdkCGSc4kyt5FNwqJjzqpSZ2pxFLI1OzejNXRpBEi648tPhaZedWM+JkHKf1LDFVD8rCJl+xcJzLSzprufhKnl0k8dldmTFyVkRi8X7r7k9/ML86Ft6jsLIUk6wpqlfuOUnYVAh2AXctq9R1ji0fI+oVZIRceoy+xDJu1wYlZwd3cn0nwOxa7zk4C7LN6va/onqpldt39LRT1zRBXIoj/TNl+8pVjlzi/jTJ0zJLsU4Z/L4xhXxL3KjGO783wOZRZpOJdl4z40mk0JQwjVGBlKVO2R3pH1lifJ9Ax8Pnej59FruJ2ekfGiyI37SPa5LT0OtGTpMASEfeTjN/sBYl/usx1hC+14hJq0vdIh/aHjJ+rfMbEVRnJkxZ1aR1pJ+KV/ghlHwlhkPixAjVpElEuXLRkJs62Vyl9NCWXORekkwly3j3rSebswQyXQ56MJ8S0LxnKkCVt/kbBYs5P09J4AfFYSAzJ+k6cdFH8i72Ld+nlhOtLZo19uk3asGQXl5lfB7fpNbrIeQ3exO2qJbyLgqV+zouwj09T4wlt04YMz8tC4k3zpobeYHVWMjgotbfSehdcS52H5vNuLe1J1l6R0SJIosTPxrCfN9yTqiQA/SfbcJX3ek7QSecuKRZ2cE/na8VwHM9T+uPiXmV71h2r/FxIwYLSEmOyxgghKikf1m3C8UyjYBHfy9rs8pTFpSWv1i24U7Wud6RgmHB2gyJXroWzqTn5Bx93D4X3sj3lHpqVE0PaHYvEv23ors9VI9ZLawXWwtJ9J73IrMFePW5CXnUdz//TuJY6Ek9p7/iCHb5h0CxamPZZhROWTwEly8ZEnW4vwf7fdD9rwXed35+diQdFljKR6eeSy+qTEW6os1J7uwhydUnGa1kc9gEaO+hachzJGoay9MdeMZynavzAHdsrbXJdSjC0ZNO+kzoXWShdVjuQ4fLXRvW5azuTh5yk4+De467t3zfw2VMp2WTHIvquoiAT/F/cA89YSBiCeOBlkovMIp6a5kaQqyZg0i6wSMZUVSZnNYD4ntHezU3haG4P38vg0UfNMP1Xtk9R9OnHDzmTbNAyrLAPBet1rVHHPkQgXJKy+pUhS5lWLkMk91F9M9mecCZ5dH7khKekgFkrgeMUb5lkfP9SBtvwItcx/tMJV4lx+Q81ebZWShAPzG8o8CbL8LzEPhWrCIVV3cPNwe5hK6kwl881ILBkBmJScc0LKJikIgH4j9f52UH3kCQmMwNl+azjqTVrIDYusLpbvqzQGP2q0u/K6dzhSMvQ6ViSdtBr+35nrXkkQwcuwdpRpnxLXp6vUHy5XYSC6yTFJCeXTOM/yD0FV+MW9940xcKJd+4E9zMq0lme6zpOWTR4GsUfJCudoAzl3JWBtmucuO93Hoj/dPhNSCYpSKJd8dq9WodQeNaZpOvYkoKcZJ9K4PgkQH2cE8O1IJ2/DO8mMTQo+d9mOEEeh1C72dmXndBK07I9mQ1yV1rljlKk1iDQ8XA7eEdO5Y80tvhlyo7ilmDtyRE+Lx6j+xI8PhlGlCSeskbdnu5pdvRCyw+7138es9CL2vnL0MaP6uhQ6vFQHMb2J7aZ7hzGxUTXSfyDqsfQtZpyrN8tKT/OZiFDW1+jIHYoCjLbUoa8jqJgqaw4c+KtTIGHp9a8azKzdUrM9SRt5Qfu2kwiB1R5SFqSrO6clsaRuUzupaFBpaYorffFtQ3KaK0/r2zu12TtnRnJ8C4d6koRPn9jk45TZgWe74SUPB1u4O4b4rWQGIrXU1SnIvJkRvGlCX+PeG2eZPuF8zzExZ6uA3o4he31fuch+D8IqyVc6tpbnA8XsoDyC27fcSXR9dzDUa0C68sUb54oGS4Wb/tFCZ+PB9019H0nVNMrsAZ4S6O46tY9Kqfy36ZgiAWAMiuw6P520RbuHDKLKY0iq2/ZEIuVIz6lNruTe8t1/A+n9Pz/j4Ip6bc16fvE4yDDer+JUWT1uI7oKymqV+MEtoirBbjNLEFimiTFyuIE9v079wD2ixiFjqzLV56VV42tKV4PkAyFfqkJDz1lxGv9ddduj06twCqGxua18ko3lKeeA0mpnRF7BZZDqY8ZS/sXqDA7A2lGot44cQGMvF0RHdBEcVVGguBloWQZMoxruFDyDp3oBGOrkc7qOCewwFLEU3JYQuKqzCwKhukOiGl/qzinxPwx3iflivPmeUwTxVUZ8Zh9yz3EHtjKhhIqsPLNSXRabw+6mqc8LOYMwlWL8o7rpp5bWX+82uZFlZvvb3DGS0JTnlhbta6fePQk19A1FE9QsKSDkGGOi1pcry9SsF5iP5rYcp33Nyj5hLryPTKzVPLUxRG4vYrbTzWB9XaKN/ZKJob8vEXnSTz8X6UgpGEbCKwa0Mo7VCv9bjy8g7C+1lP6vd2q+xBj/dPbvLAyPCWB1o92+Em/qoU38TKyFIzEzhwX0/4+1mKBJbF1Mtx6J4HRXN5EMf+k+75vxrCvSTT22p0fYFsnpmO/h4Ice61EhrQlnuxWSjaPXf0CK01B7kFgO21MnncErm8wForbiefT1dxsHstIwHujN8zZriN8okNP9Wuu80lD0LXMkJJcRu+OYV/vd0/erTivMtx6DMRVRWRI8Owmf6fEYcksxb6I+5EA0Gpxy3KjlHQOcXlWZP3CNCTOlckZP6XAG5gegTVUV06+hA9S5clTORkGWBPXOBhTYEkySOUd41PxS0WbnglP3ctOCpIhzIUULbmgBK5KIswjKVh/sNOQGXfPpORYZCaZpIaII95EvAhbtEhgiSduFu4iFZHUFA82+TslB5vE+EXNjyVxVStWeV1mNH84pmOW5L43pui8iSiW4e4NIbBGIYHtfSq3vafVgRgaBLXfTtRBvrGzB+3gXWkJeB8lsOa5Tjlq9uat3I1f8r+cT+2z3MpYSAbotGWOl+FKmbn0vhj2tbnbXzORhdO/i5tHRay7zlox++sPFE8C0moeLFkS510xfEfB3YvSxAL3MNbsYPv0Jxrl4+jmDlLcjV24xkEd9HC7OTFP+d0onXl7JGnlYxSsSRYVWbxZrpHPuk75l27/7YwkFpyfsmOSp9K4PEAyXV4UebOy44twmE7pysafJmQ4ulVe4gfcPSxqH1jNQ7FpTH2sDC3fm8Lz90d3v22qFytUYHWlRM94yttHa287eK9AvfeSnPamaNv7Wd/6s1N4gNKRSXzAR2Lc57uc0JLh9GvdE5sMabzcZif3eWrdrMGxkIVr51K0LP2CLE+0YhMFj6wLdzfuG6FI8s9WLcX1intgWj/B79g2hn1I7qnrUirSX3cPn99JhcBqdZC7C2xfVWlPMrLmcX2DBuji9jPdM3QzN6fXUxjwLutySVLJnpj3K8OOBziTp8nbKYjjkPXj3mqD8ypC4MmUHpvEhPVTsF5hFGTWkywF9mITjlniAX+C20VVJBaqVXEzbzRBYMUxPPiae8BIK3IflCH8cc36wlAV5bd4MXRNHneH+nCl1Ba4tkGjcPvZksj7oiVzeqvbdG75YXe5Gf0rpqfHMN7n7Ah3k5bvvNKJlEUZPKXiypaEosUUH58s2CyLZEdV9OtRMN09aUR8P4y7RVWebeF3SwzRmwl/x8Yx7OOZlLeje9zxvb/lAquVS+WI96pPj18/r3Nfw9Bgxfr5l7XmH1p5r5X+b83KfC9/D4uJKaidCiLL00cVTfHKAbPoqVZ6sVZYfthdFN8PExZYZWSa90bOJFvzUxS482Wx2nvdE3oWmO8ETJqRmBmZxLBixP1s2JTbCbxXtdBKj6mco4UJ7l8C3MfHsJ+73D0tzfeOdAis1g+nKFkuYjVc1yOuMmMfMOR/R6nc3b7xX9We5/5uyGo9Sfv2A6TUMUqrj6K2lmF1bk/f4Tb9hRQOE0oskQwV7tLk7xXvyDHOJPjzz2w3OG/GQIrPpXjd/pvy9iYLYb8ag8BapwnHKh3OP3CLGJNWxhWJwEpyqFiGouOY1fb3DJxHGTE4qOUCq5u3VqGVt2NO5/aC92rEFWbtLK6No/nnPFVZI8gT8y1cZbfxe05QSsmC2D2oueD+lNe5vZUdd5mx/h0pO7jyulmbuSfJVrChs/0p8GTJYrOSAkG8XCaF4sVPeYOThJQypLRRxP28vQnH+tsM1GcaaPWTWZK5ZiaXuvzoIvDZDJxHyS0nqSSaEtedvjQNivqU9uSpejyu6QBj7aUsmr6sSA3W9nb6nuEfntInJ3xhZokVtPaOVoafsmzqZrmIaJjuRE1fC49DbrISiyEzbWS9NUkYKLPL0iRK/5uR9vZCyjvVcqf4J9waOp6uGASkPIhlIY7vefcA1BSBpcNfaNXm7aWV/gTavLsDGnqIrP0qN//aRYEq3Tp/ZIztRw2OaNNK78Lta89WtewxEK+RBKKnZQkFuenKMjw3UxAUv2NKjisrsyDjyDC/bsLH+HRGvA4g4Wf4GPYxn7Ix5CQCq2l5EUM9WAsTjamr9ChlqVePm5BXXcfz/+B1WaqwzlTWLlDl60BVV1ZG2fKvw1ynp/Iv21c7zx2Gp7R3fMEO3zBoFi1sdjzWBJo41lsudTcpycg+LiV1JkJLEphKwlYZTpKMyK1c+/CZjLS1OITgCgkfo8yqegm3hY5nNYruLZXrspCBskooTdNmIOtqgqfZG3Ms93mboL27c2BLwce3kgRdOVNKl86OqnjOAmVFdondYaz9O2pyGQ0qi/Ee06L2XQuXOTFzX8pqToYuJThUcskc0uIbZBaI4yEx6fi3uZTedBeguQIr7W013l6gSaQmyJ2Fw7tyOncYAttHKibzT+6Yl3nC1LaUlmG5atJ+ILGUXa4p3Uqe2haVuVSGSjvrtX2/5Xp8JKUH2c+2K5vMpD08Zce2FttFbFuyfZOCHD0gmzyJKgAUT6eLjrsegdXkIHelVe4oRWoNnJKyLlI0RMPPLLaDttJQlnhE8v4w9alxLKpUlfat/ofaXK5u35FT+SONLX45xTcGmZb9JQqWd5AFeLeldA31SryYLOcicVrPN/F735GRZhbHzLwkb8LiuXoNdwPAPEqBByqK17WPKH05cCqgKQ0erOYtlcNSQampSuvPo52Puruq3OIe3RveUkRYGVNLgwKjK4Xbm7K53yhr56T8vnC7M4mDOpBtZ0rPwuci+q52IuupJn3nKhlpYivGsI83Ejy+eU0WxiC9xDFMLClJZGbe4pSXdc1m3j9bmsldvDDdukflVP54khhgsEzd5FVpq/ImS8ZHCpsGWYFF/fFFW5gzZBY3JbFuX7TMI+LJkszrWzpBs29KxMbWbGe742lGgtK3ZaR9xZEkNMkZfgoPXyDGh3AZCRBvQNpDBlalJq5tnAuXtMnHPhre8tRzICm1cxaHcKVTLgcvW4rfDzJ2YHTL6myQtd2QUjRpZB1k7wSqjxlL+xeoMFtno6+R6cV/cyaz+SROa28KhurWbuFxfYqCeLFvNeG71stI61ozpvMNQNL8jwIvVhTPjgxnywS1V1NeVkmo3LQA81CBlW+KyFOr5ZR3XEYb5fyCHb5KGf2IVrlXLJleo8yG3FHvqJTaqg0vwoK15loWVncqpZ+21i7k39f0VWGLnMrvzuJygywWStpfN/XcymL11Ywduhzvxc7WZ9uJTdrdDtSac3Es2x8oWHInSTalIN4jzcv5SIqNtWLYzzMEQPJIvGchosAS/8LmFEzQSTPvJmpegHlLBZZW3qFa6U2z5r2yxl5uSf1g2BYelHryXPsyxpd4stVZeHxSa/UD/uPK7XD1cXn/Y6wvHej/KVI+uawRLLJo2Axd4encT/gUHqG0+kbGSibJR9/brboP4fKdnuFT9KSzCyjwZImXZyrbZ5z4asYTm1wGM5zQS5I+96T8rxSfj41iuvZfJQCSR+Inhyl67r3NMlDW9zT1AT78heSC3EtDSoo2Js87IlvdsV3o+8XjNemfKO252XvL8Qr/9SLjF//M77leKbVRlq88PlN3se3DZX+xUpyS+9tctm9ymf/JZT6XRcvbsjRsqLgdej5dzYf8mMrERJiqPOtMniRlGFE8Pp9wJmIryVl4H2b7OAXZ35NCkm9OSbnAeh/bSjHs5z/o+0ETGKB4FiffgoL1b9Ma6D6Z7V2pEFhDCa7YkVN5mSEnHpE1s9MG1XNFUzi0aIdu7VHVl4tTQbLPR5VvD+bCXst/Wj2T4srYl3zrH6pqWsldEb/3d8P+wON93oQLlNJbZ8UzqWQ4R3lf96l4eNEmF/bSTb3NLprEVdzvTDyq72Xbhm13to9Q/GkfxFO2F0ly3GQTD8rsxXMpnZmjtTu+OHgcfT9oEpLYOKozQJZ2+iCld5jwQ5T88lOtFVgS2N6nctt7Wh2QlQ7YkL2LrP0Sd8UPVQ9lV2SsT4N2UfkPf8v73Vd0e91HZzEQnI/5bGv9R0sB/GrsIHARlixS7i9af7ecVZfwR7KzpqRWB/rGXjZoB+9KKuC9BQJrNA84u8TdTPdjOyDmBwDxYslMvxcSLMd2FLj670lhS5LYqykx7EceauYRAM27N+wTcR+SCWCnlAos7R7+vGZ/aUW8hLY85bu5AzuJ0pPLp7rIsPYOtv0CcVWzMFnykz97lbWUvWSflub7pnBZIIKlHH5JPJaCr8aUWfQaf2JvFqYXZqjEPdwuT+T22ZVU208Rg+6JVSaYbMwm8WevxLTvd1LyyUAlvumTKW1H28b0lCxDoG8QAM3h3zHtR5b5WimF5ZOhwd2b/aWhHqyuhPSPp7x9tPa2y4L3yvrmKhYKh5NWtT1JspKSjnT8iHxH/Pl7iczTLDwyFfDORXlI69xyna5SNccoDbK4nG4UeZrUF7KgKHPam6Jt7z6+9S/roBurtO1vs/2O7Qy2HSPuL+9uZv9I+LgPZjsvZSJELo644krFo4A0DaBZSDb3/1H0yRkyk3Aq2zUpK99R1MT8V2V0uPKKdys9wytvVaW9lhS0XowxvzHWn0Y1uOmDITQWj16eFMsJLugS4/8P8YsD2bve7H81eZaNRlrg0KpZHA+wyPqKseZXGSl0l7RPbqerSHuN+xpIOTLcJjm1boxhX81YzmYdd9NME3tQMEQaXe0T3Ys+HzQRCXL/Z0z7Op7StayXxIXt24ovDhVYfsxbMHTkHaaU2iL93ht7mzW+PCEP1vbYGgyjtcEMtJF3+F5JwzDayJYC+Pl3RTWmVl3MnzrCZmS4kNvnltxOv1gK2o/9Gkg98jAhMVkPRtzPO5t0vNMpmLmUBiaynRDTvh5juxt9Pmgi4gS4M6Z9ST6+r6akXDKrUUKSxrfiy5uyVI7EIvXp8evnde7ItA8N8tH93VjzRaplqqnoC1kL0JolcVejRRb/vVt5uo9UtsQXl2PLQE0tPWFStgINB/FEtq4M7sPG2uma1CSuhs+kvuyePqpoilcOmEVPxSmaV8hG2KGIrB+xXRrRA9MMJGWDxI+J521hi+vtaxSkZ4gDiY97gQBoLnewvUnxrKMpXqz/o9anGjmUooc9NIyu0sHGuvEeZSmN1dKtrtQT1thpfKzPjKwHWlqGJcLKsqjKGxk206WZkbKJ4BBhumjJtpDlSHFzruZ1s3alKU3rciG3LA0HjrBhO1QKdpegd2LzbZEKZniUsBxZX0tsgKvnMLY/Z6D4q/Pxfif+ayAz/J3trSTuKwnwUWrOEj3VkAW4vxtjuW9AXw9agHhNH4ppX9LX/5CauCxNBXZyD4ste7IN9WB1x1gvWnk75nRurzR7r1gczfdN8XCr7KPlmXOCyCbx1hhJwUB+kIqAhYUIjR7erNvcPkpDQaVYJWVLw2hKqX2VopUzuFpfnrT+mjXFg6RcklhVvHDK18sIKWHIDnKZVcmCOisGdTIqVovrcB7/7QseeXdopVOcA81SXuf2VnbcZSwm70jwi8SVXk7OJ8ynYDbPgy2uABnPHHAeokZodszhCc7jc34L6kqyyv88xpv402zXoq8HLbnxBQvKx5XHTdL0/JiCWMlmx0i8x12XLc2NEyqwYptWrqiPO+djqEVjoLUdoqKCP3zsgF10+3LZ2ZdqLVdhOVpsB0pyooJIK4VGj9PjyVelPIsfZ9FxQFYXQ1aa9rSmdMFdO1b9LWaRJXUj9bLYDFYTsk90U88Bvbm+6/n3FVJc/BW09o7m0/h3PujBmPc92Xk8dqPlvbrPU5CoU15/sUVlj7p2+bMtOOYzKRje/HUTv1MSt15F8S5ALfsbJABag+TIk/QtceXG+woFs2GPaWIZZKj+ampyUtFK6PAX4tq8PbXS6U446duZZO1FtQzziIfKjCGYAkFlp2qlLuGPrJThi22C9rxfklI1nb+CS6w99lCZ7bfGnEwpHzbjdrtLqf3GdCU41nNPiV+gykPma7rX/kpB/EArnsDeRtGG899swTHL8gqXu86hGUOUWzgxF+dSWOLBvJAAaB2vs82OeZ9Hs51DjXvE62HXtIirwCETwsKIMaMiMnr1uAl51XU8/0+ntTX51vzNWv9kE9PKHs5bdRB3zmdTPMGCrUWpFT0vd6MxRjwqMqYe6uqtNc5I6qhoi2cpq7eWvGgpLr2ntHd8wQ7fMGgWLYwaRzWBJq7onhBrWRR1HdfZSvZhGfr6fRPLfQBFU78Ptaq1UhBzIZ4laa9zE/oeyYB/hhOicSLn+0n08aDFSDs8kG3VGPd5pLsuRWzdl8AxyxC9DEVKrHdqRst0tU4w6sYcy7e8TVOsHuYV/KFvLKKF84ZpOI5A5D4WlKeRVrPaQlyNaCfM97l2fsXnNVK5pI6LvC2yC2mxP3AcN5On0i0w6d387zExXQ+yEHK98Q3iPfwt2x/ZPkbJL/UgN8HPR/i8JCt8s8VnbX8KZjBJJxFnzj1ZBkeu7UsTEFevuH0D0GokTchFCex3qruPScxkXJ557fZ7u3u4SlUoUqjA6o649aq+d+V07rBUB7Yb80Mic1c1QVkHvZ72Lur2uo+njMZc1SA2DuzRvZezSFo3+q5K23Nk7PfSXWjJ8J47jNvzxlGvCebTDR5EtxNncnO6iYK0BEnMyJ3M9kuK5sqXp9NnU3DiZChWvIUy1PqZCE/jImjF4yi5dCQZ60GUzBCk1PtDBEAabnpEP3NCK27WYDuVggXoWR80PMS+CgUL1l/vHqY+nMaKTCrIXWmVO4o70DVS24Ks/Sf/c4Z2Gbsrea/K3pZaxJXS3sVK631su4qrcrvQ3icsqWuM8WXo6ukoAkvi2RbYt2b1mnGfzOv8XmmtOz7Wd+RU/mvGFr9K0dTz5pEPJUhLICZr1d3hbi79RJFXZxfRNoPt3RH3I9mgF6To9MlMTQkcl6V77nTHJ9PRn6l2PbNt6m7asnCz5NGZmOAxyrI4P0a/DlKETLb5vntISQJJRvwLCmb/3uYEl1wHMoP61QrvzzsxtoW7j27D9oG0V2Iu/IVGM91zN6nUFBYbn09xuReTsd+SZE5d1FVx3UURADJsKIHbYwwdjmdx9Sut9Wc65crjc7u5Vupa3y+IR+aJGltF6N95+ya/ur17KkklfH73VzZ3lbJ2ToTwpDiHlbZy9mUKPEZ/cUJLPLIym05mohWqCELxiomnSoJCZUhte4o+nCaBmzem9BRu7UyemF6iYA3Dp9xPz9WTlF88Xyu7ttiM9UMl+PMbhIWdQfqQNVll+ac9E/wOWVZrmvtdHsxedz9Hx/pKKhuZMLZ6CuqlZu9TrJncpavs1j2Kn/Yli+uEtLYaY8xsY/3+sL6n7Lka4q2auOLy9nHHe6HqIHG1pI6U2kzr3GXcPXyM6+Gtcr1VahMyg65nSaqnCq8besLa4hnK836Y4iKvwOf5+KItzBkyixuK1+uj8S9RvFP6hXEULK4sdqj7m8TzSAZlSfPwtBMV5az8cnNYm20Dti3d5+P0xPwtAw+VaznbLAXHI+klbkFfDlKI3C8kKF282s1Y/mpCmnXDCGqOMQ0VWDUOjY16FDP8CNhzIPe+H01rHBJ36K9wJ3mWLa1xEy4Uq3munNfF08q7gDvdz3Xq1edp74MsGi5fbAY/yzU1WMlLFeQGC7ZqQ4A+mYs9q/dl4bZ5agus1MeMpf25bczWjYXh/CsBgVWJ1Vv0pPcD55FJErkxyTJW49vgEpJ8Z6ejHwcpRobSj6BgdYG+NijPaxRMQIuyGHXNE7NCe4l8A1s39ayWU95xqe0fxTNlipcP2oFHhqjyNsxWzudUUVTw1qN6qVv1fFN5er/OfryxIrJ26/Mm/LCXxuW7qYtGm3iuZLg5yB8Wvlnrv2aNL7lShlPt/uD2ze181UauD4o/v0yamMN2cxO+Rzxy32qD+nqUTdY8nYc+HKQcifM8ug3KIbN/r6LoM7F15Dc2JLBU96Fa6U1T672y9JKy6vvVk0FWHRJkqVASWHt2ed0zcN2VHTv2q6TsQeWk98uaHeF6KJbi2ipvBRq0g7/2rX9fetfts5J89L3czg9pUGDJVOLr2rAJiMv8m0RVnkziQ26OP6UgcWFWeZmCFBLP4u4BMsIFlG1vq0xykTxZq1D0DNfP1fxAHv5C7R60UieqaCPyvCPSXMNFKpxnlH2jW1VOwSEd+5BdHCxkHBJPZIjWZzEx08abXyfzGouVx4+Vr+/hGronvGf0xhp6HfJN8aycl/tNqgvL7dzz6Ro+4MfqFIOL3EUuweU7ttH5lziiu5v0XeWnz+9Q4Oo/MGN1JfFxn3U3/NZes5StFchByxGnggTTZs2bNZeC5MDiLY5jotH/IgusoTpmfedUnjyVO5aCZT5S+9Q47C++dqxZgarKfadHdU/wdP4sq9Ta1ObpGOq+Wyu1Qs7Lzyyawu7WmjfD6jYYLixWrGMncK/NU/cTKgjCTqmapLVZZX2dy3F40dY+otkd5NYTr8VuTmjJUNfEjJ96cbm3YnKCzFiUITZ5Gjo4I3X1grvR/zkmgRQFqbdCO9x6KPnku9Sk72hGXUVBbnZfdwLj5IzUiayMICtTyGz3jSnI9RcFmdBV84xfXU1g1bIN8uYruz1pdUB6W5WigilcXaTio2Ovk0dh3hWJMds7r/KfgrgKrejtuA4Pq/YWGSoLorNCt2HfL56R+rJqdSC3+22l/dd6rYxAUihIQLgkD/1Dhs+4rPl1CFVZPilh5IYvucl+lYG6Eo+VeC3nxLAvmeL9WgwdxYtpuJJiEIpj1UVUIWCp9bFycYiZOAS11IXkx5pWjyenhdcc99dLZjZvEoMTSNram5Ebt1fjxh1mtyZ9EgV5dVIJt4i3jPV/zcdp5ZgbWag3R7m1rVKnWYir6g3Kyx2TU/mNcxS+icjyVC7USBLP2dLTfprp4XZxIpelq9ZrpQJ/p2CtQXk4eTRjp1oWOv6C8yS1kgEnsk5OcV1dzLY7xZcZWxaFjhq/tTAGkRYVcWW/GnEfMuT68hjvibocl9z0/9viuno+BnH1fIzHIxN2dqFk1hWMg+vcNffwiL99IAZBP7eeB5PQL+uqcetVvfvktLddupfE8f+Rs95f+6iPekO2SjPgAgu8Lb163LeUVm8jMIYTi1bjlnCi1YrCjDxNSntVTD9rlPl9uksqS+h4U7j9f7bWa6WKF0ZuVpIE85gMCC3p3CX+aX/nBUkD4hGcQcEaimkS5s86EfqFGkRAPSx24jzq032rZ+xKp39HxH3cVMN7/kTR0oc8mQKB9X8RrzcZIvt3Ah6iHdjOdddgGpAHLlnr8NOjrjkJxdg1hv0/V09ZQwVWboyt9EyuvFW5Q5RYklQHfFuJE1HaWqWokpXSBBBR2Cw4pfSHWFylOTN9ukSWp/e1irZno4om7+FflAk1n3x1A79xIOVF7ZL2z9fBKp5bcqnaNgZy8zybgiUgJM7hLyks7xz3VPh9Sj7fVSOIV20ntitSIBwuccdycULfMZsaH+KTyRZpmYX52wherEGqLfXJ4xQthYgs6TLU4nqSJL53Rvj8DTGL/DIydHqUEzT9Kbg/yZJfp9HyYQvvp2D5q6jUJbRDBZY/xhZENnmHKaW2SLmn4c1FZsFVA3YhjbZFdgEN2kUlgVXl85JQ9Etc3qwHIzfTiyUCSqbth8YNWMXS1RarWT+/47HUl1Wprfg6+CK5tRWrXzM1IQGUZ7F9koL4gStScHOXm8ohTlzNSfkpEQ/gAe6G/0CTv1tOssTUSWzdNKpxGakGkXxgMxv87I8oPQtLP+YeLBpBROK9NbxPhkNPp8biqGRCwkUpqSuZFPNKg9fE2Qkf203u/rBfC647edA43H1/mJA+JobvkQf+ujzHOnxP4dsi3nxt1leePjLtHaC1dH2X7pnfpbtpeeuhLtVdfVah0ltqrfdAYHudwkOrKVxlOynJ4BFm3Py4fsNskM/dnzNRVk8fxdfDenJdVLtu6kQCKX/vblgbsn2NgmGCZ5pULBF6sq6hpF6RJXUkkHx+RpqfPDFd7Z5a5fjvdl6bpHjWCeGPOFF8e5PKKZNBzqvzMxc7gZUmZMLHzxoox4lUuydV2rJ4hhfX8R2y8sJBKWr3Ioq/WqdQlLX9vtSgMKuXt9x1IGukfsaJrtcSvMbl/EynYCmfC6qcJxFeO8fwnc/XK7By4V6IsWZ0Kmncq6Xbk6Jo0AzcIB6qSqWxJYXZRTmdqyafZGhwBUimeuuexrFMOoCMDY1/KA3B2io1b/0rSOe+QtEDE5NmdS7xd7i9fSGhJKnSgf/EmaSvkGBNWUdvC3dziWtZnJfdTUtuIhIb89eMN0OJMfo5BUM8coOVoNypFM8ahC85ISVDudLGH29RGb/ujkVW0FhxDMEugky8o0MpPFdHug7sW2Pcb+VJRTx336P6Z8X9ynX4MsT9njHe+zsKFuF+OmX19DsnmqT8247xXnkgO4Gal6OuTMEd5+/cQ84OTnRtH/FeJf2IeCxlVmA/BQvLj9WWRaN8l6ItjVPmb/VeO6Ff2l1lUqBW3o4sSvZKu1eHO+/Xubt7MOjE1ajO3UoMGYurfGgp+D2rsEiYBrnUoMhS6pNFKm5syTwcVsNlL1YI/zbGPqW12iDdJbWU17m9lR13abCIeKI84exyChZGXc2ZeJnWoSDPi0zGWJett8p+XnAds+xLhgDvpyCA88U6n/KzgFzitzqTG/w7nEgVk0WyZSFbiSP1Qj475Dp/6Wzvczf3Z9z/W30TlM5Mhr+uoWBYUgJ5R05Fl+MUb57kK0vzkLvvyiGxQrK+q8TSrDHi9addGW+i2oYFwxCv8D8p8DTKDF5Z+7RrhLdHxMhsJ06KKa0raX8SQvBR5wDYbkQHV3CCX2bRyXDZghYf6z+d5dz9aU1X55IyYUN3n1qhisdorjv38iDzqLs/1eMV+6a7N8bB5fV+IFRgeWHhM4p6lfZkPDP1i61yx97fRd1zu6o4FSRze5h3K09dn9Pam4jUDA27sSZqrT9hrXo4XITpksgK7zzsbZTipKMjWIHbytHK8A3aNm1GzQJnT9LSXC9LnoOoemJBQ5057v2KM1lx4Pwlt7ugM1+1Qp0UnQBNe31J53M827dpWY+vn7Hz85DzOJyYYDnEU3uBs5HXSZauiXlONI9eW89S/BNQVqIgSedKI75bztObdeyj6O5TYnNqvE9FPR8SNzo9pjqQB5W6Z+6GCiwd2umpT3On+IlMPLYa+4C1JtSNLMkffeuHiDNLXV5+L6ikqBpL81O1P7PyDVIW3x6usri2eBlzt/XSuCOyIHK10rva0lOxvTwFh2PQ+urynrxAlPrca7U9V2ZPVLWyHKZN2m8yt+9AoIg3UYb6ukaIJREbV7L9kqKlaEiq/mV1h59SfOElv6EGvIGhAmvhqPyB0sH16nET8ip/EqU/JkZYrLS+N9w7oihnbWgFsMDcVKvcpvBeRbxCtdrEFEsu2n9UuodK2tEi3x8q1XMQo0WPWWvn8emalIHietzmZhRs4fpBs2jh6HisCYSJqACATLAy2ywKlvWqpBu2dSZB97IWqaTbSMNkADk28eSKFzSu9FGvOYFV/0N3+OPD8hvzbaXU+hlpIC9ZYx5ko9FGxtKwWUzcCdJiM7CcDZqF5NviTprUarjOIsNa1dt3yRKPo0zSNfSqPupT45ezcWoC9ag+iQu6LyuF5etDhjOPD7l+AAAg7Ujs5uwQcTWajdgupCBGSlIlbNLC45bJK5IL7xSKNzfn1Y32QTUHuSulN8np3CGZ6SisfYn77mfD5KPEmI0LDyPLecr7EDrFuESH3cY3vqKQ8XRbPQ/ZW9rm/qtVbmoWwiNsKcN77pBe2zfbWvMIzj4AIGPsS0Eut3qQJJ4yY1f6XJldKxNKJCdcM1Z7kEB5ibeSFRPiXm1F0rs0mm+u5iB37ancNxXpVbMSA2gtPUhah/bcnq26duYaStH7cJ3FJbD0Wp7XJUGSoYLDhIbKKTmXT2YpHpuvk9VzKv8NY4ty0SMWCgCQFcTzc1SEz69NwWxWSfYrs5T7KZi5KbMzJTg+rmFEGV2SGcCSp0xmVK6SUH2IaGx4+bLaBJZSOyitP5OlTs4qquo9UNZUUwRrkFIb4FqLS3CoVYu2uIVPxUfC3tGtqq4V/hg3vSF5W0ZaH2t7/Vllc5eyOrwDLQAAkBEkBCiOYT4REJKSYX9nkupEMrxLig2ZVS4zeSXlwv8oSGr8FlHohH7xSq3kforJuq1T2NZLuC4khc0Po+wgVGAZvaSsWgdJRXsz1EiM8u3jY3WCVdhM8nPjWotLYFGOxdXGw2YwJIEtKyfdVW0Xr7LglVkX3Rkqdh8f80lGlZ7gbPmOAwAAKUYmEyXhdZd79/udlZFZefOcLaoisFZxx7VKE+tBcgFKEt9Imehz1XpFx/5Kqe0z1kiKfF7mhpctWOS5msBSuNBiQ+KSuqlrgy6V12EXrzV+tdUDniSl/8fnbeVMCcvSckFWlrqZjVYAAMgABSJqVvc3wdlaKawHWbvxhqg7GSvdwkRN+msZbCSGO7fH2aiiibiyOsz4H/1OXGdxqw21Dlf+iiRZ2ytYkB0vdJtnmxMsGTvu+sFSSwCALCBZ04c7vA5kiZ9T47n/h0oUQ8rYXbIY7G0NPW6VNlY67oomIovCzFNk18Z1FrvCWptrfZKiypvWOdJeqBVYFA9mstSKtuTr6ONyPQEAQMqReKg5HVx+KbukmxhIVGApqzzu1CRjexZDRwaWpB6qYCooYJhppdVkXGexM16WWQrLhxUoYxVq1tinMlpuvo5oF2WVRhMAAGSAH1H9C2m3i7jaz4nMWAi96fvKX0spvX1GK+plCo1it+T7RTLhtgohHjl2WGRMZJtUxXM41h4WZbfs3vZyPaEVxBLbAaEKQPJCQwK8ix1UZln2RxbOjnW5rCqr7A6vryRuJpPYF0oDhRVdWMFdXodv0hHmcI3FjzF+uLA1ftuWm6+jdQs0tB5aQCxrpr2GagQgcc6jYKjshTYvp9yTJPO75NN6Me6dhwqsXup7X4YzmeeqP0arpJ+yQUXda9e3lltVY/ZkZost63jSOCSuJfoPRZ8CPhfVCEBT+BXbB9i+x/bfNiyf5OOShaxlfeWhJL4g3N2u1RadKgNwXSWDIj0u3HNYdeKB2KJMF16rLdECSufwsYj7eBDVCEDTEA+W5MH8CNtX2P7cBmWSvFsyS3AntusTve2Hywz1DrSt1mKMqRYrJkvI1BK8hOlrqZDtuJ4YSRZ7XcSHn+tQjQC0RGj9jIIFoD9KwaLKb2SsDG+yncsmD7vfpSBWO1GqDaWthDbV8l5Z4sFUML2x3MO4WDIbeHxKKSes63sqi62+NBUowmezPnSL6yk4/zLsIIuyrtbA5y+kYLkNAEBrkHyEtzmbzLYHBZ4gGfF6e0qP+R53vBewNXU2eqjAUpo6Ndlmajpypb1Nhs3QiobMGxI3JuJKBtO6VFeQvqAktKi0mFFJellDo+PmtM5tnZ7e1TwXHtcnQrFq1a+VZYXVwdfTaGQJqxPcza6eUyoxICdTPIHyAIDozGWb6Wxztq3YtmXbgYJFn1uJ3C9ud3YntWhyTDUPVpZvZLpqN1991GyRR568oeWpGrj32apoC+9i+0tZYOV5U7qrokwRgRWUrfyqerunch9JzUnR3v9sNd9GdVambANhsJSLKFjb9DSS/GhjczfbwZTALB8AQCzc5+yXbKtSsPzNB9mmsr2XbSIFK1rEvaaxBKcvdAJKvNt3URAn9iylYAizTdMRqE2cQPIryZZSykcbKrKepPQEuneNU+OOKtihvwzSYhrHW051lYRUpeFArXIlZcnvLwmtbt13LP93xZSUpcDH7FdzWdjqtY5YsvbiPHdD/JZ76q0ktB5lu4rtx2zzUWUApB65i7/q7N9sP3V/f7sTWpL6aU22t1EQNiFrEebd/8OHN4L4qfmuT3+J7XX3wCVDfo+5e0XqqCaw2jbZpi6vgVcZiR6XhYXflgqpqPVeZPWhfEwX1dPGuaXurLU6NC2pNlg8zSdbvZMcI14/64k6kbx2eSSh4V/Z3s+2Gds73E12obtx/ouCtdEAANnmRarsge52Amu1MQSW9B0LKEh+mpmH7VCBJev5sQZ5dxbPZCnexYZ5sJZ0+GHwZ9Qz3NmnQmCxQPLyXtfMol9YaK39TS2f0JTbKed5F/FnJ6Tnuca+xnW+qGpJw72KEo+2ispwnDsX7YnzPtWP2+zyFJzI+iuqAoCOY4iWDvO1HdU8WG9kuFwr+H5hHIWsCq60ZF2q4sEqDV2oD6aoPON6vHG/JmPewyLrlxQ+E2J1UurTns6drpSakKozouhZZcPblLV+NV/bOJZW4zJ+rb2CeykAAHQO4QJLyXIzmfUYeIrUZArGbSt05pas8qtoAfWoStmITulMaP1tViH789Ffwz/vp2CmhChFGT7bWGn1SX5j6hJaiuepaAtPsg2EeaG6VHe11rZ66gRj3djncLsBAAAILCJj72GZsm9mBZb23sU/762sHW0piWfokK8qiZd0omhtRXp6oEbU68qWkqBPqhZU1nJpwVa0/hNDNByyTJGivOqptoO1uZwrZjoTlrXIQA4AABBYRIM0cO84mkAZXY9QUiq9K/xVlii26gTKZ7nYL1FK4rCqsEo2RIdd0KW7H8hTFS+VqdLOlFqXPzgxqxeZiMoBWnQPbjcAAACBRXnqetJa+wz3DetksWDa0ntt1Xn/VYXj86S05PR4G5pIDPKK7IvGFu+hUi6vkHdYP/TTmvIbBBNNsrlMJLfDp1lcPoWWAAAAnUPosJJnveesNXdmtmSK1uOebWJpumD9NmiNuRvNIyaBYeyjXJ9vWuNTJdNGsdLvqmgedeU85W2Q5TW4WTzeKdcTWgIAAHQO4WkaVGla1x8V0ecpizl8lFrDai3Lk/wr/C3VxtcUf87K9NFuNJOoCoN+76l8qBIOss+bCh8rDa+twedpswyHX/ms2W/i6wmJUgEAAAKLSuvbcQd3E3cO97IO2SqDZVuZO+X3WbKhAmuxXRwaE8Rl/0sXdT+aU957bYa9Jy3XVpbmWetfH/a6IZ8kS30lD5UJlgZaZ7xaYQOb2eFB+rfV6ubsr1UNAAAgHoEVMN+QOc8jfUkGy8Y9mtnMmnDHgYyPDvGmKgosOy+n8zdbFlhoJlEEhr1dKS90oU1tFfVVSXGllNpKkq1mtfxy/VCwAj0AAAAIrGUcCrO5kzxEabV99iSW3tIquxJ30G9UFlg5Gmdl/T5NFWN8jJpNyh5bLSspGENg2OKvwjO0W7d+Yq6aTN4ps+LSWFkK5nK0AgAA6DxChYM2tmyGrD2F/7Q4c4VT+n1DdvEGA3YBDdpFy5n8vaCKsgxLaUh0eVP/YXF2E5pJowqD7tVW/U1T5a2UzFWSvtpimEn81ZSMln6QC3AyXz+2fC0BAADoHEJdB/7IZfysukMbmq21PjRb/bvt7vZ6puZt1z8qvS75iaSci+zCsM9zBXnn96i+3dBU6q178eCYXyvSb1SLPrKqqvDYVilaIYvlN8Zcaqw/hxC/BwAAEFihAkv6C2vOylPXbjKrK1sF9PZeYAbOCFveeazgad/SXUaZfq30VDSXuhTWU1bTr6vWru9X1R9ae5/NZtHti0VbmCnrBaAhAAAABNYyDJUWuB7RaVj7iDL6grzuOjFTT+VKbc3H/G7+7T8VX2Yr2GEK4oRUJaH5VsEM/7LH692GO84uNJnaYEE+i6vz+XAVoqqv7mNpA6X0h7NXckVFU/jFoB34r6ph5uCRN1bU7ZPZprqfZeay9bufAJQ4d7d+VAIAWRNYIZ3Dmdzx7c0vbZqlQnZT96EsoI4KK6dnNQ3yFvY6C7Df5kz+iJzObYOUDWNjjX2Cq+2cau/RpTFEXU1/fYTtbZlLbmBJ1hw8S5EiVX9qhklsM9kOqvIemdE7A0ILAAAyKrDG87a8W4IWWOX/QHmltA3ZmVmnaBdj/FMNmddUyBuCvrGyeOLPDbF9m1+9jYI1W0CVylbWnuKZ8NQE1m1V6NNK703ZSx7lW+OfnrN64QSaUO9nN6fAQzXWmosivvagwMN1H9pbZxPiAe00JrnrYfMRf7vPXU/z4v4yeA1BZIFlKDR85Bpl6XPcAe6alULysa43pPzdh+zgRZUyLtjSeneauqkrtNvnMs+xxlyktDoCzSZUWlHBFm70qXBttfd4vFVpX5IVYwutvcylBTHW/MGSf22DHcSsGsRVmYmu85AOZS5aHuhgYVXN4zvfXVczkhBaADQssEYFuY9UIwPa0Fna0zJ9fnwWCskCSnfp7n1zNncld98LKr1DOn5tNYXlbJKFo431T/dUbiq/9V1oOhWl0ZtFUzh1yC5eGDY8VqrnMZyfvd64w/hH1uLd3jLGP5vbyGADn53Otlmdn5noOo5paHegA6nF4yuvSWjIHs7g8QVNJbSnG6qyDdhFtxdM8ZosjeBopXfUKreVVh55ktxyhMk6eYp/Wi2B12rJENbIzSELYH+3pD/BcrC4OoXr6u5y/FGlTTAhWyDq1Xp8rj6fMWFJfD1czddFf7XrpgqNiqSD3FM8AJ3EZKptOL3MOrTU4wtA6wWWHWPjd0jy0VczVt5jpBtfbAdpeIQNLfl9iIZ5C5eNMvHev5ptJprOqJox5tpFZsG5RVsIDe4ea4KAvN6te77On8/a0jiv8NGfOvY1E/okvk6E794DrQ90GLPqEFdl5P24b4OmEjpE2MdbVWVm9JPWmnOVp07NjJpUelffFKcMm8E5YavfBF1hl8w8DBUFltR3raWtlKIpaEKlCvk3GftlFkYmrE5zbgsXGlyrytvU096nszZT0/rmHM/qp8ZVWVOxClNjeJoHoFOQB5JG77tT3PXWj2oETdEcYS94Y2xBt+lfYK29JyuFDTIv6dNylO+uVjYpmQxZFXmrPJhVHCzawqHGmqfQhOjNgi18tUj+y+H1rsZsT7zpnMofxe9dLVPiytp/8XVwoVwPY18zFYk6xDcVTRB0EFE9ttNQhaBZhHqwRFzU4Ll4zTN0jvJyF1EG0heIcPK0t1Wv7d3Ht/6l1QKxh91W8T2mtK8nuqn7Mz1e3838llU7sfEoqxYOmEVfKtjhv5frrWKd89ZVmqFpQ9+jlN5Ga/25jFXBsDX+OdyWXo/4RA4AaM4DxWRUIWi5wBJxUaNqubLb9B2U07kdM5LhvUtp7xva0K2L7eDL1cTYWLPd+D33+H7hQO3lrlJKTeiolmNpYNBfdEiBhq5SVepJBJX4/CSRa9jQX5fuUXmV+w7/mqE6lIztxTlDdvCqiDtCkDoAzbte8EADmkZoz+jXuBWoIEk4TyaqPk0qVV2jUpuyePqqT8VSGSoNAtYRB3SzMf4+ZO38Tmk0LJoGBs3AwSzCq4qrkVQabnXtR14+hE/KxzJWDYu5DKfw8Q/Xeq0AACKzWcTPT0QVgpYLrO4at17ePKvuJGMvy1bJ9df56LfNhTvxasfaP/q+vx9rsmfbXlxZtWjAXzStYEVc1Z6mo9J7Zeiwl/o28JQ3I3NL4hh7Kbf7u6T913qtAAAAgMCqudOQTVvFGsM/01KVxX3TJhQU9fR4vWdwJ79CtazitQsI+4fF/sCnjDGPtbG8emHQLNpv2A79VkXIgVaeRCD76NG9J2ml35GlmYN8pM9ye/+xtPt6rhMAAAAQWKUhnVq30gCI9R+1vn9+lgrP/eMHlfZOyKn8mPFWNTk1yNzPP3ZksXBjuzUUa+jf1tg9uYzXq4gJZnPksXGdK+9Aq+3+masLbufc3h+Tdl/PdQIAAAACqxQbU+82ZIcuMtY8lJ0M75a6dPeX+/T4Xcuz3GLgBWPtZ7geTuPdDbZDI/H94q/ImF34vP4z6rkVISvDauP0+M17vL6zs1UTStYbfIDb+S8buT4AAAB0DrlqAqteDJlXPZs/o0t5szLkjxjPkuFcllYPs8B6uto7JWZIvDdjeSP4PYuNKZ4wbIf+IsOQ/IdNMto+XrPGfsNac6klbVRVqRokExUBFZreYkk7sRM9Refzp1bKWoUUrX/GEC1+LQ6PJwAAgPZFhyuv+re8DPsQXUrW3potx4RaT+vcxVyC8VIOTy1rOTeoJfTwVqu3y5B/k/XtDtaYM/m/C1R21m4ctoYuNsXih7hyWCyrqkFqQa6rHHXrviX/r7J5SumZXBUfzNzVYu0t3L5nSztv5PoAAADQOTS8VE64qrDWKnO68jR3zlnJa2Qpp70pnppwLllzhFXLppxQNlgAetAsLL23R/fy37R0uGMpN/nnVWXpON/4t1gyh+V012fSmi9MBKBvi7cVrf8zFpvXjaUHy7nCZOvWPc5rZalLdUt81TIilOuALP/jWe+b2vOmZfBaeYuF8uk5Pu+5xpbEAQAAAIFF0YJyLc3RJneF1vrwLFWGUvZg1odPsBY4rZKYCH4GiBfLV34gosYSWkqSbfp/KpriHdrqX5HW39BKbVet/puMJP76+2IzeAaLpD8VyV+YV11jysBSPJXqo4IdXqZ+5LMycWDk7EwV1MOhSqsZlLG1BksVZMxsY4t34pYBAAAgksCKmBjRslA5J09du3OHvUaWKoRF4fd9a97iX39SXUMGIkGrHBlbqEkycF34/LmbfVu41Rj/Az2692ir6EOa1JrNTlMg3iZr7ev8rXcXzPD5lox42IrKxZmNpaBlD716XCkubdgOLVc35W0Eu3M5z+ZX81m7SLgcLxRt4TyuH9sG1/zUUT9HM9fZfWzz2uQ+N1aZR5a7bO0K6gKAVgusoYiJ2bnzfkQZfUFed52YNY+Fp/RZpjTWST+tqazB0Fc9sxDFtfM3Mf6STQtU3IlFzXaeyu3I0malhMVW0ZC9g0XeX3MmdzP//+8jZVcNYoMke3sP9ZY8WDUe61QWriJYx2fvEpElcQoXDNqB/2Yohm4ksjTINNeh1psF+xm2frbrnGUBWUplD1desXUa2Md8JzDLZb8vo/d31AUAaRRYMXUmZ3L/uzfvatOM1UuexcNZwZI5Y4mswJtDmkWH6Q08Q3V13+qhgik8pJX3U/7ghr4tbpVX3XwztNsrrdYiipShUg6lyP++yHLxbj6yO5TWdxtrHh82QwvzKi9CuK7ddeluKvjD5JXW9ra1iLIdWbBeyT9XyeQVYulB/vcsRYoyJrCmOZsSYR/SIR/kTDraWWwzU+rViKO8ZSa6/Yid5ITmdSkuezvXxSQnDuNcQ3BGhb/NcyISAhIkL7DGx+FsMLTAKl8C3i8lyty89i6t9E98W8pO8JNaPsDvd866+jxQrvOW4cNHWPw8wn+6jHfWRcasYSx9gN+xgVJqMu9+XX5tHKuiSa4+7ZJdyPQCRfN5PwVrLN/41BMsEB/Ulh5nUfUYv3M4ioAuvdsaUkqP0G5j8imt1AWZFVdEfPp9CWxfOCE761Bv7jq/KTHvVzrao5yd4zqpVg8hynUw3VmSa8ytM6Lsl7iyp01otVtdTHbtePcE9n1SldeecXWYFY8tyKLAimP5GMe1ytIfWXzsmsUKKg0XWiu96w+JaqsUmXWoSUVNXCqC6FlnSx0q1kom8RVZIOVGCiyJn7Javenp+OPmS8LRzRCs3fFDX+S6O48ou2vEsNi9yZJ/bYYOeabr+JLmqBFeklZ1RNNd597sxXvLHr1L3DGkIU6t3epiqmtXrViYWQTkta5M0yARQKS+M/TRPa7N+gPG+GfxLhdmtI7yWqvTlCp1XjXPzy/FKaleSij+7E2219hed/aa+1tM2KU/rG1kaOx7nlI/ybK4Yt7idns2t9/BuK6FBJGn/fuaJK7KTHQd0cwmnxcpaz/b2S3qgEeKC/Hc7NHCY2jHupjcQnE1ukx7EAARSCzIfZTX5fZeM/6avM4fmMUp+iUlqvTXenXfRtbYw6lGl3gp27f4llSQB0rX6QVqNkEAu2IpUKAiW07l6v38Kt2658daewdayvKEO0UFU7h60C66IwNxV2Vx1aoOSUTdpCY97UuHNysFne9okdkKb1a71sWMFJVpJmGoEETRDdU62zg33uMp/M+rma4s7X3U87w/sAz5WL3SpZwRPpXrNKryUjf5UtqFnOqqIYnqsuVjttFa3yDiqg2ui1e4TKfGfw0kwjopedqflfB3THMd+MQUthcpf78Tms2gnesiTV4jubY2JwAaJP5M7mHixOgnrTXnKk+dmukaU2oTpeh31i8F+n6PqHZXn3SxEs9knTerNINPtUpwLU0MKikmtNUk8VvW1jeUJXn786r7MP7saZJioh0uCuubczyrnxqHjO31dqzznPcibma5/aeZzZywmErJerLavS7SJhon4dIGDeuesBe8mLfAR+JfwB3yPW1Qb+O1552glXcLC5S619RbZsq/8UtiyyX+XHZ5mQS9XZqWxsiXj6deLwsf7gZKq9/lvPzP+fPtIa6s/Te30wtLXsfYr4G256gEPBDTMiAoRguLpDpl1AUA7SCwijFvLuD9NWt88fwU2qLytJ6ilbpZkf6ubfBGIqImr3tKy0krK793lV+ggi242ZwNCq3S0J8JhvtkFzIb0BjSRpXWU6wvB9Yyx9yllPoai6vb+edebXQ9DEv75Hb6urTXuK+BDkE8LJNj2peItYszVv7NKJnh0k6pi/kpK8M8AiBugTWc0DZoB68sGv/PlM2s2JVEzETP805hodHPyuNz1FC+r8BzJcOHpeSfoq5Y/IjAspoFkQglVVp/qCS8luaiGnkYwaLL8h6ryidXSaoBNxS5rE5rNCZIkdqJxVm/8tS5XOa12udSkIzt/hxpn0m1/Q5BhnjimFk4mZKP60oKyd00I8b9dVJdpCmoXHJiIfEoiF9g+QltBSoMGTInE7VXj6MUbaZy+tfcT/+B//tR1i8NpSgYPURYeZgw7G+JitbNefeXeErf6mnvQ214LSzmdnkKt8/hpNp+ByGd6tSI+5hF6QzirpWTKL4A6U6qCxFjafFiTScAIhAa5N6dYAojz6o7ydjLWN4d0m4VqrT6OP/4OBm63tqSS//6jBdpOy7T/lyyfVlFTmjbK8HYS7ld3tVLve18vc+hZRdxnuo6viQ67xkRRNY0ij8TfbU6mEyNrdNXizCKKrI6rS7mujK3WlQeTEjRALIosIJgbv9MllofU0RrtmXNarW7siy0SP3VkhGhdRVRjMnFkqXLikjU6nA+Px8iRSu280XAZX2OrP9jbVWi7b5FPOPEznUUHk+yh3taj7Mjn+I67P46PzeJ4h1eKwuJsXIaTXZ1MC3Gjn2zEWKhETq1Lq5zbSeJJZ+qMd999wzKxpqTIKsCK/GgXEv/1T6drzzv+21bu6rUW++gSe/AovJ7Sim5udzIhX+Yfw6k7GjFdbMRH/P23arni0qrTaltAuXGaIq+f76x/mNtWLSTa+ygr3MmnerZMX7/tAYE1vQYPSjzXflriQmb6757phMBcXXsMyIIrE6ui/toqUet/FM4KabrYvR3zSXEW4G4JUDYTLIvXvf+Znz9at1ez+1aeZtSpjN/10XBWnMbF/cvJe+W9e9SOlfkv5UWU9Y6R8bYkrIZsoOU8/KUs3mXDX7kEjZmOTVXioanICBeBf+Q7xdKSU6tdhFd/DmJlVc6mFHIu9yG//xhFn9TSKmPKNV+LpxqCpiF1QND/uKdudYST4J74R7/XO5vR944tT+Bp/T51Pg6gfK5OGerifeznplYc2MSFfNdx9xopylCIK6UCAc3KLJQF5UezeO48CNw7m79BEAthHqwCk3IpMBd/auezZ/RpbxZHVTneaX0LnyJ7yI3PmW9p/iO8aB70r+TZLhqyVBi7KJTckC8jYLcXdsqrbbmO80GLKxW6tQLoGj9M4Zo8au6kcmf6WU6NR4/IteiDE3F5cnao44OdVqMHpsogqJ8LFIPu8d0PmY18P2oCwDaUWDlKJf4l5dSExBdStbux4Jj5w6s/4ksbt7HIud9LLoOINLDXCUvc13cza89pcm7T5F6wT2BypDiW051LWZbMGpfPWwT3OvjKViYemIplYKiDfn397BtQlq/UwdCizpkBLBKA7S3cF3MzlOeVPvUxTkxdGAznTCKw7NWj8CKK0npyRTPcI8Ii7kUPQ5J4o82r/OYUBcAtKvAinupnFCMLLZiTlee/qATCJ1MF/fza2ul1pb/dFNveR27RSyU3mAR8LLUGL/nLbL6lWW0qgzFKLWae31VRXZl/v8kz8tDSlXmLWvM6TkrOe3bZkmcckB7HEiH+nRM3pNaiMtDEmcdlJf+uTim+pyOuqi7LgBoP4HV1MzTlvq1yV2htT4cp2RktbilbJQSBTCOVdLSxJ5V1jBUY7wOJPzMXGFs8c42K9YMii/ztHgrro+ho59Yo8dijxjrIE5muX1GHa7bow5RgboAoA1oeqLRkM0WbeEcFhQv45SAJgjXF7i9nVtavKmJrTxh5lP8sS1x7W9qTO9pRR3EJVRElEyOsb46pS4AyCyhHqyhJqdsstY+ooy+IK+7TuygGYWg6ciSOIULBu3AI6q9Bk6T6Eyvcx111LibWjrTzWM6XkqoHuIYGpMyzkVd1FUXAGQWHd4NNX9jzmRt9TBOC0hOyZdmbJ7VovadJEl1qP0xdaZjsVmK60CGXec0qR5QFwC0CaEerPGliWhNxtACq3wJeL+EqL3mzYNU4FvjS2D7wgntN5+iP6H9SuxU1DisSWO8PjXldVDed9RZlVNjek+n1AUA7SmwDJlWHdM1ytLntNK74vSAWPW7NTdZ8q9tw6LNSXDf0plGzZ49lkdmUgzHKTPm5iVYD3GkFZgU03s6pS4AaE+B1YSg3MpYGtCGztKeliek8ThFICbeMsY/21h/sA3LNjfBfc9rwvFvnvI6iKseNkNd1FUXALSnwBpq4brE1trbe834a/I6fyAC3kF0FBVM4epBu+gO1Z4ZwZLsULOSEDLp4+zPUHtAXQCQZoFlWyhsgu+2p/A/H2dbDacJROQVbk+nWoj1ViJDQkl6w+ahilEXAGRCYDUtk3sI2ugnrTXnKU99D6cJRBLsvjnHs/qpce2TsT2LHaoMffVXea1TmErVPUCoCwDaXWB5vLW0Uyxt/i/IensqpbbAqQINtSNr/83t6MI0tOkEyfq6bgh4Rl0A0DkCq6lL5YSrrNc8Q+coL3cR/y+P0wXqZNgaf6Zv/dfhCWg51Y4PQ1qoCwA6R2AN85YKLF3ZbfoOyuncjgh4B7UjGduLc4bs4FWoi9QTR66tLJUVdVFbXQDQngKrZWkaRmHIDOXJnMy/bsvWhVMGamQxt51TClQY1shZG4XJGTnOrAytzUNdNLUuAEifwOrmLS14Vt1Jxl7K/eShOGWgNmVuL+F2c1cv9XZCaZMMjJ6MOigxFe0hk3UBAARWNawtBbz/mKXWxxXRmjhtoGp7IXqOrH+WtipV7TijIiiOznqsTPP3pbwOhDi8QvfX8B7UBQDtLrBSEeS+bK/5X+3T+crzvo/TBqo2Fd8/31j/sQ4qcpJZsac24fjjGCpah5LNtbV5k8qJugCg3QVWgbf09ZzFi7psz76e8t6NgHewPIp86z8wbId+2YHtYw+261IqsPojvl7PsV6XUP02ox5QFwBAYLUGQ+ZVz+bPZIE1C6cOVIIF1hlDtPjVDgxsT0JgyT4nxrCfuTW8R4aMNkthHQjiDZoSw35qHf5DXQDQzgIrF/5Sy5BILO42LyVr9yNFO+P0gWUbiL2F28fsPOWpTdccHKtDjXtYaFpM++mvscONQ1QkVbdxcF8d70NdANCuAqvVS+WE9qHGWqvMacrTH+D/roBTCBxvWWNO86ymNl4SpxriaZrONiOm/UmcTRz5mOZTbR4s8bYcFEMdiCicFXPdxlGn91Pti3KjLgBoZ4GVuiD3ZVQWzdEm92ut9eE4hUAwxlxhbPHPHV4NJ7nOOQ7vQFwdc63DVP0xCoA4RYWIlHVi2E9/Qu9t97pIgqQXHgegRGigip/uzRZt4RxL9mWcQsDt4AVuD+dKu0hzq20Ssyj6NHrZR1wzE2vtTKXDuz6G71uH4vPiST3OjPG8EOoiVvHeKJ20oDZoIaEerCHeUt2pWvuIMvoXed11EmYUdjKyJE7hF4N24JEOjLuqxGZO1Ext8CldOr+DYjoWGR68rs7vjmNYMi5PnuwjjiD/+xs4FtQFABlHh3db6d+YH7O2ehinsYOx9CD/e3ZG2mszRdZ9VN90+kkxi6typzyvzvc/E9N390f0VEhdTInpWGY2WHeoi2SYhhsnaAahHqzxvKUeQwus8k9Xnr6kmlgEbYtvjX96zuqFE2gCamNZZHjoDrZLXAfZX0VYycywGRRPfM3ojrle5DgujuG7J7oyz6izU5/sxE1cQ6TPUONDYqiL5ZkTg9irNuN2qnttc/d6P8HjBuIWWIa3jHgwrlaG9tFa74bT2VkYY26y1r8WNVGVg5zNdx3Ffa7jKHciUxL63jnUWDDzrBjFngiLs12HOpOqD1eKmJjuvBsTY6yHGREFKuoifia666DsYd3clXmzKm15OoQWiE1gNTEoNyqD2tLZmvQO/Ps4nNKOYYGx/tmG/EFURc2dypQEBVWcnal07HfEeCzlco8WmWWPxWSK33sn3E/RPTaoi2WZG1MbljIeVUed9bv6gcgC0QVW2oPcR2Ktvb3XjL8yr/NfQMB7J6CoYAq/GbSL7kBgeypp1HtVRj4rs+h2j/m4mi0yp8WwD9TF8gKrVQ8o11HyC2mDNqJt4pa0oRnKqtdxSjtBXqnn+HyfjJpILdNj6pCfyXAdSPuMy9uBulhKKz1I6xAC5EGnCSzxYgzS4HODZtHROKXtz6C/6Fg+3y/Ae9XWnakMW0m80PwM1oF48GbEuD/URToEFlFySxABCKz0YqhIxhZn8z9n4rS2L8aY7/u2cJXJToxgJ5FEZzo9Y3Vwf0KdMOoiYC611ps3CZc56DiBRSVvhpJ4rJOMtRfi1LahuLL2F3x+T6Pm55VKknYJmn0mIWExi+3gDAmKqZTcMiyoi6X1AAAEVgt01oAl+zVjzUU4ve0krsyFfF6PZFk10GZFi9oB3Z+CMsx34ippYZHmIbKkxRXqIh0CC2sYgg4WWAFD1tKXrG9O5d+HcZozzTCfx+/J+WzTcxnVgzWdWuvVmE/Nmb4+y31PGoXFJU0SV6iLgLlELZvkch0B0OECSwaQfGvNd4f9oYOstU/iVGcPY+0TfP4O5PN4oqKsZL5t6IbdaEcpn+un1nk1xFMxmZo3zHmf+77rU3LupL5lYs00ar5no9PrYgY133sbVy4vAIHVDiJLUcEO/8YYs7M15gqLJFmZQM5T6XwZ81E+f1d2wGzBRm/aM0ftY2oTO51zaOlyIs2kPKNuT2ptsPP1rvytXFuv0+uime19PiFFA4DAWl5kMU9zr70fGftp3/h/xfT+9J4rOT98nvYqnS8+bx1yrmY00EHeT8vP2Csv8Jzk8InMFJRVE1o9o62c9PHoJouLcvlF2MxNSfvp1LqY59p70l68ZwhZ3AEEVnUs2WuGzOLtC6awv2/93/GfCmgCqWBYzgefl/34/GzH56nT4hzqzXNUDiIO25cIr3UpiIeJuzOV7+1PUd3NdOLi4AQ7Wulgz3F1mrbyd3pdlK+dgxMQl/Pdw8rmEFegEXKdVmCllF+0hcsVeVcqq95jyWynKbeX0rQ1v9zdaaKzRUg81ZA1dLeh4jWK9F1F8v9jrV/k89OpdVKOqZFO8qAqN/yZzsYamhOPwjQKPE17OJMOsZ7Fe+c478h1lB5vTRiznE0aUVaxRtbVK6/T1+/KnrXOtRProlzmkW29kfI+M6KsCGgHEFh1i6xg4LDIv95rrb2X/zObrF3NGLOtUnotVmEbkC0tHI2YrXirfRHX8xPWmme11n/hP73C9f+maCrl3mI7u8rnOVE0g5YuvDtSgPVT/TFP80Z0PuT2OZnCPWDlxX/7M1yHI8tLI8o6dQxBOtLapT11Wl2MFEaTR1kY/aN+AhBPp8cdHGoBAAAAACBGMBwGAAAAAACBBQAAAAAAgQUAAAAAAIEFAAAAAAAgsAAAAAAAILAAAAAAACCwAAAAAAAABBYAAAAAAAQWAAAAAAAEFgAAAAAAgMACAAAAAIDAAgAAAACAwAIAAAAAgMACAAAAAAAQWAAAAAAAEFgAAAAAABBYAAAAAAAAAgsAAAAAAAILAAAAAAACCwAAAAAAQGABAAAAAEBgAQAAAABAYAEAAAAAAAgsAAAAAAAILAAAAAAACCwAAAAAAAgsAAAAAAAAgQUAAAAAAIEFAAAAAACBBQAAAAAAILAAAAAAACCwAAAAAAAgsAAAAAAAAAQWAAAAAAAEFgAAAAAABBYAAAAAAIDAAgAAAACAwAIAAAAAgMACAAAAAIDAAgAAAAAAEFgAAAAAABBYAAAAAAAQWAAAAAAAAAILAAAAAAACCwAAAAAAAgsAAAAAAEBgAQAAAABAYAEAAAAAQGABAAAAAAAILAAAAAAACCwAAAAAAAgsAAAAAAAILAAAAAAAAIEFAAAAAACBBQD4f3brQAAAAABAkL/1ACsURQAIFgAAggUAIFgAAIIFAMAkgAADAMHJEjWgOavWAAAAAElFTkSuQmCC;" parent="1" vertex="1">
          <mxGeometry x="336" y="440" width="114.28" height="60" as="geometry" />
        </mxCell>
        <mxCell id="XNcS4B2B-zJWbk4Hjfbm-8" value="&lt;font style=&quot;font-size: 14px;&quot;&gt;ms-TransactionService&lt;/font&gt;" style="text;html=1;align=center;verticalAlign=middle;resizable=0;points=[];autosize=1;strokeColor=none;fillColor=none;" parent="1" vertex="1">
          <mxGeometry x="315" y="410" width="170" height="30" as="geometry" />
        </mxCell>
        <mxCell id="XNcS4B2B-zJWbk4Hjfbm-11" value="" style="endArrow=classic;html=1;rounded=0;" parent="1" edge="1">
          <mxGeometry width="50" height="50" relative="1" as="geometry">
            <mxPoint x="389.5" y="530" as="sourcePoint" />
            <mxPoint x="390" y="550" as="targetPoint" />
          </mxGeometry>
        </mxCell>
        <mxCell id="XNcS4B2B-zJWbk4Hjfbm-13" value="" style="endArrow=classic;html=1;rounded=0;" parent="1" edge="1">
          <mxGeometry width="50" height="50" relative="1" as="geometry">
            <mxPoint x="392.64" y="630" as="sourcePoint" />
            <mxPoint x="393.14" y="650" as="targetPoint" />
          </mxGeometry>
        </mxCell>
        <mxCell id="XNcS4B2B-zJWbk4Hjfbm-14" value="" style="image;sketch=0;aspect=fixed;html=1;points=[];align=center;fontSize=12;image=img/lib/mscae/Azure_Database_for_MySQL_servers.svg;" parent="1" vertex="1">
          <mxGeometry x="358.94" y="770" width="68.4" height="90" as="geometry" />
        </mxCell>
        <mxCell id="XNcS4B2B-zJWbk4Hjfbm-15" value="" style="endArrow=none;html=1;rounded=0;exitX=0.5;exitY=0;exitDx=0;exitDy=0;exitPerimeter=0;entryX=0.5;entryY=1;entryDx=0;entryDy=0;" parent="1" source="XNcS4B2B-zJWbk4Hjfbm-14" target="XNcS4B2B-zJWbk4Hjfbm-1" edge="1">
          <mxGeometry width="50" height="50" relative="1" as="geometry">
            <mxPoint x="384.2" y="870" as="sourcePoint" />
            <mxPoint x="434.2" y="820" as="targetPoint" />
          </mxGeometry>
        </mxCell>
        <mxCell id="XNcS4B2B-zJWbk4Hjfbm-22" value="&lt;font style=&quot;font-size: 14px;&quot;&gt;ms-&lt;code&gt;ParameterService&lt;/code&gt;&lt;/font&gt;" style="text;html=1;align=center;verticalAlign=middle;resizable=0;points=[];autosize=1;strokeColor=none;fillColor=none;" parent="1" vertex="1">
          <mxGeometry x="753" y="410" width="170" height="30" as="geometry" />
        </mxCell>
        <mxCell id="XNcS4B2B-zJWbk4Hjfbm-28" value="transaction_db" style="text;html=1;align=center;verticalAlign=middle;resizable=0;points=[];autosize=1;strokeColor=none;fillColor=none;" parent="1" vertex="1">
          <mxGeometry x="350" y="860" width="100" height="30" as="geometry" />
        </mxCell>
        <mxCell id="XNcS4B2B-zJWbk4Hjfbm-111" value="&lt;span style=&quot;text-wrap-mode: nowrap;&quot;&gt;ms-TransactionService&lt;/span&gt;" style="rounded=0;whiteSpace=wrap;html=1;" parent="1" vertex="1">
          <mxGeometry x="592.2" y="92" width="150" height="60" as="geometry" />
        </mxCell>
        <mxCell id="XNcS4B2B-zJWbk4Hjfbm-112" value="&lt;font style=&quot;font-size: 12px;&quot;&gt;&lt;span style=&quot;text-wrap-mode: nowrap;&quot;&gt;ms-&lt;/span&gt;&lt;code style=&quot;text-wrap-mode: nowrap;&quot;&gt;ParameterService&lt;/code&gt;&lt;/font&gt;" style="rounded=0;whiteSpace=wrap;html=1;" parent="1" vertex="1">
          <mxGeometry x="588.2" y="249.99999999999997" width="150" height="60" as="geometry" />
        </mxCell>
        <mxCell id="XNcS4B2B-zJWbk4Hjfbm-113" value="" style="image;aspect=fixed;html=1;points=[];align=center;fontSize=12;image=img/lib/azure2/databases/Azure_Database_MySQL_Server.svg;" parent="1" vertex="1">
          <mxGeometry x="836" y="81.80000000000001" width="48" height="64" as="geometry" />
        </mxCell>
        <mxCell id="XNcS4B2B-zJWbk4Hjfbm-114" value="" style="image;aspect=fixed;html=1;points=[];align=center;fontSize=12;image=img/lib/azure2/databases/Azure_Database_MySQL_Server.svg;" parent="1" vertex="1">
          <mxGeometry x="839" y="246" width="48" height="64" as="geometry" />
        </mxCell>
        <mxCell id="XNcS4B2B-zJWbk4Hjfbm-118" value="" style="points=[[0.35,0,0],[0.98,0.51,0],[1,0.71,0],[0.67,1,0],[0,0.795,0],[0,0.65,0]];verticalLabelPosition=bottom;sketch=0;html=1;verticalAlign=top;aspect=fixed;align=center;pointerEvents=1;shape=mxgraph.cisco19.user;fillColor=#005073;strokeColor=none;" parent="1" vertex="1">
          <mxGeometry x="250" y="159" width="80" height="80" as="geometry" />
        </mxCell>
        <mxCell id="XNcS4B2B-zJWbk4Hjfbm-119" value="Cliente" style="text;html=1;align=center;verticalAlign=middle;resizable=0;points=[];autosize=1;strokeColor=none;fillColor=none;" parent="1" vertex="1">
          <mxGeometry x="250" y="230" width="60" height="30" as="geometry" />
        </mxCell>
        <mxCell id="XNcS4B2B-zJWbk4Hjfbm-120" value="" style="endArrow=classic;html=1;rounded=0;entryX=-0.042;entryY=0.566;entryDx=0;entryDy=0;entryPerimeter=0;" parent="1" edge="1">
          <mxGeometry width="50" height="50" relative="1" as="geometry">
            <mxPoint x="745" y="118" as="sourcePoint" />
            <mxPoint x="833.9839999999999" y="118.024" as="targetPoint" />
          </mxGeometry>
        </mxCell>
        <mxCell id="XNcS4B2B-zJWbk4Hjfbm-121" value="" style="endArrow=classic;html=1;rounded=0;entryX=-0.083;entryY=0.563;entryDx=0;entryDy=0;entryPerimeter=0;exitX=1;exitY=0.5;exitDx=0;exitDy=0;" parent="1" source="XNcS4B2B-zJWbk4Hjfbm-112" edge="1">
          <mxGeometry width="50" height="50" relative="1" as="geometry">
            <mxPoint x="713.2" y="280" as="sourcePoint" />
            <mxPoint x="834.9960000000001" y="281.01200000000006" as="targetPoint" />
          </mxGeometry>
        </mxCell>
        <mxCell id="XNcS4B2B-zJWbk4Hjfbm-122" value="" style="outlineConnect=0;dashed=0;verticalLabelPosition=bottom;verticalAlign=top;align=center;html=1;shape=mxgraph.aws3.api_gateway;fillColor=#D9A741;gradientColor=none;" parent="1" vertex="1">
          <mxGeometry x="410" y="180" width="56.5" height="63" as="geometry" />
        </mxCell>
        <mxCell id="XNcS4B2B-zJWbk4Hjfbm-123" value="API Gateway" style="text;html=1;align=center;verticalAlign=middle;resizable=0;points=[];autosize=1;strokeColor=none;fillColor=none;" parent="1" vertex="1">
          <mxGeometry x="393.25" y="243" width="90" height="30" as="geometry" />
        </mxCell>
        <mxCell id="XNcS4B2B-zJWbk4Hjfbm-124" value="" style="endArrow=classic;html=1;rounded=0;edgeStyle=entityRelationEdgeStyle;" parent="1" edge="1">
          <mxGeometry width="50" height="50" relative="1" as="geometry">
            <mxPoint x="466.5" y="210" as="sourcePoint" />
            <mxPoint x="590" y="120" as="targetPoint" />
          </mxGeometry>
        </mxCell>
        <mxCell id="XNcS4B2B-zJWbk4Hjfbm-125" value="" style="endArrow=classic;html=1;rounded=0;exitX=1.062;exitY=0.476;exitDx=0;exitDy=0;exitPerimeter=0;edgeStyle=entityRelationEdgeStyle;" parent="1" edge="1">
          <mxGeometry width="50" height="50" relative="1" as="geometry">
            <mxPoint x="466.50299999999993" y="209.99800000000005" as="sourcePoint" />
            <mxPoint x="586.5" y="280.01" as="targetPoint" />
          </mxGeometry>
        </mxCell>
        <mxCell id="XNcS4B2B-zJWbk4Hjfbm-126" value="transaction_db" style="text;html=1;align=center;verticalAlign=middle;resizable=0;points=[];autosize=1;strokeColor=none;fillColor=none;" parent="1" vertex="1">
          <mxGeometry x="813" y="145.8" width="100" height="30" as="geometry" />
        </mxCell>
        <mxCell id="XNcS4B2B-zJWbk4Hjfbm-127" value="parameter_db" style="text;html=1;align=center;verticalAlign=middle;resizable=0;points=[];autosize=1;strokeColor=none;fillColor=none;" parent="1" vertex="1">
          <mxGeometry x="813" y="310" width="100" height="30" as="geometry" />
        </mxCell>
        <mxCell id="XNcS4B2B-zJWbk4Hjfbm-128" value="" style="endArrow=classic;html=1;rounded=0;exitX=0.988;exitY=0.638;exitDx=0;exitDy=0;exitPerimeter=0;" parent="1" source="XNcS4B2B-zJWbk4Hjfbm-118" edge="1">
          <mxGeometry width="50" height="50" relative="1" as="geometry">
            <mxPoint x="360" y="260" as="sourcePoint" />
            <mxPoint x="410" y="210" as="targetPoint" />
          </mxGeometry>
        </mxCell>
        <mxCell id="XNcS4B2B-zJWbk4Hjfbm-129" value="" style="shape=image;verticalLabelPosition=bottom;labelBackgroundColor=default;verticalAlign=top;aspect=fixed;imageAspect=0;image=data:image/png,iVBORw0KGgoAAAANSUhEUgAAAlgAAAE7CAYAAAAB7v+1AAAAGXRFWHRTb2Z0d2FyZQBBZG9iZSBJbWFnZVJlYWR5ccllPAAAYMJJREFUeNrsnQmcHEX1x19Vz+yVhIQblSMcAoIKAqIikADiASiXisgVBEE8ICCoiEJABBWEACoKKAECCsopIod/2CAeeHDJIXe4TyEhyW52Z7rq/950TbLZTM/OTHfPdM/8vv152c3OTE9XdXXXr1+9eqWstQQAAAAAAOJDowoAAAAAACCwAAAAAAAgsAAAAAAAILAAAAAAAAAEFgAAAAAABBYAAAAAAAQWAAAAAACAwAIAAAAAgMACAAAAAIDAAgAAAAAAEFgAAAAAABBYAAAAAAAQWAAAAAAAEFgAAAAAAAACCwAAAAAAAgsAAAAAAAILAAAAAABAYAEAAAAAQGABAAAAAEBgAQAAAAAACCwAAAAAAAgsAAAAAAAILAAAAAAAAIEFAAAAAACBBQAAAAAAgQUAAAAAAIEFAAAAAAAgsAAAAAAAILAAAAAAACCwAAAAAAAABBYAAAAAAAQWAAAAAEBbkUMVAABANjnyxqntVqQ+ti3Z9mHbiG1ttufZHmG7ja2fbT7OPGgl5+7WD4EFAAAgM2zFdgLbHqP+viHbjmxfYbuD7RQntABINRgiBAAA0Gr2YvtDBXE1mh3YbmQ7AFUGILAAAACAcMQ79Su21Wp8/zj3/r1RdQACCwAAAFieFdl+xDaxzs9JeMvpbGuiCgEEFgAAALAsn6AgqL0R3sn2OVQhgMACAAAAluJR9GG+/VGNAAILAAAAWIqkZPhgxH1MZlsDVQkgsAAAAICAPNvbI+5DvGCroioBBBYAAAAQYNiGYtiPj6oEEFgAAABAwGK2hyLuY5DtRVQlgMACAAAAAsR79c+I+7iHbR6qEkBgAQAAAAGW7VqKNsT3c1QjgMACAAAAluXPbFc2+NlbnAEAgQUAAACMYIDtWLaH6/zcU+5zg6hCAIEFAAAALM9LbHtSsNhzLfyV7TNsD6LqAAQWAAAAEM5jbJ9lO4LtXyHvuY/tGLbdKQhuByDV5FAFAAAAUoAMF0rQusRkrc22AVsv2zDbk2xz2f6HagIQWAAAAED9vOnsflQFyDIYIgQAAAAAgMACAAAAAIDAAgAAAACAwAIAAAAAABBYAAAAAAAQWAAAAAAAEFgAAAAAAAACCwAAAAAAAgsAAAAAoA0IzeR+8HXvy1RBLG853np1HxlFpCybsTTIW7fqZSWpyPLfh+xi/p3/p3Tp/cb65Kn8SkrZ1Ywx2/Lf1+IXN+DdjSvtFsSF4m0RWfuEteZZrfVfrFWv+LbwplYeFXnjv5Ns3aqndP4MV/+QHaRe3qwOzl/pnNqB0vuyxoTcxGZ8TRebx5YPeV2WHZHKK6SsffeNuB/JcS12x5j0/a+bbTzbZHcMk93/fbZn2N6iIKv4M67uhlLezLqdlesxqWPucvU3sg+R8zUY4/67S/eNoL0OJdAetPuOvPuOYWdJ4o2oN2+5bmzZ67Md0SOuuQ3Z1mOb5K63pX1FUBfPU7A8klx7AwnXiZyPld3xSHuQBchfcN8bv8BqZ2zQr0jZ36OU2o5/7sWiamvted1U9uopKKJkZJboLC+4YVq6m+v/Gv79Lj4j/+HzUkQF1S1KZL22d7B9gG0dto3ZVmFbK6QVP+kEw3PuBvYQ29PuZvJ8jB1kbaKb6OMULN77Uba3u7+JuJLFfK9lu97dYONiXbb12XZg20ruAa6+PPfdqkKnZ9wxyYLEsnzLP9judXX5WkrawhZse7J9gm0TVx65nh5hu4HtRoq+QPI7Xfvalu3DFKwXuPqIepL2cyvb79lublDAy7Hv7drFu9l62BawPcD2J9ceHopYjlVde9uLbTN3rQy48/t/rr7+HtN5WdEJiXVdW5PvW8PV22qj3itt7HG2+e7nve6YnnZCI6us6u5TH3Bt573uQcajsUfRRHgtdHVxJ1s/23+dAIrr/OzBtj/bdiPuA/K9L1KwLuZlbP9p6AZnre0oD9ZiM+h16e7Pcce+h6e83as86YPmMexb/wZui9cOm6Hf9OheAw9WVT7sOogPsW3JtlIM+xQR8yjbg2z/YpvjbjBJIaLwB+7GVg05ppPZfh3xqflTzrZ1QiEqcgP+t+uIr3H11QrE03M829eliVV53zy2H7N9vwHhI2JnHydK16nxM1exTa+zIzyG7TgnQMIQQXs22+kN1teO7rNbV3mPCJ1L2b5NjS8u/RF3jW7jvitKP/O4a2u3u4eO1zNyy9vGXXPSbt4fo9vifie2pI3dFWE/W7m2tO0Y75M2fCbbWeU/nLtbPwTWaIFFSu3FHfPXczq3jcXoX/qcW7wVTfGvmvQZZO11EFjL0Os6OulIN6XArZ4UvvNoPcx2OdttbK/EuP+3OVHywRrfL56Yw9gubqDOPs32NffU3J1Qfckw4n1sFzoPy4KmXTJEv5TbdR2fEZF1bI2idCe2GWybU+AtrRfp/PasURBI3R1aZzmOq1Ms7uqE+oQa3y/euH3Z3qijvUl5j6LAEzc+gXMu3qzZ0senVGiJx/FjbF91AibJ+5R4+u52Dw13NiD+xDu1Zh2fOYntlHoEVtsHuTshtS7fii4nrX7naQ/iKsXnSs4Pn6drSueLzxvOVeka3cPd7EWUfDjhm5YgbvK1naC7zImH89l2brCjHX0DnlmHuBJyrkP5RB2fkWP9k/NEvD9BcSWswLa9qyvxaH2ebVwT2saxdYorcgL922O8Z2MnrG91HVGj53xb1ymNVfdfrlNclctxXB1ekfc4MTqhju8QD9SsGtvOju5BROpt64TEVdCXEX2XAk/zca7tpQWpr1vYrqPAg5f0fWqi+04Z1r2IgqHYWpAhy5/VKa7IXTe71nvzbusOO6+6Pqe1vk1p/XmFyKpMUPI1yvnS+lY+f/t0sMha33Xa19LYbuwkkSGbL7kOV+JTDopw7xCRtHsDn5MO64QaOvuVnHfjRicOms0mrpMVT9aHEvweEUHTG/ysDCmuF/KanNs/sn0upuMUAbhpldfXdkKhEb7pBMdY9DpRsnoD37GbE8zVxLW0tz+4h59mIWX5kRMzW7X4PrWee5C5wT1oNBt5ADvEtdsDanj/FyiIhasXEdrH1CNq21ZgcZfscS/9vS6v+xKl1PqQLRl03Si1AZ+/S/k8nmI7L6WIDG3NGePm3gpk2EiG6iTQ+PA6n9Tz7gbYqDfpw2MITQn0/r27CXaloJ4k0PtEiu71q4QEaL+9wc+Od4J5JF2uw/4VBQHIcTHOeRnC2D3C94mY3r+G90nM3R6NP++VPGxehdc2ch4baW89LWpnO7gHnwNb9P0HuvtUlOs6TqE3iwLvVF8VzfPFiPW9RacLrG6l6OfK099JwY0WRKOLz+N35Xx20LmUJ/MrKAgETyPKeVDknNxUxxO0DM/sGPG79wz5+8eduNomRfUkT7oSoH89xRNYP1IMfTDiPnYeIQrkOMXrdlxCfcK2VHnGuvxt14j7rsXTNoWiBZlLDNqaFQT0jTGchzhY0Qnj45v4nTL8dw7bJVT/UFuiz+VsR7D9NuQB5EMRj1fVcb9rQ4FlqU+ROk8rfSiBtoHP5xf5vJ5rk/EGpIlvUBC0mZXZrdu5jmbnGt4r09KjTqVcq8LfDneC9O0prSOJR/mj+xlX57Z2xH2IZ6nsfTyPAo9pUqwZ8nDUFcNDhEyYWGWM92wU8Tu8UUJKHhIkWH6DFLUxOcbT3MNZ0qzqyn9kiu9Lu7gHmw0r3D+i3ltrjfUKF1g2g5sctVLqZK3UFwm0ochSh/P5/XY2W2dNcWTy5PVDqjwckWYkHuQC9yRdjbVj+K6NKtTZ+TV8d6uRMIVrYvDYlMXRajGINNmH3CuTHl7KUeX4V7ko/BiExVixVVFjb9WI9iXeuKudyEgjp7J9JsH9y/UnQeUfz8B9aSsnBCeP+JtP0RMsj6+n4Ye8kK0cpNKBaZXbn/85lkD7iiytT/Bs/gGyxatUe81ZEO/GGRk+frmJycyu7yTY0dEoT4jE7/yYsjN5RYZIZYr9fhQMrUbt9KMgmdFlOPXEJpR7fgxCqvrtP9rrtfCWe0C4kJKfHRdVzEq+Jkkw+2DM+97YictNMnRfknipWRTELL4R0z5NPSejIn1NmWUcK2tx73s2Vrdpf3q8vjOpaP5CQa6mdkCGSc4kyt5FNwqJjzqpSZ2pxFLI1OzejNXRpBEi648tPhaZedWM+JkHKf1LDFVD8rCJl+xcJzLSzprufhKnl0k8dldmTFyVkRi8X7r7k9/ML86Ft6jsLIUk6wpqlfuOUnYVAh2AXctq9R1ji0fI+oVZIRceoy+xDJu1wYlZwd3cn0nwOxa7zk4C7LN6va/onqpldt39LRT1zRBXIoj/TNl+8pVjlzi/jTJ0zJLsU4Z/L4xhXxL3KjGO783wOZRZpOJdl4z40mk0JQwjVGBlKVO2R3pH1lifJ9Ax8Pnej59FruJ2ekfGiyI37SPa5LT0OtGTpMASEfeTjN/sBYl/usx1hC+14hJq0vdIh/aHjJ+rfMbEVRnJkxZ1aR1pJ+KV/ghlHwlhkPixAjVpElEuXLRkJs62Vyl9NCWXORekkwly3j3rSebswQyXQ56MJ8S0LxnKkCVt/kbBYs5P09J4AfFYSAzJ+k6cdFH8i72Ld+nlhOtLZo19uk3asGQXl5lfB7fpNbrIeQ3exO2qJbyLgqV+zouwj09T4wlt04YMz8tC4k3zpobeYHVWMjgotbfSehdcS52H5vNuLe1J1l6R0SJIosTPxrCfN9yTqiQA/SfbcJX3ek7QSecuKRZ2cE/na8VwHM9T+uPiXmV71h2r/FxIwYLSEmOyxgghKikf1m3C8UyjYBHfy9rs8pTFpSWv1i24U7Wud6RgmHB2gyJXroWzqTn5Bx93D4X3sj3lHpqVE0PaHYvEv23ors9VI9ZLawXWwtJ9J73IrMFePW5CXnUdz//TuJY6Ek9p7/iCHb5h0CxamPZZhROWTwEly8ZEnW4vwf7fdD9rwXed35+diQdFljKR6eeSy+qTEW6os1J7uwhydUnGa1kc9gEaO+hachzJGoay9MdeMZynavzAHdsrbXJdSjC0ZNO+kzoXWShdVjuQ4fLXRvW5azuTh5yk4+De467t3zfw2VMp2WTHIvquoiAT/F/cA89YSBiCeOBlkovMIp6a5kaQqyZg0i6wSMZUVSZnNYD4ntHezU3haG4P38vg0UfNMP1Xtk9R9OnHDzmTbNAyrLAPBet1rVHHPkQgXJKy+pUhS5lWLkMk91F9M9mecCZ5dH7khKekgFkrgeMUb5lkfP9SBtvwItcx/tMJV4lx+Q81ebZWShAPzG8o8CbL8LzEPhWrCIVV3cPNwe5hK6kwl881ILBkBmJScc0LKJikIgH4j9f52UH3kCQmMwNl+azjqTVrIDYusLpbvqzQGP2q0u/K6dzhSMvQ6ViSdtBr+35nrXkkQwcuwdpRpnxLXp6vUHy5XYSC6yTFJCeXTOM/yD0FV+MW9940xcKJd+4E9zMq0lme6zpOWTR4GsUfJCudoAzl3JWBtmucuO93Hoj/dPhNSCYpSKJd8dq9WodQeNaZpOvYkoKcZJ9K4PgkQH2cE8O1IJ2/DO8mMTQo+d9mOEEeh1C72dmXndBK07I9mQ1yV1rljlKk1iDQ8XA7eEdO5Y80tvhlyo7ilmDtyRE+Lx6j+xI8PhlGlCSeskbdnu5pdvRCyw+7138es9CL2vnL0MaP6uhQ6vFQHMb2J7aZ7hzGxUTXSfyDqsfQtZpyrN8tKT/OZiFDW1+jIHYoCjLbUoa8jqJgqaw4c+KtTIGHp9a8azKzdUrM9SRt5Qfu2kwiB1R5SFqSrO6clsaRuUzupaFBpaYorffFtQ3KaK0/r2zu12TtnRnJ8C4d6koRPn9jk45TZgWe74SUPB1u4O4b4rWQGIrXU1SnIvJkRvGlCX+PeG2eZPuF8zzExZ6uA3o4he31fuch+D8IqyVc6tpbnA8XsoDyC27fcSXR9dzDUa0C68sUb54oGS4Wb/tFCZ+PB9019H0nVNMrsAZ4S6O46tY9Kqfy36ZgiAWAMiuw6P520RbuHDKLKY0iq2/ZEIuVIz6lNruTe8t1/A+n9Pz/j4Ip6bc16fvE4yDDer+JUWT1uI7oKymqV+MEtoirBbjNLEFimiTFyuIE9v079wD2ixiFjqzLV56VV42tKV4PkAyFfqkJDz1lxGv9ddduj06twCqGxua18ko3lKeeA0mpnRF7BZZDqY8ZS/sXqDA7A2lGot44cQGMvF0RHdBEcVVGguBloWQZMoxruFDyDp3oBGOrkc7qOCewwFLEU3JYQuKqzCwKhukOiGl/qzinxPwx3iflivPmeUwTxVUZ8Zh9yz3EHtjKhhIqsPLNSXRabw+6mqc8LOYMwlWL8o7rpp5bWX+82uZFlZvvb3DGS0JTnlhbta6fePQk19A1FE9QsKSDkGGOi1pcry9SsF5iP5rYcp33Nyj5hLryPTKzVPLUxRG4vYrbTzWB9XaKN/ZKJob8vEXnSTz8X6UgpGEbCKwa0Mo7VCv9bjy8g7C+1lP6vd2q+xBj/dPbvLAyPCWB1o92+Em/qoU38TKyFIzEzhwX0/4+1mKBJbF1Mtx6J4HRXN5EMf+k+75vxrCvSTT22p0fYFsnpmO/h4Ice61EhrQlnuxWSjaPXf0CK01B7kFgO21MnncErm8wForbiefT1dxsHstIwHujN8zZriN8okNP9Wuu80lD0LXMkJJcRu+OYV/vd0/erTivMtx6DMRVRWRI8Owmf6fEYcksxb6I+5EA0Gpxy3KjlHQOcXlWZP3CNCTOlckZP6XAG5gegTVUV06+hA9S5clTORkGWBPXOBhTYEkySOUd41PxS0WbnglP3ctOCpIhzIUULbmgBK5KIswjKVh/sNOQGXfPpORYZCaZpIaII95EvAhbtEhgiSduFu4iFZHUFA82+TslB5vE+EXNjyVxVStWeV1mNH84pmOW5L43pui8iSiW4e4NIbBGIYHtfSq3vafVgRgaBLXfTtRBvrGzB+3gXWkJeB8lsOa5Tjlq9uat3I1f8r+cT+2z3MpYSAbotGWOl+FKmbn0vhj2tbnbXzORhdO/i5tHRay7zlox++sPFE8C0moeLFkS510xfEfB3YvSxAL3MNbsYPv0Jxrl4+jmDlLcjV24xkEd9HC7OTFP+d0onXl7JGnlYxSsSRYVWbxZrpHPuk75l27/7YwkFpyfsmOSp9K4PEAyXV4UebOy44twmE7pysafJmQ4ulVe4gfcPSxqH1jNQ7FpTH2sDC3fm8Lz90d3v22qFytUYHWlRM94yttHa287eK9AvfeSnPamaNv7Wd/6s1N4gNKRSXzAR2Lc57uc0JLh9GvdE5sMabzcZif3eWrdrMGxkIVr51K0LP2CLE+0YhMFj6wLdzfuG6FI8s9WLcX1intgWj/B79g2hn1I7qnrUirSX3cPn99JhcBqdZC7C2xfVWlPMrLmcX2DBuji9jPdM3QzN6fXUxjwLutySVLJnpj3K8OOBziTp8nbKYjjkPXj3mqD8ypC4MmUHpvEhPVTsF5hFGTWkywF9mITjlniAX+C20VVJBaqVXEzbzRBYMUxPPiae8BIK3IflCH8cc36wlAV5bd4MXRNHneH+nCl1Ba4tkGjcPvZksj7oiVzeqvbdG75YXe5Gf0rpqfHMN7n7Ah3k5bvvNKJlEUZPKXiypaEosUUH58s2CyLZEdV9OtRMN09aUR8P4y7RVWebeF3SwzRmwl/x8Yx7OOZlLeje9zxvb/lAquVS+WI96pPj18/r3Nfw9Bgxfr5l7XmH1p5r5X+b83KfC9/D4uJKaidCiLL00cVTfHKAbPoqVZ6sVZYfthdFN8PExZYZWSa90bOJFvzUxS482Wx2nvdE3oWmO8ETJqRmBmZxLBixP1s2JTbCbxXtdBKj6mco4UJ7l8C3MfHsJ+73D0tzfeOdAis1g+nKFkuYjVc1yOuMmMfMOR/R6nc3b7xX9We5/5uyGo9Sfv2A6TUMUqrj6K2lmF1bk/f4Tb9hRQOE0oskQwV7tLk7xXvyDHOJPjzz2w3OG/GQIrPpXjd/pvy9iYLYb8ag8BapwnHKh3OP3CLGJNWxhWJwEpyqFiGouOY1fb3DJxHGTE4qOUCq5u3VqGVt2NO5/aC92rEFWbtLK6No/nnPFVZI8gT8y1cZbfxe05QSsmC2D2oueD+lNe5vZUdd5mx/h0pO7jyulmbuSfJVrChs/0p8GTJYrOSAkG8XCaF4sVPeYOThJQypLRRxP28vQnH+tsM1GcaaPWTWZK5ZiaXuvzoIvDZDJxHyS0nqSSaEtedvjQNivqU9uSpejyu6QBj7aUsmr6sSA3W9nb6nuEfntInJ3xhZokVtPaOVoafsmzqZrmIaJjuRE1fC49DbrISiyEzbWS9NUkYKLPL0iRK/5uR9vZCyjvVcqf4J9waOp6uGASkPIhlIY7vefcA1BSBpcNfaNXm7aWV/gTavLsDGnqIrP0qN//aRYEq3Tp/ZIztRw2OaNNK78Lta89WtewxEK+RBKKnZQkFuenKMjw3UxAUv2NKjisrsyDjyDC/bsLH+HRGvA4g4Wf4GPYxn7Ix5CQCq2l5EUM9WAsTjamr9ChlqVePm5BXXcfz/+B1WaqwzlTWLlDl60BVV1ZG2fKvw1ynp/Iv21c7zx2Gp7R3fMEO3zBoFi1sdjzWBJo41lsudTcpycg+LiV1JkJLEphKwlYZTpKMyK1c+/CZjLS1OITgCgkfo8yqegm3hY5nNYruLZXrspCBskooTdNmIOtqgqfZG3Ms93mboL27c2BLwce3kgRdOVNKl86OqnjOAmVFdondYaz9O2pyGQ0qi/Ee06L2XQuXOTFzX8pqToYuJThUcskc0uIbZBaI4yEx6fi3uZTedBeguQIr7W013l6gSaQmyJ2Fw7tyOncYAttHKibzT+6Yl3nC1LaUlmG5atJ+ILGUXa4p3Uqe2haVuVSGSjvrtX2/5Xp8JKUH2c+2K5vMpD08Zce2FttFbFuyfZOCHD0gmzyJKgAUT6eLjrsegdXkIHelVe4oRWoNnJKyLlI0RMPPLLaDttJQlnhE8v4w9alxLKpUlfat/ofaXK5u35FT+SONLX45xTcGmZb9JQqWd5AFeLeldA31SryYLOcicVrPN/F735GRZhbHzLwkb8LiuXoNdwPAPEqBByqK17WPKH05cCqgKQ0erOYtlcNSQampSuvPo52Puruq3OIe3RveUkRYGVNLgwKjK4Xbm7K53yhr56T8vnC7M4mDOpBtZ0rPwuci+q52IuupJn3nKhlpYivGsI83Ejy+eU0WxiC9xDFMLClJZGbe4pSXdc1m3j9bmsldvDDdukflVP54khhgsEzd5FVpq/ImS8ZHCpsGWYFF/fFFW5gzZBY3JbFuX7TMI+LJkszrWzpBs29KxMbWbGe742lGgtK3ZaR9xZEkNMkZfgoPXyDGh3AZCRBvQNpDBlalJq5tnAuXtMnHPhre8tRzICm1cxaHcKVTLgcvW4rfDzJ2YHTL6myQtd2QUjRpZB1k7wSqjxlL+xeoMFtno6+R6cV/cyaz+SROa28KhurWbuFxfYqCeLFvNeG71stI61ozpvMNQNL8jwIvVhTPjgxnywS1V1NeVkmo3LQA81CBlW+KyFOr5ZR3XEYb5fyCHb5KGf2IVrlXLJleo8yG3FHvqJTaqg0vwoK15loWVncqpZ+21i7k39f0VWGLnMrvzuJygywWStpfN/XcymL11Ywduhzvxc7WZ9uJTdrdDtSac3Es2x8oWHInSTalIN4jzcv5SIqNtWLYzzMEQPJIvGchosAS/8LmFEzQSTPvJmpegHlLBZZW3qFa6U2z5r2yxl5uSf1g2BYelHryXPsyxpd4stVZeHxSa/UD/uPK7XD1cXn/Y6wvHej/KVI+uawRLLJo2Axd4encT/gUHqG0+kbGSibJR9/brboP4fKdnuFT9KSzCyjwZImXZyrbZ5z4asYTm1wGM5zQS5I+96T8rxSfj41iuvZfJQCSR+Inhyl67r3NMlDW9zT1AT78heSC3EtDSoo2Js87IlvdsV3o+8XjNemfKO252XvL8Qr/9SLjF//M77leKbVRlq88PlN3se3DZX+xUpyS+9tctm9ymf/JZT6XRcvbsjRsqLgdej5dzYf8mMrERJiqPOtMniRlGFE8Pp9wJmIryVl4H2b7OAXZ35NCkm9OSbnAeh/bSjHs5z/o+0ETGKB4FiffgoL1b9Ma6D6Z7V2pEFhDCa7YkVN5mSEnHpE1s9MG1XNFUzi0aIdu7VHVl4tTQbLPR5VvD+bCXst/Wj2T4srYl3zrH6pqWsldEb/3d8P+wON93oQLlNJbZ8UzqWQ4R3lf96l4eNEmF/bSTb3NLprEVdzvTDyq72Xbhm13to9Q/GkfxFO2F0ly3GQTD8rsxXMpnZmjtTu+OHgcfT9oEpLYOKozQJZ2+iCld5jwQ5T88lOtFVgS2N6nctt7Wh2QlQ7YkL2LrP0Sd8UPVQ9lV2SsT4N2UfkPf8v73Vd0e91HZzEQnI/5bGv9R0sB/GrsIHARlixS7i9af7ecVZfwR7KzpqRWB/rGXjZoB+9KKuC9BQJrNA84u8TdTPdjOyDmBwDxYslMvxcSLMd2FLj670lhS5LYqykx7EceauYRAM27N+wTcR+SCWCnlAos7R7+vGZ/aUW8hLY85bu5AzuJ0pPLp7rIsPYOtv0CcVWzMFnykz97lbWUvWSflub7pnBZIIKlHH5JPJaCr8aUWfQaf2JvFqYXZqjEPdwuT+T22ZVU208Rg+6JVSaYbMwm8WevxLTvd1LyyUAlvumTKW1H28b0lCxDoG8QAM3h3zHtR5b5WimF5ZOhwd2b/aWhHqyuhPSPp7x9tPa2y4L3yvrmKhYKh5NWtT1JspKSjnT8iHxH/Pl7iczTLDwyFfDORXlI69xyna5SNccoDbK4nG4UeZrUF7KgKHPam6Jt7z6+9S/roBurtO1vs/2O7Qy2HSPuL+9uZv9I+LgPZjsvZSJELo644krFo4A0DaBZSDb3/1H0yRkyk3Aq2zUpK99R1MT8V2V0uPKKdys9wytvVaW9lhS0XowxvzHWn0Y1uOmDITQWj16eFMsJLugS4/8P8YsD2bve7H81eZaNRlrg0KpZHA+wyPqKseZXGSl0l7RPbqerSHuN+xpIOTLcJjm1boxhX81YzmYdd9NME3tQMEQaXe0T3Ys+HzQRCXL/Z0z7Op7StayXxIXt24ovDhVYfsxbMHTkHaaU2iL93ht7mzW+PCEP1vbYGgyjtcEMtJF3+F5JwzDayJYC+Pl3RTWmVl3MnzrCZmS4kNvnltxOv1gK2o/9Gkg98jAhMVkPRtzPO5t0vNMpmLmUBiaynRDTvh5juxt9Pmgi4gS4M6Z9ST6+r6akXDKrUUKSxrfiy5uyVI7EIvXp8evnde7ItA8N8tH93VjzRaplqqnoC1kL0JolcVejRRb/vVt5uo9UtsQXl2PLQE0tPWFStgINB/FEtq4M7sPG2uma1CSuhs+kvuyePqpoilcOmEVPxSmaV8hG2KGIrB+xXRrRA9MMJGWDxI+J521hi+vtaxSkZ4gDiY97gQBoLnewvUnxrKMpXqz/o9anGjmUooc9NIyu0sHGuvEeZSmN1dKtrtQT1thpfKzPjKwHWlqGJcLKsqjKGxk206WZkbKJ4BBhumjJtpDlSHFzruZ1s3alKU3rciG3LA0HjrBhO1QKdpegd2LzbZEKZniUsBxZX0tsgKvnMLY/Z6D4q/Pxfif+ayAz/J3trSTuKwnwUWrOEj3VkAW4vxtjuW9AXw9agHhNH4ppX9LX/5CauCxNBXZyD4ste7IN9WB1x1gvWnk75nRurzR7r1gczfdN8XCr7KPlmXOCyCbx1hhJwUB+kIqAhYUIjR7erNvcPkpDQaVYJWVLw2hKqX2VopUzuFpfnrT+mjXFg6RcklhVvHDK18sIKWHIDnKZVcmCOisGdTIqVovrcB7/7QseeXdopVOcA81SXuf2VnbcZSwm70jwi8SVXk7OJ8ynYDbPgy2uABnPHHAeokZodszhCc7jc34L6kqyyv88xpv402zXoq8HLbnxBQvKx5XHTdL0/JiCWMlmx0i8x12XLc2NEyqwYptWrqiPO+djqEVjoLUdoqKCP3zsgF10+3LZ2ZdqLVdhOVpsB0pyooJIK4VGj9PjyVelPIsfZ9FxQFYXQ1aa9rSmdMFdO1b9LWaRJXUj9bLYDFYTsk90U88Bvbm+6/n3FVJc/BW09o7m0/h3PujBmPc92Xk8dqPlvbrPU5CoU15/sUVlj7p2+bMtOOYzKRje/HUTv1MSt15F8S5ALfsbJABag+TIk/QtceXG+woFs2GPaWIZZKj+ampyUtFK6PAX4tq8PbXS6U446duZZO1FtQzziIfKjCGYAkFlp2qlLuGPrJThi22C9rxfklI1nb+CS6w99lCZ7bfGnEwpHzbjdrtLqf3GdCU41nNPiV+gykPma7rX/kpB/EArnsDeRtGG899swTHL8gqXu86hGUOUWzgxF+dSWOLBvJAAaB2vs82OeZ9Hs51DjXvE62HXtIirwCETwsKIMaMiMnr1uAl51XU8/0+ntTX51vzNWv9kE9PKHs5bdRB3zmdTPMGCrUWpFT0vd6MxRjwqMqYe6uqtNc5I6qhoi2cpq7eWvGgpLr2ntHd8wQ7fMGgWLYwaRzWBJq7onhBrWRR1HdfZSvZhGfr6fRPLfQBFU78Ptaq1UhBzIZ4laa9zE/oeyYB/hhOicSLn+0n08aDFSDs8kG3VGPd5pLsuRWzdl8AxyxC9DEVKrHdqRst0tU4w6sYcy7e8TVOsHuYV/KFvLKKF84ZpOI5A5D4WlKeRVrPaQlyNaCfM97l2fsXnNVK5pI6LvC2yC2mxP3AcN5On0i0w6d387zExXQ+yEHK98Q3iPfwt2x/ZPkbJL/UgN8HPR/i8JCt8s8VnbX8KZjBJJxFnzj1ZBkeu7UsTEFevuH0D0GokTchFCex3qruPScxkXJ557fZ7u3u4SlUoUqjA6o649aq+d+V07rBUB7Yb80Mic1c1QVkHvZ72Lur2uo+njMZc1SA2DuzRvZezSFo3+q5K23Nk7PfSXWjJ8J47jNvzxlGvCebTDR5EtxNncnO6iYK0BEnMyJ3M9kuK5sqXp9NnU3DiZChWvIUy1PqZCE/jImjF4yi5dCQZ60GUzBCk1PtDBEAabnpEP3NCK27WYDuVggXoWR80PMS+CgUL1l/vHqY+nMaKTCrIXWmVO4o70DVS24Ks/Sf/c4Z2Gbsrea/K3pZaxJXS3sVK631su4qrcrvQ3icsqWuM8WXo6ukoAkvi2RbYt2b1mnGfzOv8XmmtOz7Wd+RU/mvGFr9K0dTz5pEPJUhLICZr1d3hbi79RJFXZxfRNoPt3RH3I9mgF6To9MlMTQkcl6V77nTHJ9PRn6l2PbNt6m7asnCz5NGZmOAxyrI4P0a/DlKETLb5vntISQJJRvwLCmb/3uYEl1wHMoP61QrvzzsxtoW7j27D9oG0V2Iu/IVGM91zN6nUFBYbn09xuReTsd+SZE5d1FVx3UURADJsKIHbYwwdjmdx9Sut9Wc65crjc7u5Vupa3y+IR+aJGltF6N95+ya/ur17KkklfH73VzZ3lbJ2ToTwpDiHlbZy9mUKPEZ/cUJLPLIym05mohWqCELxiomnSoJCZUhte4o+nCaBmzem9BRu7UyemF6iYA3Dp9xPz9WTlF88Xyu7ttiM9UMl+PMbhIWdQfqQNVll+ac9E/wOWVZrmvtdHsxedz9Hx/pKKhuZMLZ6CuqlZu9TrJncpavs1j2Kn/Yli+uEtLYaY8xsY/3+sL6n7Lka4q2auOLy9nHHe6HqIHG1pI6U2kzr3GXcPXyM6+Gtcr1VahMyg65nSaqnCq8besLa4hnK836Y4iKvwOf5+KItzBkyixuK1+uj8S9RvFP6hXEULK4sdqj7m8TzSAZlSfPwtBMV5az8cnNYm20Dti3d5+P0xPwtAw+VaznbLAXHI+klbkFfDlKI3C8kKF282s1Y/mpCmnXDCGqOMQ0VWDUOjY16FDP8CNhzIPe+H01rHBJ36K9wJ3mWLa1xEy4Uq3munNfF08q7gDvdz3Xq1edp74MsGi5fbAY/yzU1WMlLFeQGC7ZqQ4A+mYs9q/dl4bZ5agus1MeMpf25bczWjYXh/CsBgVWJ1Vv0pPcD55FJErkxyTJW49vgEpJ8Z6ejHwcpRobSj6BgdYG+NijPaxRMQIuyGHXNE7NCe4l8A1s39ayWU95xqe0fxTNlipcP2oFHhqjyNsxWzudUUVTw1qN6qVv1fFN5er/OfryxIrJ26/Mm/LCXxuW7qYtGm3iuZLg5yB8Wvlnrv2aNL7lShlPt/uD2ze181UauD4o/v0yamMN2cxO+Rzxy32qD+nqUTdY8nYc+HKQcifM8ug3KIbN/r6LoM7F15Dc2JLBU96Fa6U1T672y9JKy6vvVk0FWHRJkqVASWHt2ed0zcN2VHTv2q6TsQeWk98uaHeF6KJbi2ipvBRq0g7/2rX9fetfts5J89L3czg9pUGDJVOLr2rAJiMv8m0RVnkziQ26OP6UgcWFWeZmCFBLP4u4BMsIFlG1vq0xykTxZq1D0DNfP1fxAHv5C7R60UieqaCPyvCPSXMNFKpxnlH2jW1VOwSEd+5BdHCxkHBJPZIjWZzEx08abXyfzGouVx4+Vr+/hGronvGf0xhp6HfJN8aycl/tNqgvL7dzz6Ro+4MfqFIOL3EUuweU7ttH5lziiu5v0XeWnz+9Q4Oo/MGN1JfFxn3U3/NZes5StFchByxGnggTTZs2bNZeC5MDiLY5jotH/IgusoTpmfedUnjyVO5aCZT5S+9Q47C++dqxZgarKfadHdU/wdP4sq9Ta1ObpGOq+Wyu1Qs7Lzyyawu7WmjfD6jYYLixWrGMncK/NU/cTKgjCTqmapLVZZX2dy3F40dY+otkd5NYTr8VuTmjJUNfEjJ96cbm3YnKCzFiUITZ5Gjo4I3X1grvR/zkmgRQFqbdCO9x6KPnku9Sk72hGXUVBbnZfdwLj5IzUiayMICtTyGz3jSnI9RcFmdBV84xfXU1g1bIN8uYruz1pdUB6W5WigilcXaTio2Ovk0dh3hWJMds7r/KfgrgKrejtuA4Pq/YWGSoLorNCt2HfL56R+rJqdSC3+22l/dd6rYxAUihIQLgkD/1Dhs+4rPl1CFVZPilh5IYvucl+lYG6Eo+VeC3nxLAvmeL9WgwdxYtpuJJiEIpj1UVUIWCp9bFycYiZOAS11IXkx5pWjyenhdcc99dLZjZvEoMTSNram5Ebt1fjxh1mtyZ9EgV5dVIJt4i3jPV/zcdp5ZgbWag3R7m1rVKnWYir6g3Kyx2TU/mNcxS+icjyVC7USBLP2dLTfprp4XZxIpelq9ZrpQJ/p2CtQXk4eTRjp1oWOv6C8yS1kgEnsk5OcV1dzLY7xZcZWxaFjhq/tTAGkRYVcWW/GnEfMuT68hjvibocl9z0/9viuno+BnH1fIzHIxN2dqFk1hWMg+vcNffwiL99IAZBP7eeB5PQL+uqcetVvfvktLddupfE8f+Rs95f+6iPekO2SjPgAgu8Lb163LeUVm8jMIYTi1bjlnCi1YrCjDxNSntVTD9rlPl9uksqS+h4U7j9f7bWa6WKF0ZuVpIE85gMCC3p3CX+aX/nBUkD4hGcQcEaimkS5s86EfqFGkRAPSx24jzq032rZ+xKp39HxH3cVMN7/kTR0oc8mQKB9X8RrzcZIvt3Ah6iHdjOdddgGpAHLlnr8NOjrjkJxdg1hv0/V09ZQwVWboyt9EyuvFW5Q5RYklQHfFuJE1HaWqWokpXSBBBR2Cw4pfSHWFylOTN9ukSWp/e1irZno4om7+FflAk1n3x1A79xIOVF7ZL2z9fBKp5bcqnaNgZy8zybgiUgJM7hLyks7xz3VPh9Sj7fVSOIV20ntitSIBwuccdycULfMZsaH+KTyRZpmYX52wherEGqLfXJ4xQthYgs6TLU4nqSJL53Rvj8DTGL/DIydHqUEzT9Kbg/yZJfp9HyYQvvp2D5q6jUJbRDBZY/xhZENnmHKaW2SLmn4c1FZsFVA3YhjbZFdgEN2kUlgVXl85JQ9Etc3qwHIzfTiyUCSqbth8YNWMXS1RarWT+/47HUl1Wprfg6+CK5tRWrXzM1IQGUZ7F9koL4gStScHOXm8ohTlzNSfkpEQ/gAe6G/0CTv1tOssTUSWzdNKpxGakGkXxgMxv87I8oPQtLP+YeLBpBROK9NbxPhkNPp8biqGRCwkUpqSuZFPNKg9fE2Qkf203u/rBfC647edA43H1/mJA+JobvkQf+ujzHOnxP4dsi3nxt1leePjLtHaC1dH2X7pnfpbtpeeuhLtVdfVah0ltqrfdAYHudwkOrKVxlOynJ4BFm3Py4fsNskM/dnzNRVk8fxdfDenJdVLtu6kQCKX/vblgbsn2NgmGCZ5pULBF6sq6hpF6RJXUkkHx+RpqfPDFd7Z5a5fjvdl6bpHjWCeGPOFF8e5PKKZNBzqvzMxc7gZUmZMLHzxoox4lUuydV2rJ4hhfX8R2y8sJBKWr3Ioq/WqdQlLX9vtSgMKuXt9x1IGukfsaJrtcSvMbl/EynYCmfC6qcJxFeO8fwnc/XK7By4V6IsWZ0Kmncq6Xbk6Jo0AzcIB6qSqWxJYXZRTmdqyafZGhwBUimeuuexrFMOoCMDY1/KA3B2io1b/0rSOe+QtEDE5NmdS7xd7i9fSGhJKnSgf/EmaSvkGBNWUdvC3dziWtZnJfdTUtuIhIb89eMN0OJMfo5BUM8coOVoNypFM8ahC85ISVDudLGH29RGb/ujkVW0FhxDMEugky8o0MpPFdHug7sW2Pcb+VJRTx336P6Z8X9ynX4MsT9njHe+zsKFuF+OmX19DsnmqT8247xXnkgO4Gal6OuTMEd5+/cQ84OTnRtH/FeJf2IeCxlVmA/BQvLj9WWRaN8l6ItjVPmb/VeO6Ff2l1lUqBW3o4sSvZKu1eHO+/Xubt7MOjE1ajO3UoMGYurfGgp+D2rsEiYBrnUoMhS6pNFKm5syTwcVsNlL1YI/zbGPqW12iDdJbWU17m9lR13abCIeKI84exyChZGXc2ZeJnWoSDPi0zGWJett8p+XnAds+xLhgDvpyCA88U6n/KzgFzitzqTG/w7nEgVk0WyZSFbiSP1Qj475Dp/6Wzvczf3Z9z/W30TlM5Mhr+uoWBYUgJ5R05Fl+MUb57kK0vzkLvvyiGxQrK+q8TSrDHi9addGW+i2oYFwxCv8D8p8DTKDF5Z+7RrhLdHxMhsJ06KKa0raX8SQvBR5wDYbkQHV3CCX2bRyXDZghYf6z+d5dz9aU1X55IyYUN3n1qhisdorjv38iDzqLs/1eMV+6a7N8bB5fV+IFRgeWHhM4p6lfZkPDP1i61yx97fRd1zu6o4FSRze5h3K09dn9Pam4jUDA27sSZqrT9hrXo4XITpksgK7zzsbZTipKMjWIHbytHK8A3aNm1GzQJnT9LSXC9LnoOoemJBQ5057v2KM1lx4Pwlt7ugM1+1Qp0UnQBNe31J53M827dpWY+vn7Hz85DzOJyYYDnEU3uBs5HXSZauiXlONI9eW89S/BNQVqIgSedKI75bztObdeyj6O5TYnNqvE9FPR8SNzo9pjqQB5W6Z+6GCiwd2umpT3On+IlMPLYa+4C1JtSNLMkffeuHiDNLXV5+L6ikqBpL81O1P7PyDVIW3x6usri2eBlzt/XSuCOyIHK10rva0lOxvTwFh2PQ+urynrxAlPrca7U9V2ZPVLWyHKZN2m8yt+9AoIg3UYb6ukaIJREbV7L9kqKlaEiq/mV1h59SfOElv6EGvIGhAmvhqPyB0sH16nET8ip/EqU/JkZYrLS+N9w7oihnbWgFsMDcVKvcpvBeRbxCtdrEFEsu2n9UuodK2tEi3x8q1XMQo0WPWWvn8emalIHietzmZhRs4fpBs2jh6HisCYSJqACATLAy2ywKlvWqpBu2dSZB97IWqaTbSMNkADk28eSKFzSu9FGvOYFV/0N3+OPD8hvzbaXU+hlpIC9ZYx5ko9FGxtKwWUzcCdJiM7CcDZqF5NviTprUarjOIsNa1dt3yRKPo0zSNfSqPupT45ezcWoC9ag+iQu6LyuF5etDhjOPD7l+AAAg7Ujs5uwQcTWajdgupCBGSlIlbNLC45bJK5IL7xSKNzfn1Y32QTUHuSulN8np3CGZ6SisfYn77mfD5KPEmI0LDyPLecr7EDrFuESH3cY3vqKQ8XRbPQ/ZW9rm/qtVbmoWwiNsKcN77pBe2zfbWvMIzj4AIGPsS0Eut3qQJJ4yY1f6XJldKxNKJCdcM1Z7kEB5ibeSFRPiXm1F0rs0mm+u5iB37ancNxXpVbMSA2gtPUhah/bcnq26duYaStH7cJ3FJbD0Wp7XJUGSoYLDhIbKKTmXT2YpHpuvk9VzKv8NY4ty0SMWCgCQFcTzc1SEz69NwWxWSfYrs5T7KZi5KbMzJTg+rmFEGV2SGcCSp0xmVK6SUH2IaGx4+bLaBJZSOyitP5OlTs4qquo9UNZUUwRrkFIb4FqLS3CoVYu2uIVPxUfC3tGtqq4V/hg3vSF5W0ZaH2t7/Vllc5eyOrwDLQAAkBEkBCiOYT4REJKSYX9nkupEMrxLig2ZVS4zeSXlwv8oSGr8FlHohH7xSq3kforJuq1T2NZLuC4khc0Po+wgVGAZvaSsWgdJRXsz1EiM8u3jY3WCVdhM8nPjWotLYFGOxdXGw2YwJIEtKyfdVW0Xr7LglVkX3Rkqdh8f80lGlZ7gbPmOAwAAKUYmEyXhdZd79/udlZFZefOcLaoisFZxx7VKE+tBcgFKEt9Imehz1XpFx/5Kqe0z1kiKfF7mhpctWOS5msBSuNBiQ+KSuqlrgy6V12EXrzV+tdUDniSl/8fnbeVMCcvSckFWlrqZjVYAAMgABSJqVvc3wdlaKawHWbvxhqg7GSvdwkRN+msZbCSGO7fH2aiiibiyOsz4H/1OXGdxqw21Dlf+iiRZ2ytYkB0vdJtnmxMsGTvu+sFSSwCALCBZ04c7vA5kiZ9T47n/h0oUQ8rYXbIY7G0NPW6VNlY67oomIovCzFNk18Z1FrvCWptrfZKiypvWOdJeqBVYFA9mstSKtuTr6ONyPQEAQMqReKg5HVx+KbukmxhIVGApqzzu1CRjexZDRwaWpB6qYCooYJhppdVkXGexM16WWQrLhxUoYxVq1tinMlpuvo5oF2WVRhMAAGSAH1H9C2m3i7jaz4nMWAi96fvKX0spvX1GK+plCo1it+T7RTLhtgohHjl2WGRMZJtUxXM41h4WZbfs3vZyPaEVxBLbAaEKQPJCQwK8ix1UZln2RxbOjnW5rCqr7A6vryRuJpPYF0oDhRVdWMFdXodv0hHmcI3FjzF+uLA1ftuWm6+jdQs0tB5aQCxrpr2GagQgcc6jYKjshTYvp9yTJPO75NN6Me6dhwqsXup7X4YzmeeqP0arpJ+yQUXda9e3lltVY/ZkZost63jSOCSuJfoPRZ8CPhfVCEBT+BXbB9i+x/bfNiyf5OOShaxlfeWhJL4g3N2u1RadKgNwXSWDIj0u3HNYdeKB2KJMF16rLdECSufwsYj7eBDVCEDTEA+W5MH8CNtX2P7cBmWSvFsyS3AntusTve2Hywz1DrSt1mKMqRYrJkvI1BK8hOlrqZDtuJ4YSRZ7XcSHn+tQjQC0RGj9jIIFoD9KwaLKb2SsDG+yncsmD7vfpSBWO1GqDaWthDbV8l5Z4sFUML2x3MO4WDIbeHxKKSes63sqi62+NBUowmezPnSL6yk4/zLsIIuyrtbA5y+kYLkNAEBrkHyEtzmbzLYHBZ4gGfF6e0qP+R53vBewNXU2eqjAUpo6Ndlmajpypb1Nhs3QiobMGxI3JuJKBtO6VFeQvqAktKi0mFFJellDo+PmtM5tnZ7e1TwXHtcnQrFq1a+VZYXVwdfTaGQJqxPcza6eUyoxICdTPIHyAIDozGWb6Wxztq3YtmXbgYJFn1uJ3C9ud3YntWhyTDUPVpZvZLpqN1991GyRR568oeWpGrj32apoC+9i+0tZYOV5U7qrokwRgRWUrfyqerunch9JzUnR3v9sNd9GdVambANhsJSLKFjb9DSS/GhjczfbwZTALB8AQCzc5+yXbKtSsPzNB9mmsr2XbSIFK1rEvaaxBKcvdAJKvNt3URAn9iylYAizTdMRqE2cQPIryZZSykcbKrKepPQEuneNU+OOKtihvwzSYhrHW051lYRUpeFArXIlZcnvLwmtbt13LP93xZSUpcDH7FdzWdjqtY5YsvbiPHdD/JZ76q0ktB5lu4rtx2zzUWUApB65i7/q7N9sP3V/f7sTWpL6aU22t1EQNiFrEebd/8OHN4L4qfmuT3+J7XX3wCVDfo+5e0XqqCaw2jbZpi6vgVcZiR6XhYXflgqpqPVeZPWhfEwX1dPGuaXurLU6NC2pNlg8zSdbvZMcI14/64k6kbx2eSSh4V/Z3s+2Gds73E12obtx/ouCtdEAANnmRarsge52Amu1MQSW9B0LKEh+mpmH7VCBJev5sQZ5dxbPZCnexYZ5sJZ0+GHwZ9Qz3NmnQmCxQPLyXtfMol9YaK39TS2f0JTbKed5F/FnJ6Tnuca+xnW+qGpJw72KEo+2ispwnDsX7YnzPtWP2+zyFJzI+iuqAoCOY4iWDvO1HdU8WG9kuFwr+H5hHIWsCq60ZF2q4sEqDV2oD6aoPON6vHG/JmPewyLrlxQ+E2J1UurTns6drpSakKozouhZZcPblLV+NV/bOJZW4zJ+rb2CeykAAHQO4QJLyXIzmfUYeIrUZArGbSt05pas8qtoAfWoStmITulMaP1tViH789Ffwz/vp2CmhChFGT7bWGn1SX5j6hJaiuepaAtPsg2EeaG6VHe11rZ66gRj3djncLsBAAAILCJj72GZsm9mBZb23sU/762sHW0piWfokK8qiZd0omhtRXp6oEbU68qWkqBPqhZU1nJpwVa0/hNDNByyTJGivOqptoO1uZwrZjoTlrXIQA4AABBYRIM0cO84mkAZXY9QUiq9K/xVlii26gTKZ7nYL1FK4rCqsEo2RIdd0KW7H8hTFS+VqdLOlFqXPzgxqxeZiMoBWnQPbjcAAACBRXnqetJa+wz3DetksWDa0ntt1Xn/VYXj86S05PR4G5pIDPKK7IvGFu+hUi6vkHdYP/TTmvIbBBNNsrlMJLfDp1lcPoWWAAAAnUPosJJnveesNXdmtmSK1uOebWJpumD9NmiNuRvNIyaBYeyjXJ9vWuNTJdNGsdLvqmgedeU85W2Q5TW4WTzeKdcTWgIAAHQO4WkaVGla1x8V0ecpizl8lFrDai3Lk/wr/C3VxtcUf87K9NFuNJOoCoN+76l8qBIOss+bCh8rDa+twedpswyHX/ms2W/i6wmJUgEAAAKLSuvbcQd3E3cO97IO2SqDZVuZO+X3WbKhAmuxXRwaE8Rl/0sXdT+aU957bYa9Jy3XVpbmWetfH/a6IZ8kS30lD5UJlgZaZ7xaYQOb2eFB+rfV6ubsr1UNAAAgHoEVMN+QOc8jfUkGy8Y9mtnMmnDHgYyPDvGmKgosOy+n8zdbFlhoJlEEhr1dKS90oU1tFfVVSXGllNpKkq1mtfxy/VCwAj0AAAAIrGUcCrO5kzxEabV99iSW3tIquxJ30G9UFlg5Gmdl/T5NFWN8jJpNyh5bLSspGENg2OKvwjO0W7d+Yq6aTN4ps+LSWFkK5nK0AgAA6DxChYM2tmyGrD2F/7Q4c4VT+n1DdvEGA3YBDdpFy5n8vaCKsgxLaUh0eVP/YXF2E5pJowqD7tVW/U1T5a2UzFWSvtpimEn81ZSMln6QC3AyXz+2fC0BAADoHEJdB/7IZfysukMbmq21PjRb/bvt7vZ6puZt1z8qvS75iaSci+zCsM9zBXnn96i+3dBU6q178eCYXyvSb1SLPrKqqvDYVilaIYvlN8Zcaqw/hxC/BwAAEFihAkv6C2vOylPXbjKrK1sF9PZeYAbOCFveeazgad/SXUaZfq30VDSXuhTWU1bTr6vWru9X1R9ae5/NZtHti0VbmCnrBaAhAAAABNYyDJUWuB7RaVj7iDL6grzuOjFTT+VKbc3H/G7+7T8VX2Yr2GEK4oRUJaH5VsEM/7LH692GO84uNJnaYEE+i6vz+XAVoqqv7mNpA6X0h7NXckVFU/jFoB34r6ph5uCRN1bU7ZPZprqfZeay9bufAJQ4d7d+VAIAWRNYIZ3Dmdzx7c0vbZqlQnZT96EsoI4KK6dnNQ3yFvY6C7Df5kz+iJzObYOUDWNjjX2Cq+2cau/RpTFEXU1/fYTtbZlLbmBJ1hw8S5EiVX9qhklsM9kOqvIemdE7A0ILAAAyKrDG87a8W4IWWOX/QHmltA3ZmVmnaBdj/FMNmddUyBuCvrGyeOLPDbF9m1+9jYI1W0CVylbWnuKZ8NQE1m1V6NNK703ZSx7lW+OfnrN64QSaUO9nN6fAQzXWmosivvagwMN1H9pbZxPiAe00JrnrYfMRf7vPXU/z4v4yeA1BZIFlKDR85Bpl6XPcAe6alULysa43pPzdh+zgRZUyLtjSeneauqkrtNvnMs+xxlyktDoCzSZUWlHBFm70qXBttfd4vFVpX5IVYwutvcylBTHW/MGSf22DHcSsGsRVmYmu85AOZS5aHuhgYVXN4zvfXVczkhBaADQssEYFuY9UIwPa0Fna0zJ9fnwWCskCSnfp7n1zNncld98LKr1DOn5tNYXlbJKFo431T/dUbiq/9V1oOhWl0ZtFUzh1yC5eGDY8VqrnMZyfvd64w/hH1uLd3jLGP5vbyGADn53Otlmdn5noOo5paHegA6nF4yuvSWjIHs7g8QVNJbSnG6qyDdhFtxdM8ZosjeBopXfUKreVVh55ktxyhMk6eYp/Wi2B12rJENbIzSELYH+3pD/BcrC4OoXr6u5y/FGlTTAhWyDq1Xp8rj6fMWFJfD1czddFf7XrpgqNiqSD3FM8AJ3EZKptOL3MOrTU4wtA6wWWHWPjd0jy0VczVt5jpBtfbAdpeIQNLfl9iIZ5C5eNMvHev5ptJprOqJox5tpFZsG5RVsIDe4ea4KAvN6te77On8/a0jiv8NGfOvY1E/okvk6E794DrQ90GLPqEFdl5P24b4OmEjpE2MdbVWVm9JPWmnOVp07NjJpUelffFKcMm8E5YavfBF1hl8w8DBUFltR3raWtlKIpaEKlCvk3GftlFkYmrE5zbgsXGlyrytvU096nszZT0/rmHM/qp8ZVWVOxClNjeJoHoFOQB5JG77tT3PXWj2oETdEcYS94Y2xBt+lfYK29JyuFDTIv6dNylO+uVjYpmQxZFXmrPJhVHCzawqHGmqfQhOjNgi18tUj+y+H1rsZsT7zpnMofxe9dLVPiytp/8XVwoVwPY18zFYk6xDcVTRB0EFE9ttNQhaBZhHqwRFzU4Ll4zTN0jvJyF1EG0heIcPK0t1Wv7d3Ht/6l1QKxh91W8T2mtK8nuqn7Mz1e3838llU7sfEoqxYOmEVfKtjhv5frrWKd89ZVmqFpQ9+jlN5Ga/25jFXBsDX+OdyWXo/4RA4AaM4DxWRUIWi5wBJxUaNqubLb9B2U07kdM5LhvUtp7xva0K2L7eDL1cTYWLPd+D33+H7hQO3lrlJKTeiolmNpYNBfdEiBhq5SVepJBJX4/CSRa9jQX5fuUXmV+w7/mqE6lIztxTlDdvCqiDtCkDoAzbte8EADmkZoz+jXuBWoIEk4TyaqPk0qVV2jUpuyePqqT8VSGSoNAtYRB3SzMf4+ZO38Tmk0LJoGBs3AwSzCq4qrkVQabnXtR14+hE/KxzJWDYu5DKfw8Q/Xeq0AACKzWcTPT0QVgpYLrO4at17ePKvuJGMvy1bJ9df56LfNhTvxasfaP/q+vx9rsmfbXlxZtWjAXzStYEVc1Z6mo9J7Zeiwl/o28JQ3I3NL4hh7Kbf7u6T913qtAAAAgMCqudOQTVvFGsM/01KVxX3TJhQU9fR4vWdwJ79CtazitQsI+4fF/sCnjDGPtbG8emHQLNpv2A79VkXIgVaeRCD76NG9J2ml35GlmYN8pM9ye/+xtPt6rhMAAAAQWKUhnVq30gCI9R+1vn9+lgrP/eMHlfZOyKn8mPFWNTk1yNzPP3ZksXBjuzUUa+jf1tg9uYzXq4gJZnPksXGdK+9Aq+3+masLbufc3h+Tdl/PdQIAAAACqxQbU+82ZIcuMtY8lJ0M75a6dPeX+/T4Xcuz3GLgBWPtZ7geTuPdDbZDI/H94q/ImF34vP4z6rkVISvDauP0+M17vL6zs1UTStYbfIDb+S8buT4AAAB0DrlqAqteDJlXPZs/o0t5szLkjxjPkuFcllYPs8B6uto7JWZIvDdjeSP4PYuNKZ4wbIf+IsOQ/IdNMto+XrPGfsNac6klbVRVqRokExUBFZreYkk7sRM9Refzp1bKWoUUrX/GEC1+LQ6PJwAAgPZFhyuv+re8DPsQXUrW3potx4RaT+vcxVyC8VIOTy1rOTeoJfTwVqu3y5B/k/XtDtaYM/m/C1R21m4ctoYuNsXih7hyWCyrqkFqQa6rHHXrviX/r7J5SumZXBUfzNzVYu0t3L5nSztv5PoAAADQOTS8VE64qrDWKnO68jR3zlnJa2Qpp70pnppwLllzhFXLppxQNlgAetAsLL23R/fy37R0uGMpN/nnVWXpON/4t1gyh+V012fSmi9MBKBvi7cVrf8zFpvXjaUHy7nCZOvWPc5rZalLdUt81TIilOuALP/jWe+b2vOmZfBaeYuF8uk5Pu+5xpbEAQAAAIFF0YJyLc3RJneF1vrwLFWGUvZg1odPsBY4rZKYCH4GiBfLV34gosYSWkqSbfp/KpriHdrqX5HW39BKbVet/puMJP76+2IzeAaLpD8VyV+YV11jysBSPJXqo4IdXqZ+5LMycWDk7EwV1MOhSqsZlLG1BksVZMxsY4t34pYBAAAgksCKmBjRslA5J09du3OHvUaWKoRF4fd9a97iX39SXUMGIkGrHBlbqEkycF34/LmbfVu41Rj/Az2692ir6EOa1JrNTlMg3iZr7ev8rXcXzPD5lox42IrKxZmNpaBlD716XCkubdgOLVc35W0Eu3M5z+ZX81m7SLgcLxRt4TyuH9sG1/zUUT9HM9fZfWzz2uQ+N1aZR5a7bO0K6gKAVgusoYiJ2bnzfkQZfUFed52YNY+Fp/RZpjTWST+tqazB0Fc9sxDFtfM3Mf6STQtU3IlFzXaeyu3I0malhMVW0ZC9g0XeX3MmdzP//+8jZVcNYoMke3sP9ZY8WDUe61QWriJYx2fvEpElcQoXDNqB/2Yohm4ksjTINNeh1psF+xm2frbrnGUBWUplD1desXUa2Md8JzDLZb8vo/d31AUAaRRYMXUmZ3L/uzfvatOM1UuexcNZwZI5Y4mswJtDmkWH6Q08Q3V13+qhgik8pJX3U/7ghr4tbpVX3XwztNsrrdYiipShUg6lyP++yHLxbj6yO5TWdxtrHh82QwvzKi9CuK7ddeluKvjD5JXW9ra1iLIdWbBeyT9XyeQVYulB/vcsRYoyJrCmOZsSYR/SIR/kTDraWWwzU+rViKO8ZSa6/Yid5ITmdSkuezvXxSQnDuNcQ3BGhb/NcyISAhIkL7DGx+FsMLTAKl8C3i8lyty89i6t9E98W8pO8JNaPsDvd866+jxQrvOW4cNHWPw8wn+6jHfWRcasYSx9gN+xgVJqMu9+XX5tHKuiSa4+7ZJdyPQCRfN5PwVrLN/41BMsEB/Ulh5nUfUYv3M4ioAuvdsaUkqP0G5j8imt1AWZFVdEfPp9CWxfOCE761Bv7jq/KTHvVzrao5yd4zqpVg8hynUw3VmSa8ytM6Lsl7iyp01otVtdTHbtePcE9n1SldeecXWYFY8tyKLAimP5GMe1ytIfWXzsmsUKKg0XWiu96w+JaqsUmXWoSUVNXCqC6FlnSx0q1kom8RVZIOVGCiyJn7Javenp+OPmS8LRzRCs3fFDX+S6O48ou2vEsNi9yZJ/bYYOeabr+JLmqBFeklZ1RNNd597sxXvLHr1L3DGkIU6t3epiqmtXrViYWQTkta5M0yARQKS+M/TRPa7N+gPG+GfxLhdmtI7yWqvTlCp1XjXPzy/FKaleSij+7E2219hed/aa+1tM2KU/rG1kaOx7nlI/ybK4Yt7idns2t9/BuK6FBJGn/fuaJK7KTHQd0cwmnxcpaz/b2S3qgEeKC/Hc7NHCY2jHupjcQnE1ukx7EAARSCzIfZTX5fZeM/6avM4fmMUp+iUlqvTXenXfRtbYw6lGl3gp27f4llSQB0rX6QVqNkEAu2IpUKAiW07l6v38Kt2658daewdayvKEO0UFU7h60C66IwNxV2Vx1aoOSUTdpCY97UuHNysFne9okdkKb1a71sWMFJVpJmGoEETRDdU62zg33uMp/M+rma4s7X3U87w/sAz5WL3SpZwRPpXrNKryUjf5UtqFnOqqIYnqsuVjttFa3yDiqg2ui1e4TKfGfw0kwjopedqflfB3THMd+MQUthcpf78Tms2gnesiTV4jubY2JwAaJP5M7mHixOgnrTXnKk+dmukaU2oTpeh31i8F+n6PqHZXn3SxEs9knTerNINPtUpwLU0MKikmtNUk8VvW1jeUJXn786r7MP7saZJioh0uCuubczyrnxqHjO31dqzznPcibma5/aeZzZywmErJerLavS7SJhon4dIGDeuesBe8mLfAR+JfwB3yPW1Qb+O1552glXcLC5S619RbZsq/8UtiyyX+XHZ5mQS9XZqWxsiXj6deLwsf7gZKq9/lvPzP+fPtIa6s/Te30wtLXsfYr4G256gEPBDTMiAoRguLpDpl1AUA7SCwijFvLuD9NWt88fwU2qLytJ6ilbpZkf6ubfBGIqImr3tKy0krK793lV+ggi242ZwNCq3S0J8JhvtkFzIb0BjSRpXWU6wvB9Yyx9yllPoai6vb+edebXQ9DEv75Hb6urTXuK+BDkE8LJNj2peItYszVv7NKJnh0k6pi/kpK8M8AiBugTWc0DZoB68sGv/PlM2s2JVEzETP805hodHPyuNz1FC+r8BzJcOHpeSfoq5Y/IjAspoFkQglVVp/qCS8luaiGnkYwaLL8h6ryidXSaoBNxS5rE5rNCZIkdqJxVm/8tS5XOa12udSkIzt/hxpn0m1/Q5BhnjimFk4mZKP60oKyd00I8b9dVJdpCmoXHJiIfEoiF9g+QltBSoMGTInE7VXj6MUbaZy+tfcT/+B//tR1i8NpSgYPURYeZgw7G+JitbNefeXeErf6mnvQ214LSzmdnkKt8/hpNp+ByGd6tSI+5hF6QzirpWTKL4A6U6qCxFjafFiTScAIhAa5N6dYAojz6o7ydjLWN4d0m4VqrT6OP/4OBm63tqSS//6jBdpOy7T/lyyfVlFTmjbK8HYS7ld3tVLve18vc+hZRdxnuo6viQ67xkRRNY0ij8TfbU6mEyNrdNXizCKKrI6rS7mujK3WlQeTEjRALIosIJgbv9MllofU0RrtmXNarW7siy0SP3VkhGhdRVRjMnFkqXLikjU6nA+Px8iRSu280XAZX2OrP9jbVWi7b5FPOPEznUUHk+yh3taj7Mjn+I67P46PzeJ4h1eKwuJsXIaTXZ1MC3Gjn2zEWKhETq1Lq5zbSeJJZ+qMd999wzKxpqTIKsCK/GgXEv/1T6drzzv+21bu6rUW++gSe/AovJ7Sim5udzIhX+Yfw6k7GjFdbMRH/P23arni0qrTaltAuXGaIq+f76x/mNtWLSTa+ygr3MmnerZMX7/tAYE1vQYPSjzXflriQmb6757phMBcXXsMyIIrE6ui/toqUet/FM4KabrYvR3zSXEW4G4JUDYTLIvXvf+Znz9at1ez+1aeZtSpjN/10XBWnMbF/cvJe+W9e9SOlfkv5UWU9Y6R8bYkrIZsoOU8/KUs3mXDX7kEjZmOTVXioanICBeBf+Q7xdKSU6tdhFd/DmJlVc6mFHIu9yG//xhFn9TSKmPKNV+LpxqCpiF1QND/uKdudYST4J74R7/XO5vR944tT+Bp/T51Pg6gfK5OGerifeznplYc2MSFfNdx9xopylCIK6UCAc3KLJQF5UezeO48CNw7m79BEAthHqwCk3IpMBd/auezZ/RpbxZHVTneaX0LnyJ7yI3PmW9p/iO8aB70r+TZLhqyVBi7KJTckC8jYLcXdsqrbbmO80GLKxW6tQLoGj9M4Zo8au6kcmf6WU6NR4/IteiDE3F5cnao44OdVqMHpsogqJ8LFIPu8d0PmY18P2oCwDaUWDlKJf4l5dSExBdStbux4Jj5w6s/4ksbt7HIud9LLoOINLDXCUvc13cza89pcm7T5F6wT2BypDiW051LWZbMGpfPWwT3OvjKViYemIplYKiDfn397BtQlq/UwdCizpkBLBKA7S3cF3MzlOeVPvUxTkxdGAznTCKw7NWj8CKK0npyRTPcI8Ii7kUPQ5J4o82r/OYUBcAtKvAinupnFCMLLZiTlee/qATCJ1MF/fza2ul1pb/dFNveR27RSyU3mAR8LLUGL/nLbL6lWW0qgzFKLWae31VRXZl/v8kz8tDSlXmLWvM6TkrOe3bZkmcckB7HEiH+nRM3pNaiMtDEmcdlJf+uTim+pyOuqi7LgBoP4HV1MzTlvq1yV2htT4cp2RktbilbJQSBTCOVdLSxJ5V1jBUY7wOJPzMXGFs8c42K9YMii/ztHgrro+ho59Yo8dijxjrIE5muX1GHa7bow5RgboAoA1oeqLRkM0WbeEcFhQv45SAJgjXF7i9nVtavKmJrTxh5lP8sS1x7W9qTO9pRR3EJVRElEyOsb46pS4AyCyhHqyhJqdsstY+ooy+IK+7TuygGYWg6ciSOIULBu3AI6q9Bk6T6Eyvcx111LibWjrTzWM6XkqoHuIYGpMyzkVd1FUXAGQWHd4NNX9jzmRt9TBOC0hOyZdmbJ7VovadJEl1qP0xdaZjsVmK60CGXec0qR5QFwC0CaEerPGliWhNxtACq3wJeL+EqL3mzYNU4FvjS2D7wgntN5+iP6H9SuxU1DisSWO8PjXldVDed9RZlVNjek+n1AUA7SmwDJlWHdM1ytLntNK74vSAWPW7NTdZ8q9tw6LNSXDf0plGzZ49lkdmUgzHKTPm5iVYD3GkFZgU03s6pS4AaE+B1YSg3MpYGtCGztKeliek8ThFICbeMsY/21h/sA3LNjfBfc9rwvFvnvI6iKseNkNd1FUXALSnwBpq4brE1trbe834a/I6fyAC3kF0FBVM4epBu+gO1Z4ZwZLsULOSEDLp4+zPUHtAXQCQZoFlWyhsgu+2p/A/H2dbDacJROQVbk+nWoj1ViJDQkl6w+ahilEXAGRCYDUtk3sI2ugnrTXnKU99D6cJRBLsvjnHs/qpce2TsT2LHaoMffVXea1TmErVPUCoCwDaXWB5vLW0Uyxt/i/IensqpbbAqQINtSNr/83t6MI0tOkEyfq6bgh4Rl0A0DkCq6lL5YSrrNc8Q+coL3cR/y+P0wXqZNgaf6Zv/dfhCWg51Y4PQ1qoCwA6R2AN85YKLF3ZbfoOyuncjgh4B7UjGduLc4bs4FWoi9QTR66tLJUVdVFbXQDQngKrZWkaRmHIDOXJnMy/bsvWhVMGamQxt51TClQY1shZG4XJGTnOrAytzUNdNLUuAEifwOrmLS14Vt1Jxl7K/eShOGWgNmVuL+F2c1cv9XZCaZMMjJ6MOigxFe0hk3UBAARWNawtBbz/mKXWxxXRmjhtoGp7IXqOrH+WtipV7TijIiiOznqsTPP3pbwOhDi8QvfX8B7UBQDtLrBSEeS+bK/5X+3T+crzvo/TBqo2Fd8/31j/sQ4qcpJZsac24fjjGCpah5LNtbV5k8qJugCg3QVWgbf09ZzFi7psz76e8t6NgHewPIp86z8wbId+2YHtYw+261IqsPojvl7PsV6XUP02ox5QFwBAYLUGQ+ZVz+bPZIE1C6cOVIIF1hlDtPjVDgxsT0JgyT4nxrCfuTW8R4aMNkthHQjiDZoSw35qHf5DXQDQzgIrF/5Sy5BILO42LyVr9yNFO+P0gWUbiL2F28fsPOWpTdccHKtDjXtYaFpM++mvscONQ1QkVbdxcF8d70NdANCuAqvVS+WE9qHGWqvMacrTH+D/roBTCBxvWWNO86ymNl4SpxriaZrONiOm/UmcTRz5mOZTbR4s8bYcFEMdiCicFXPdxlGn91Pti3KjLgBoZ4GVuiD3ZVQWzdEm92ut9eE4hUAwxlxhbPHPHV4NJ7nOOQ7vQFwdc63DVP0xCoA4RYWIlHVi2E9/Qu9t97pIgqQXHgegRGigip/uzRZt4RxL9mWcQsDt4AVuD+dKu0hzq20Ssyj6NHrZR1wzE2vtTKXDuz6G71uH4vPiST3OjPG8EOoiVvHeKJ20oDZoIaEerCHeUt2pWvuIMvoXed11EmYUdjKyJE7hF4N24JEOjLuqxGZO1Ext8CldOr+DYjoWGR68rs7vjmNYMi5PnuwjjiD/+xs4FtQFABlHh3db6d+YH7O2ehinsYOx9CD/e3ZG2mszRdZ9VN90+kkxi6typzyvzvc/E9N390f0VEhdTInpWGY2WHeoi2SYhhsnaAahHqzxvKUeQwus8k9Xnr6kmlgEbYtvjX96zuqFE2gCamNZZHjoDrZLXAfZX0VYycywGRRPfM3ojrle5DgujuG7J7oyz6izU5/sxE1cQ6TPUONDYqiL5ZkTg9irNuN2qnttc/d6P8HjBuIWWIa3jHgwrlaG9tFa74bT2VkYY26y1r8WNVGVg5zNdx3Ffa7jKHciUxL63jnUWDDzrBjFngiLs12HOpOqD1eKmJjuvBsTY6yHGREFKuoifia666DsYd3clXmzKm15OoQWiE1gNTEoNyqD2tLZmvQO/Ps4nNKOYYGx/tmG/EFURc2dypQEBVWcnal07HfEeCzlco8WmWWPxWSK33sn3E/RPTaoi2WZG1MbljIeVUed9bv6gcgC0QVW2oPcR2Ktvb3XjL8yr/NfQMB7J6CoYAq/GbSL7kBgeypp1HtVRj4rs+h2j/m4mi0yp8WwD9TF8gKrVQ8o11HyC2mDNqJt4pa0oRnKqtdxSjtBXqnn+HyfjJpILdNj6pCfyXAdSPuMy9uBulhKKz1I6xAC5EGnCSzxYgzS4HODZtHROKXtz6C/6Fg+3y/Ae9XWnakMW0m80PwM1oF48GbEuD/URToEFlFySxABCKz0YqhIxhZn8z9n4rS2L8aY7/u2cJXJToxgJ5FEZzo9Y3Vwf0KdMOoiYC611ps3CZc56DiBRSVvhpJ4rJOMtRfi1LahuLL2F3x+T6Pm55VKknYJmn0mIWExi+3gDAmKqZTcMiyoi6X1AAAEVgt01oAl+zVjzUU4ve0krsyFfF6PZFk10GZFi9oB3Z+CMsx34ippYZHmIbKkxRXqIh0CC2sYgg4WWAFD1tKXrG9O5d+HcZozzTCfx+/J+WzTcxnVgzWdWuvVmE/Nmb4+y31PGoXFJU0SV6iLgLlELZvkch0B0OECSwaQfGvNd4f9oYOstU/iVGcPY+0TfP4O5PN4oqKsZL5t6IbdaEcpn+un1nk1xFMxmZo3zHmf+77rU3LupL5lYs00ar5no9PrYgY133sbVy4vAIHVDiJLUcEO/8YYs7M15gqLJFmZQM5T6XwZ81E+f1d2wGzBRm/aM0ftY2oTO51zaOlyIs2kPKNuT2ptsPP1rvytXFuv0+uime19PiFFA4DAWl5kMU9zr70fGftp3/h/xfT+9J4rOT98nvYqnS8+bx1yrmY00EHeT8vP2Csv8Jzk8InMFJRVE1o9o62c9PHoJouLcvlF2MxNSfvp1LqY59p70l68ZwhZ3AEEVnUs2WuGzOLtC6awv2/93/GfCmgCqWBYzgefl/34/GzH56nT4hzqzXNUDiIO25cIr3UpiIeJuzOV7+1PUd3NdOLi4AQ7Wulgz3F1mrbyd3pdlK+dgxMQl/Pdw8rmEFegEXKdVmCllF+0hcsVeVcqq95jyWynKbeX0rQ1v9zdaaKzRUg81ZA1dLeh4jWK9F1F8v9jrV/k89OpdVKOqZFO8qAqN/yZzsYamhOPwjQKPE17OJMOsZ7Fe+c478h1lB5vTRiznE0aUVaxRtbVK6/T1+/KnrXOtRProlzmkW29kfI+M6KsCGgHEFh1i6xg4LDIv95rrb2X/zObrF3NGLOtUnotVmEbkC0tHI2YrXirfRHX8xPWmme11n/hP73C9f+maCrl3mI7u8rnOVE0g5YuvDtSgPVT/TFP80Z0PuT2OZnCPWDlxX/7M1yHI8tLI8o6dQxBOtLapT11Wl2MFEaTR1kY/aN+AhBPp8cdHGoBAAAAACBGMBwGAAAAAACBBQAAAAAAgQUAAAAAAIEFAAAAAAAgsAAAAAAAILAAAAAAACCwAAAAAAAABBYAAAAAAAQWAAAAAAAEFgAAAAAAgMACAAAAAIDAAgAAAACAwAIAAAAAgMACAAAAAAAQWAAAAAAAEFgAAAAAABBYAAAAAAAAAgsAAAAAAAILAAAAAAACCwAAAAAAQGABAAAAAEBgAQAAAABAYAEAAAAAAAgsAAAAAAAILAAAAAAACCwAAAAAAAgsAAAAAAAAgQUAAAAAAIEFAAAAAACBBQAAAAAAILAAAAAAACCwAAAAAAAgsAAAAAAAAAQWAAAAAAAEFgAAAAAABBYAAAAAAIDAAgAAAACAwAIAAAAAgMACAAAAAIDAAgAAAAAAEFgAAAAAABBYAAAAAAAQWAAAAAAAAAILAAAAAAACCwAAAAAAAgsAAAAAAEBgAQAAAABAYAEAAAAAQGABAAAAAAAILAAAAAAACCwAAAAAAAgsAAAAAAAILAAAAAAAAIEFAAAAAACBBQD4f3brQAAAAABAkL/1ACsURQAIFgAAggUAIFgAAIIFAMAkgAADAMHJEjWgOavWAAAAAElFTkSuQmCC;" parent="1" vertex="1">
          <mxGeometry x="620" y="92" width="53.33" height="28" as="geometry" />
        </mxCell>
        <mxCell id="XNcS4B2B-zJWbk4Hjfbm-130" value="" style="shape=image;verticalLabelPosition=bottom;labelBackgroundColor=default;verticalAlign=top;aspect=fixed;imageAspect=0;image=data:image/png,iVBORw0KGgoAAAANSUhEUgAAAlgAAAE7CAYAAAAB7v+1AAAAGXRFWHRTb2Z0d2FyZQBBZG9iZSBJbWFnZVJlYWR5ccllPAAAYMJJREFUeNrsnQmcHEX1x19Vz+yVhIQblSMcAoIKAqIikADiASiXisgVBEE8ICCoiEJABBWEACoKKAECCsopIod/2CAeeHDJIXe4TyEhyW52Z7rq/950TbLZTM/OTHfPdM/8vv152c3OTE9XdXXXr1+9eqWstQQAAAAAAOJDowoAAAAAACCwAAAAAAAgsAAAAAAAILAAAAAAAAAEFgAAAAAABBYAAAAAAAQWAAAAAACAwAIAAAAAgMACAAAAAIDAAgAAAAAAEFgAAAAAABBYAAAAAAAQWAAAAAAAEFgAAAAAAAACCwAAAAAAAgsAAAAAAAILAAAAAABAYAEAAAAAQGABAAAAAEBgAQAAAAAACCwAAAAAAAgsAAAAAAAILAAAAAAAAIEFAAAAAACBBQAAAAAAgQUAAAAAAIEFAAAAAAAgsAAAAAAAILAAAAAAACCwAAAAAAAABBYAAAAAAAQWAAAAAEBbkUMVAABANjnyxqntVqQ+ti3Z9mHbiG1ttufZHmG7ja2fbT7OPGgl5+7WD4EFAAAgM2zFdgLbHqP+viHbjmxfYbuD7RQntABINRgiBAAA0Gr2YvtDBXE1mh3YbmQ7AFUGILAAAACAcMQ79Su21Wp8/zj3/r1RdQACCwAAAFieFdl+xDaxzs9JeMvpbGuiCgEEFgAAALAsn6AgqL0R3sn2OVQhgMACAAAAluJR9GG+/VGNAAILAAAAWIqkZPhgxH1MZlsDVQkgsAAAAICAPNvbI+5DvGCroioBBBYAAAAQYNiGYtiPj6oEEFgAAABAwGK2hyLuY5DtRVQlgMACAAAAAsR79c+I+7iHbR6qEkBgAQAAAAGW7VqKNsT3c1QjgMACAAAAluXPbFc2+NlbnAEAgQUAAACMYIDtWLaH6/zcU+5zg6hCAIEFAAAALM9LbHtSsNhzLfyV7TNsD6LqAAQWAAAAEM5jbJ9lO4LtXyHvuY/tGLbdKQhuByDV5FAFAAAAUoAMF0rQusRkrc22AVsv2zDbk2xz2f6HagIQWAAAAED9vOnsflQFyDIYIgQAAAAAgMACAAAAAIDAAgAAAACAwAIAAAAAABBYAAAAAAAQWAAAAAAAEFgAAAAAAAACCwAAAAAAAgsAAAAAoA0IzeR+8HXvy1RBLG853np1HxlFpCybsTTIW7fqZSWpyPLfh+xi/p3/p3Tp/cb65Kn8SkrZ1Ywx2/Lf1+IXN+DdjSvtFsSF4m0RWfuEteZZrfVfrFWv+LbwplYeFXnjv5Ns3aqndP4MV/+QHaRe3qwOzl/pnNqB0vuyxoTcxGZ8TRebx5YPeV2WHZHKK6SsffeNuB/JcS12x5j0/a+bbTzbZHcMk93/fbZn2N6iIKv4M67uhlLezLqdlesxqWPucvU3sg+R8zUY4/67S/eNoL0OJdAetPuOvPuOYWdJ4o2oN2+5bmzZ67Md0SOuuQ3Z1mOb5K63pX1FUBfPU7A8klx7AwnXiZyPld3xSHuQBchfcN8bv8BqZ2zQr0jZ36OU2o5/7sWiamvted1U9uopKKJkZJboLC+4YVq6m+v/Gv79Lj4j/+HzUkQF1S1KZL22d7B9gG0dto3ZVmFbK6QVP+kEw3PuBvYQ29PuZvJ8jB1kbaKb6OMULN77Uba3u7+JuJLFfK9lu97dYONiXbb12XZg20ruAa6+PPfdqkKnZ9wxyYLEsnzLP9judXX5WkrawhZse7J9gm0TVx65nh5hu4HtRoq+QPI7Xfvalu3DFKwXuPqIepL2cyvb79lublDAy7Hv7drFu9l62BawPcD2J9ceHopYjlVde9uLbTN3rQy48/t/rr7+HtN5WdEJiXVdW5PvW8PV22qj3itt7HG2+e7nve6YnnZCI6us6u5TH3Bt573uQcajsUfRRHgtdHVxJ1s/23+dAIrr/OzBtj/bdiPuA/K9L1KwLuZlbP9p6AZnre0oD9ZiM+h16e7Pcce+h6e83as86YPmMexb/wZui9cOm6Hf9OheAw9WVT7sOogPsW3JtlIM+xQR8yjbg2z/YpvjbjBJIaLwB+7GVg05ppPZfh3xqflTzrZ1QiEqcgP+t+uIr3H11QrE03M829eliVV53zy2H7N9vwHhI2JnHydK16nxM1exTa+zIzyG7TgnQMIQQXs22+kN1teO7rNbV3mPCJ1L2b5NjS8u/RF3jW7jvitKP/O4a2u3u4eO1zNyy9vGXXPSbt4fo9vifie2pI3dFWE/W7m2tO0Y75M2fCbbWeU/nLtbPwTWaIFFSu3FHfPXczq3jcXoX/qcW7wVTfGvmvQZZO11EFjL0Os6OulIN6XArZ4UvvNoPcx2OdttbK/EuP+3OVHywRrfL56Yw9gubqDOPs32NffU3J1Qfckw4n1sFzoPy4KmXTJEv5TbdR2fEZF1bI2idCe2GWybU+AtrRfp/PasURBI3R1aZzmOq1Ms7uqE+oQa3y/euH3Z3qijvUl5j6LAEzc+gXMu3qzZ0senVGiJx/FjbF91AibJ+5R4+u52Dw13NiD+xDu1Zh2fOYntlHoEVtsHuTshtS7fii4nrX7naQ/iKsXnSs4Pn6drSueLzxvOVeka3cPd7EWUfDjhm5YgbvK1naC7zImH89l2brCjHX0DnlmHuBJyrkP5RB2fkWP9k/NEvD9BcSWswLa9qyvxaH2ebVwT2saxdYorcgL922O8Z2MnrG91HVGj53xb1ymNVfdfrlNclctxXB1ekfc4MTqhju8QD9SsGtvOju5BROpt64TEVdCXEX2XAk/zca7tpQWpr1vYrqPAg5f0fWqi+04Z1r2IgqHYWpAhy5/VKa7IXTe71nvzbusOO6+6Pqe1vk1p/XmFyKpMUPI1yvnS+lY+f/t0sMha33Xa19LYbuwkkSGbL7kOV+JTDopw7xCRtHsDn5MO64QaOvuVnHfjRicOms0mrpMVT9aHEvweEUHTG/ysDCmuF/KanNs/sn0upuMUAbhpldfXdkKhEb7pBMdY9DpRsnoD37GbE8zVxLW0tz+4h59mIWX5kRMzW7X4PrWee5C5wT1oNBt5ADvEtdsDanj/FyiIhasXEdrH1CNq21ZgcZfscS/9vS6v+xKl1PqQLRl03Si1AZ+/S/k8nmI7L6WIDG3NGePm3gpk2EiG6iTQ+PA6n9Tz7gbYqDfpw2MITQn0/r27CXaloJ4k0PtEiu71q4QEaL+9wc+Od4J5JF2uw/4VBQHIcTHOeRnC2D3C94mY3r+G90nM3R6NP++VPGxehdc2ch4baW89LWpnO7gHnwNb9P0HuvtUlOs6TqE3iwLvVF8VzfPFiPW9RacLrG6l6OfK099JwY0WRKOLz+N35Xx20LmUJ/MrKAgETyPKeVDknNxUxxO0DM/sGPG79wz5+8eduNomRfUkT7oSoH89xRNYP1IMfTDiPnYeIQrkOMXrdlxCfcK2VHnGuvxt14j7rsXTNoWiBZlLDNqaFQT0jTGchzhY0Qnj45v4nTL8dw7bJVT/UFuiz+VsR7D9NuQB5EMRj1fVcb9rQ4FlqU+ROk8rfSiBtoHP5xf5vJ5rk/EGpIlvUBC0mZXZrdu5jmbnGt4r09KjTqVcq8LfDneC9O0prSOJR/mj+xlX57Z2xH2IZ6nsfTyPAo9pUqwZ8nDUFcNDhEyYWGWM92wU8Tu8UUJKHhIkWH6DFLUxOcbT3MNZ0qzqyn9kiu9Lu7gHmw0r3D+i3ltrjfUKF1g2g5sctVLqZK3UFwm0ochSh/P5/XY2W2dNcWTy5PVDqjwckWYkHuQC9yRdjbVj+K6NKtTZ+TV8d6uRMIVrYvDYlMXRajGINNmH3CuTHl7KUeX4V7ko/BiExVixVVFjb9WI9iXeuKudyEgjp7J9JsH9y/UnQeUfz8B9aSsnBCeP+JtP0RMsj6+n4Ye8kK0cpNKBaZXbn/85lkD7iiytT/Bs/gGyxatUe81ZEO/GGRk+frmJycyu7yTY0dEoT4jE7/yYsjN5RYZIZYr9fhQMrUbt9KMgmdFlOPXEJpR7fgxCqvrtP9rrtfCWe0C4kJKfHRdVzEq+Jkkw+2DM+97YictNMnRfknipWRTELL4R0z5NPSejIn1NmWUcK2tx73s2Vrdpf3q8vjOpaP5CQa6mdkCGSc4kyt5FNwqJjzqpSZ2pxFLI1OzejNXRpBEi648tPhaZedWM+JkHKf1LDFVD8rCJl+xcJzLSzprufhKnl0k8dldmTFyVkRi8X7r7k9/ML86Ft6jsLIUk6wpqlfuOUnYVAh2AXctq9R1ji0fI+oVZIRceoy+xDJu1wYlZwd3cn0nwOxa7zk4C7LN6va/onqpldt39LRT1zRBXIoj/TNl+8pVjlzi/jTJ0zJLsU4Z/L4xhXxL3KjGO783wOZRZpOJdl4z40mk0JQwjVGBlKVO2R3pH1lifJ9Ax8Pnej59FruJ2ekfGiyI37SPa5LT0OtGTpMASEfeTjN/sBYl/usx1hC+14hJq0vdIh/aHjJ+rfMbEVRnJkxZ1aR1pJ+KV/ghlHwlhkPixAjVpElEuXLRkJs62Vyl9NCWXORekkwly3j3rSebswQyXQ56MJ8S0LxnKkCVt/kbBYs5P09J4AfFYSAzJ+k6cdFH8i72Ld+nlhOtLZo19uk3asGQXl5lfB7fpNbrIeQ3exO2qJbyLgqV+zouwj09T4wlt04YMz8tC4k3zpobeYHVWMjgotbfSehdcS52H5vNuLe1J1l6R0SJIosTPxrCfN9yTqiQA/SfbcJX3ek7QSecuKRZ2cE/na8VwHM9T+uPiXmV71h2r/FxIwYLSEmOyxgghKikf1m3C8UyjYBHfy9rs8pTFpSWv1i24U7Wud6RgmHB2gyJXroWzqTn5Bx93D4X3sj3lHpqVE0PaHYvEv23ors9VI9ZLawXWwtJ9J73IrMFePW5CXnUdz//TuJY6Ek9p7/iCHb5h0CxamPZZhROWTwEly8ZEnW4vwf7fdD9rwXed35+diQdFljKR6eeSy+qTEW6os1J7uwhydUnGa1kc9gEaO+hachzJGoay9MdeMZynavzAHdsrbXJdSjC0ZNO+kzoXWShdVjuQ4fLXRvW5azuTh5yk4+De467t3zfw2VMp2WTHIvquoiAT/F/cA89YSBiCeOBlkovMIp6a5kaQqyZg0i6wSMZUVSZnNYD4ntHezU3haG4P38vg0UfNMP1Xtk9R9OnHDzmTbNAyrLAPBet1rVHHPkQgXJKy+pUhS5lWLkMk91F9M9mecCZ5dH7khKekgFkrgeMUb5lkfP9SBtvwItcx/tMJV4lx+Q81ebZWShAPzG8o8CbL8LzEPhWrCIVV3cPNwe5hK6kwl881ILBkBmJScc0LKJikIgH4j9f52UH3kCQmMwNl+azjqTVrIDYusLpbvqzQGP2q0u/K6dzhSMvQ6ViSdtBr+35nrXkkQwcuwdpRpnxLXp6vUHy5XYSC6yTFJCeXTOM/yD0FV+MW9940xcKJd+4E9zMq0lme6zpOWTR4GsUfJCudoAzl3JWBtmucuO93Hoj/dPhNSCYpSKJd8dq9WodQeNaZpOvYkoKcZJ9K4PgkQH2cE8O1IJ2/DO8mMTQo+d9mOEEeh1C72dmXndBK07I9mQ1yV1rljlKk1iDQ8XA7eEdO5Y80tvhlyo7ilmDtyRE+Lx6j+xI8PhlGlCSeskbdnu5pdvRCyw+7138es9CL2vnL0MaP6uhQ6vFQHMb2J7aZ7hzGxUTXSfyDqsfQtZpyrN8tKT/OZiFDW1+jIHYoCjLbUoa8jqJgqaw4c+KtTIGHp9a8azKzdUrM9SRt5Qfu2kwiB1R5SFqSrO6clsaRuUzupaFBpaYorffFtQ3KaK0/r2zu12TtnRnJ8C4d6koRPn9jk45TZgWe74SUPB1u4O4b4rWQGIrXU1SnIvJkRvGlCX+PeG2eZPuF8zzExZ6uA3o4he31fuch+D8IqyVc6tpbnA8XsoDyC27fcSXR9dzDUa0C68sUb54oGS4Wb/tFCZ+PB9019H0nVNMrsAZ4S6O46tY9Kqfy36ZgiAWAMiuw6P520RbuHDKLKY0iq2/ZEIuVIz6lNruTe8t1/A+n9Pz/j4Ip6bc16fvE4yDDer+JUWT1uI7oKymqV+MEtoirBbjNLEFimiTFyuIE9v079wD2ixiFjqzLV56VV42tKV4PkAyFfqkJDz1lxGv9ddduj06twCqGxua18ko3lKeeA0mpnRF7BZZDqY8ZS/sXqDA7A2lGot44cQGMvF0RHdBEcVVGguBloWQZMoxruFDyDp3oBGOrkc7qOCewwFLEU3JYQuKqzCwKhukOiGl/qzinxPwx3iflivPmeUwTxVUZ8Zh9yz3EHtjKhhIqsPLNSXRabw+6mqc8LOYMwlWL8o7rpp5bWX+82uZFlZvvb3DGS0JTnlhbta6fePQk19A1FE9QsKSDkGGOi1pcry9SsF5iP5rYcp33Nyj5hLryPTKzVPLUxRG4vYrbTzWB9XaKN/ZKJob8vEXnSTz8X6UgpGEbCKwa0Mo7VCv9bjy8g7C+1lP6vd2q+xBj/dPbvLAyPCWB1o92+Em/qoU38TKyFIzEzhwX0/4+1mKBJbF1Mtx6J4HRXN5EMf+k+75vxrCvSTT22p0fYFsnpmO/h4Ice61EhrQlnuxWSjaPXf0CK01B7kFgO21MnncErm8wForbiefT1dxsHstIwHujN8zZriN8okNP9Wuu80lD0LXMkJJcRu+OYV/vd0/erTivMtx6DMRVRWRI8Owmf6fEYcksxb6I+5EA0Gpxy3KjlHQOcXlWZP3CNCTOlckZP6XAG5gegTVUV06+hA9S5clTORkGWBPXOBhTYEkySOUd41PxS0WbnglP3ctOCpIhzIUULbmgBK5KIswjKVh/sNOQGXfPpORYZCaZpIaII95EvAhbtEhgiSduFu4iFZHUFA82+TslB5vE+EXNjyVxVStWeV1mNH84pmOW5L43pui8iSiW4e4NIbBGIYHtfSq3vafVgRgaBLXfTtRBvrGzB+3gXWkJeB8lsOa5Tjlq9uat3I1f8r+cT+2z3MpYSAbotGWOl+FKmbn0vhj2tbnbXzORhdO/i5tHRay7zlox++sPFE8C0moeLFkS510xfEfB3YvSxAL3MNbsYPv0Jxrl4+jmDlLcjV24xkEd9HC7OTFP+d0onXl7JGnlYxSsSRYVWbxZrpHPuk75l27/7YwkFpyfsmOSp9K4PEAyXV4UebOy44twmE7pysafJmQ4ulVe4gfcPSxqH1jNQ7FpTH2sDC3fm8Lz90d3v22qFytUYHWlRM94yttHa287eK9AvfeSnPamaNv7Wd/6s1N4gNKRSXzAR2Lc57uc0JLh9GvdE5sMabzcZif3eWrdrMGxkIVr51K0LP2CLE+0YhMFj6wLdzfuG6FI8s9WLcX1intgWj/B79g2hn1I7qnrUirSX3cPn99JhcBqdZC7C2xfVWlPMrLmcX2DBuji9jPdM3QzN6fXUxjwLutySVLJnpj3K8OOBziTp8nbKYjjkPXj3mqD8ypC4MmUHpvEhPVTsF5hFGTWkywF9mITjlniAX+C20VVJBaqVXEzbzRBYMUxPPiae8BIK3IflCH8cc36wlAV5bd4MXRNHneH+nCl1Ba4tkGjcPvZksj7oiVzeqvbdG75YXe5Gf0rpqfHMN7n7Ah3k5bvvNKJlEUZPKXiypaEosUUH58s2CyLZEdV9OtRMN09aUR8P4y7RVWebeF3SwzRmwl/x8Yx7OOZlLeje9zxvb/lAquVS+WI96pPj18/r3Nfw9Bgxfr5l7XmH1p5r5X+b83KfC9/D4uJKaidCiLL00cVTfHKAbPoqVZ6sVZYfthdFN8PExZYZWSa90bOJFvzUxS482Wx2nvdE3oWmO8ETJqRmBmZxLBixP1s2JTbCbxXtdBKj6mco4UJ7l8C3MfHsJ+73D0tzfeOdAis1g+nKFkuYjVc1yOuMmMfMOR/R6nc3b7xX9We5/5uyGo9Sfv2A6TUMUqrj6K2lmF1bk/f4Tb9hRQOE0oskQwV7tLk7xXvyDHOJPjzz2w3OG/GQIrPpXjd/pvy9iYLYb8ag8BapwnHKh3OP3CLGJNWxhWJwEpyqFiGouOY1fb3DJxHGTE4qOUCq5u3VqGVt2NO5/aC92rEFWbtLK6No/nnPFVZI8gT8y1cZbfxe05QSsmC2D2oueD+lNe5vZUdd5mx/h0pO7jyulmbuSfJVrChs/0p8GTJYrOSAkG8XCaF4sVPeYOThJQypLRRxP28vQnH+tsM1GcaaPWTWZK5ZiaXuvzoIvDZDJxHyS0nqSSaEtedvjQNivqU9uSpejyu6QBj7aUsmr6sSA3W9nb6nuEfntInJ3xhZokVtPaOVoafsmzqZrmIaJjuRE1fC49DbrISiyEzbWS9NUkYKLPL0iRK/5uR9vZCyjvVcqf4J9waOp6uGASkPIhlIY7vefcA1BSBpcNfaNXm7aWV/gTavLsDGnqIrP0qN//aRYEq3Tp/ZIztRw2OaNNK78Lta89WtewxEK+RBKKnZQkFuenKMjw3UxAUv2NKjisrsyDjyDC/bsLH+HRGvA4g4Wf4GPYxn7Ix5CQCq2l5EUM9WAsTjamr9ChlqVePm5BXXcfz/+B1WaqwzlTWLlDl60BVV1ZG2fKvw1ynp/Iv21c7zx2Gp7R3fMEO3zBoFi1sdjzWBJo41lsudTcpycg+LiV1JkJLEphKwlYZTpKMyK1c+/CZjLS1OITgCgkfo8yqegm3hY5nNYruLZXrspCBskooTdNmIOtqgqfZG3Ms93mboL27c2BLwce3kgRdOVNKl86OqnjOAmVFdondYaz9O2pyGQ0qi/Ee06L2XQuXOTFzX8pqToYuJThUcskc0uIbZBaI4yEx6fi3uZTedBeguQIr7W013l6gSaQmyJ2Fw7tyOncYAttHKibzT+6Yl3nC1LaUlmG5atJ+ILGUXa4p3Uqe2haVuVSGSjvrtX2/5Xp8JKUH2c+2K5vMpD08Zce2FttFbFuyfZOCHD0gmzyJKgAUT6eLjrsegdXkIHelVe4oRWoNnJKyLlI0RMPPLLaDttJQlnhE8v4w9alxLKpUlfat/ofaXK5u35FT+SONLX45xTcGmZb9JQqWd5AFeLeldA31SryYLOcicVrPN/F735GRZhbHzLwkb8LiuXoNdwPAPEqBByqK17WPKH05cCqgKQ0erOYtlcNSQampSuvPo52Puruq3OIe3RveUkRYGVNLgwKjK4Xbm7K53yhr56T8vnC7M4mDOpBtZ0rPwuci+q52IuupJn3nKhlpYivGsI83Ejy+eU0WxiC9xDFMLClJZGbe4pSXdc1m3j9bmsldvDDdukflVP54khhgsEzd5FVpq/ImS8ZHCpsGWYFF/fFFW5gzZBY3JbFuX7TMI+LJkszrWzpBs29KxMbWbGe742lGgtK3ZaR9xZEkNMkZfgoPXyDGh3AZCRBvQNpDBlalJq5tnAuXtMnHPhre8tRzICm1cxaHcKVTLgcvW4rfDzJ2YHTL6myQtd2QUjRpZB1k7wSqjxlL+xeoMFtno6+R6cV/cyaz+SROa28KhurWbuFxfYqCeLFvNeG71stI61ozpvMNQNL8jwIvVhTPjgxnywS1V1NeVkmo3LQA81CBlW+KyFOr5ZR3XEYb5fyCHb5KGf2IVrlXLJleo8yG3FHvqJTaqg0vwoK15loWVncqpZ+21i7k39f0VWGLnMrvzuJygywWStpfN/XcymL11Ywduhzvxc7WZ9uJTdrdDtSac3Es2x8oWHInSTalIN4jzcv5SIqNtWLYzzMEQPJIvGchosAS/8LmFEzQSTPvJmpegHlLBZZW3qFa6U2z5r2yxl5uSf1g2BYelHryXPsyxpd4stVZeHxSa/UD/uPK7XD1cXn/Y6wvHej/KVI+uawRLLJo2Axd4encT/gUHqG0+kbGSibJR9/brboP4fKdnuFT9KSzCyjwZImXZyrbZ5z4asYTm1wGM5zQS5I+96T8rxSfj41iuvZfJQCSR+Inhyl67r3NMlDW9zT1AT78heSC3EtDSoo2Js87IlvdsV3o+8XjNemfKO252XvL8Qr/9SLjF//M77leKbVRlq88PlN3se3DZX+xUpyS+9tctm9ymf/JZT6XRcvbsjRsqLgdej5dzYf8mMrERJiqPOtMniRlGFE8Pp9wJmIryVl4H2b7OAXZ35NCkm9OSbnAeh/bSjHs5z/o+0ETGKB4FiffgoL1b9Ma6D6Z7V2pEFhDCa7YkVN5mSEnHpE1s9MG1XNFUzi0aIdu7VHVl4tTQbLPR5VvD+bCXst/Wj2T4srYl3zrH6pqWsldEb/3d8P+wON93oQLlNJbZ8UzqWQ4R3lf96l4eNEmF/bSTb3NLprEVdzvTDyq72Xbhm13to9Q/GkfxFO2F0ly3GQTD8rsxXMpnZmjtTu+OHgcfT9oEpLYOKozQJZ2+iCld5jwQ5T88lOtFVgS2N6nctt7Wh2QlQ7YkL2LrP0Sd8UPVQ9lV2SsT4N2UfkPf8v73Vd0e91HZzEQnI/5bGv9R0sB/GrsIHARlixS7i9af7ecVZfwR7KzpqRWB/rGXjZoB+9KKuC9BQJrNA84u8TdTPdjOyDmBwDxYslMvxcSLMd2FLj670lhS5LYqykx7EceauYRAM27N+wTcR+SCWCnlAos7R7+vGZ/aUW8hLY85bu5AzuJ0pPLp7rIsPYOtv0CcVWzMFnykz97lbWUvWSflub7pnBZIIKlHH5JPJaCr8aUWfQaf2JvFqYXZqjEPdwuT+T22ZVU208Rg+6JVSaYbMwm8WevxLTvd1LyyUAlvumTKW1H28b0lCxDoG8QAM3h3zHtR5b5WimF5ZOhwd2b/aWhHqyuhPSPp7x9tPa2y4L3yvrmKhYKh5NWtT1JspKSjnT8iHxH/Pl7iczTLDwyFfDORXlI69xyna5SNccoDbK4nG4UeZrUF7KgKHPam6Jt7z6+9S/roBurtO1vs/2O7Qy2HSPuL+9uZv9I+LgPZjsvZSJELo644krFo4A0DaBZSDb3/1H0yRkyk3Aq2zUpK99R1MT8V2V0uPKKdys9wytvVaW9lhS0XowxvzHWn0Y1uOmDITQWj16eFMsJLugS4/8P8YsD2bve7H81eZaNRlrg0KpZHA+wyPqKseZXGSl0l7RPbqerSHuN+xpIOTLcJjm1boxhX81YzmYdd9NME3tQMEQaXe0T3Ys+HzQRCXL/Z0z7Op7StayXxIXt24ovDhVYfsxbMHTkHaaU2iL93ht7mzW+PCEP1vbYGgyjtcEMtJF3+F5JwzDayJYC+Pl3RTWmVl3MnzrCZmS4kNvnltxOv1gK2o/9Gkg98jAhMVkPRtzPO5t0vNMpmLmUBiaynRDTvh5juxt9Pmgi4gS4M6Z9ST6+r6akXDKrUUKSxrfiy5uyVI7EIvXp8evnde7ItA8N8tH93VjzRaplqqnoC1kL0JolcVejRRb/vVt5uo9UtsQXl2PLQE0tPWFStgINB/FEtq4M7sPG2uma1CSuhs+kvuyePqpoilcOmEVPxSmaV8hG2KGIrB+xXRrRA9MMJGWDxI+J521hi+vtaxSkZ4gDiY97gQBoLnewvUnxrKMpXqz/o9anGjmUooc9NIyu0sHGuvEeZSmN1dKtrtQT1thpfKzPjKwHWlqGJcLKsqjKGxk206WZkbKJ4BBhumjJtpDlSHFzruZ1s3alKU3rciG3LA0HjrBhO1QKdpegd2LzbZEKZniUsBxZX0tsgKvnMLY/Z6D4q/Pxfif+ayAz/J3trSTuKwnwUWrOEj3VkAW4vxtjuW9AXw9agHhNH4ppX9LX/5CauCxNBXZyD4ste7IN9WB1x1gvWnk75nRurzR7r1gczfdN8XCr7KPlmXOCyCbx1hhJwUB+kIqAhYUIjR7erNvcPkpDQaVYJWVLw2hKqX2VopUzuFpfnrT+mjXFg6RcklhVvHDK18sIKWHIDnKZVcmCOisGdTIqVovrcB7/7QseeXdopVOcA81SXuf2VnbcZSwm70jwi8SVXk7OJ8ynYDbPgy2uABnPHHAeokZodszhCc7jc34L6kqyyv88xpv402zXoq8HLbnxBQvKx5XHTdL0/JiCWMlmx0i8x12XLc2NEyqwYptWrqiPO+djqEVjoLUdoqKCP3zsgF10+3LZ2ZdqLVdhOVpsB0pyooJIK4VGj9PjyVelPIsfZ9FxQFYXQ1aa9rSmdMFdO1b9LWaRJXUj9bLYDFYTsk90U88Bvbm+6/n3FVJc/BW09o7m0/h3PujBmPc92Xk8dqPlvbrPU5CoU15/sUVlj7p2+bMtOOYzKRje/HUTv1MSt15F8S5ALfsbJABag+TIk/QtceXG+woFs2GPaWIZZKj+ampyUtFK6PAX4tq8PbXS6U446duZZO1FtQzziIfKjCGYAkFlp2qlLuGPrJThi22C9rxfklI1nb+CS6w99lCZ7bfGnEwpHzbjdrtLqf3GdCU41nNPiV+gykPma7rX/kpB/EArnsDeRtGG899swTHL8gqXu86hGUOUWzgxF+dSWOLBvJAAaB2vs82OeZ9Hs51DjXvE62HXtIirwCETwsKIMaMiMnr1uAl51XU8/0+ntTX51vzNWv9kE9PKHs5bdRB3zmdTPMGCrUWpFT0vd6MxRjwqMqYe6uqtNc5I6qhoi2cpq7eWvGgpLr2ntHd8wQ7fMGgWLYwaRzWBJq7onhBrWRR1HdfZSvZhGfr6fRPLfQBFU78Ptaq1UhBzIZ4laa9zE/oeyYB/hhOicSLn+0n08aDFSDs8kG3VGPd5pLsuRWzdl8AxyxC9DEVKrHdqRst0tU4w6sYcy7e8TVOsHuYV/KFvLKKF84ZpOI5A5D4WlKeRVrPaQlyNaCfM97l2fsXnNVK5pI6LvC2yC2mxP3AcN5On0i0w6d387zExXQ+yEHK98Q3iPfwt2x/ZPkbJL/UgN8HPR/i8JCt8s8VnbX8KZjBJJxFnzj1ZBkeu7UsTEFevuH0D0GokTchFCex3qruPScxkXJ557fZ7u3u4SlUoUqjA6o649aq+d+V07rBUB7Yb80Mic1c1QVkHvZ72Lur2uo+njMZc1SA2DuzRvZezSFo3+q5K23Nk7PfSXWjJ8J47jNvzxlGvCebTDR5EtxNncnO6iYK0BEnMyJ3M9kuK5sqXp9NnU3DiZChWvIUy1PqZCE/jImjF4yi5dCQZ60GUzBCk1PtDBEAabnpEP3NCK27WYDuVggXoWR80PMS+CgUL1l/vHqY+nMaKTCrIXWmVO4o70DVS24Ks/Sf/c4Z2Gbsrea/K3pZaxJXS3sVK631su4qrcrvQ3icsqWuM8WXo6ukoAkvi2RbYt2b1mnGfzOv8XmmtOz7Wd+RU/mvGFr9K0dTz5pEPJUhLICZr1d3hbi79RJFXZxfRNoPt3RH3I9mgF6To9MlMTQkcl6V77nTHJ9PRn6l2PbNt6m7asnCz5NGZmOAxyrI4P0a/DlKETLb5vntISQJJRvwLCmb/3uYEl1wHMoP61QrvzzsxtoW7j27D9oG0V2Iu/IVGM91zN6nUFBYbn09xuReTsd+SZE5d1FVx3UURADJsKIHbYwwdjmdx9Sut9Wc65crjc7u5Vupa3y+IR+aJGltF6N95+ya/ur17KkklfH73VzZ3lbJ2ToTwpDiHlbZy9mUKPEZ/cUJLPLIym05mohWqCELxiomnSoJCZUhte4o+nCaBmzem9BRu7UyemF6iYA3Dp9xPz9WTlF88Xyu7ttiM9UMl+PMbhIWdQfqQNVll+ac9E/wOWVZrmvtdHsxedz9Hx/pKKhuZMLZ6CuqlZu9TrJncpavs1j2Kn/Yli+uEtLYaY8xsY/3+sL6n7Lka4q2auOLy9nHHe6HqIHG1pI6U2kzr3GXcPXyM6+Gtcr1VahMyg65nSaqnCq8besLa4hnK836Y4iKvwOf5+KItzBkyixuK1+uj8S9RvFP6hXEULK4sdqj7m8TzSAZlSfPwtBMV5az8cnNYm20Dti3d5+P0xPwtAw+VaznbLAXHI+klbkFfDlKI3C8kKF282s1Y/mpCmnXDCGqOMQ0VWDUOjY16FDP8CNhzIPe+H01rHBJ36K9wJ3mWLa1xEy4Uq3munNfF08q7gDvdz3Xq1edp74MsGi5fbAY/yzU1WMlLFeQGC7ZqQ4A+mYs9q/dl4bZ5agus1MeMpf25bczWjYXh/CsBgVWJ1Vv0pPcD55FJErkxyTJW49vgEpJ8Z6ejHwcpRobSj6BgdYG+NijPaxRMQIuyGHXNE7NCe4l8A1s39ayWU95xqe0fxTNlipcP2oFHhqjyNsxWzudUUVTw1qN6qVv1fFN5er/OfryxIrJ26/Mm/LCXxuW7qYtGm3iuZLg5yB8Wvlnrv2aNL7lShlPt/uD2ze181UauD4o/v0yamMN2cxO+Rzxy32qD+nqUTdY8nYc+HKQcifM8ug3KIbN/r6LoM7F15Dc2JLBU96Fa6U1T672y9JKy6vvVk0FWHRJkqVASWHt2ed0zcN2VHTv2q6TsQeWk98uaHeF6KJbi2ipvBRq0g7/2rX9fetfts5J89L3czg9pUGDJVOLr2rAJiMv8m0RVnkziQ26OP6UgcWFWeZmCFBLP4u4BMsIFlG1vq0xykTxZq1D0DNfP1fxAHv5C7R60UieqaCPyvCPSXMNFKpxnlH2jW1VOwSEd+5BdHCxkHBJPZIjWZzEx08abXyfzGouVx4+Vr+/hGronvGf0xhp6HfJN8aycl/tNqgvL7dzz6Ro+4MfqFIOL3EUuweU7ttH5lziiu5v0XeWnz+9Q4Oo/MGN1JfFxn3U3/NZes5StFchByxGnggTTZs2bNZeC5MDiLY5jotH/IgusoTpmfedUnjyVO5aCZT5S+9Q47C++dqxZgarKfadHdU/wdP4sq9Ta1ObpGOq+Wyu1Qs7Lzyyawu7WmjfD6jYYLixWrGMncK/NU/cTKgjCTqmapLVZZX2dy3F40dY+otkd5NYTr8VuTmjJUNfEjJ96cbm3YnKCzFiUITZ5Gjo4I3X1grvR/zkmgRQFqbdCO9x6KPnku9Sk72hGXUVBbnZfdwLj5IzUiayMICtTyGz3jSnI9RcFmdBV84xfXU1g1bIN8uYruz1pdUB6W5WigilcXaTio2Ovk0dh3hWJMds7r/KfgrgKrejtuA4Pq/YWGSoLorNCt2HfL56R+rJqdSC3+22l/dd6rYxAUihIQLgkD/1Dhs+4rPl1CFVZPilh5IYvucl+lYG6Eo+VeC3nxLAvmeL9WgwdxYtpuJJiEIpj1UVUIWCp9bFycYiZOAS11IXkx5pWjyenhdcc99dLZjZvEoMTSNram5Ebt1fjxh1mtyZ9EgV5dVIJt4i3jPV/zcdp5ZgbWag3R7m1rVKnWYir6g3Kyx2TU/mNcxS+icjyVC7USBLP2dLTfprp4XZxIpelq9ZrpQJ/p2CtQXk4eTRjp1oWOv6C8yS1kgEnsk5OcV1dzLY7xZcZWxaFjhq/tTAGkRYVcWW/GnEfMuT68hjvibocl9z0/9viuno+BnH1fIzHIxN2dqFk1hWMg+vcNffwiL99IAZBP7eeB5PQL+uqcetVvfvktLddupfE8f+Rs95f+6iPekO2SjPgAgu8Lb163LeUVm8jMIYTi1bjlnCi1YrCjDxNSntVTD9rlPl9uksqS+h4U7j9f7bWa6WKF0ZuVpIE85gMCC3p3CX+aX/nBUkD4hGcQcEaimkS5s86EfqFGkRAPSx24jzq032rZ+xKp39HxH3cVMN7/kTR0oc8mQKB9X8RrzcZIvt3Ah6iHdjOdddgGpAHLlnr8NOjrjkJxdg1hv0/V09ZQwVWboyt9EyuvFW5Q5RYklQHfFuJE1HaWqWokpXSBBBR2Cw4pfSHWFylOTN9ukSWp/e1irZno4om7+FflAk1n3x1A79xIOVF7ZL2z9fBKp5bcqnaNgZy8zybgiUgJM7hLyks7xz3VPh9Sj7fVSOIV20ntitSIBwuccdycULfMZsaH+KTyRZpmYX52wherEGqLfXJ4xQthYgs6TLU4nqSJL53Rvj8DTGL/DIydHqUEzT9Kbg/yZJfp9HyYQvvp2D5q6jUJbRDBZY/xhZENnmHKaW2SLmn4c1FZsFVA3YhjbZFdgEN2kUlgVXl85JQ9Etc3qwHIzfTiyUCSqbth8YNWMXS1RarWT+/47HUl1Wprfg6+CK5tRWrXzM1IQGUZ7F9koL4gStScHOXm8ohTlzNSfkpEQ/gAe6G/0CTv1tOssTUSWzdNKpxGakGkXxgMxv87I8oPQtLP+YeLBpBROK9NbxPhkNPp8biqGRCwkUpqSuZFPNKg9fE2Qkf203u/rBfC647edA43H1/mJA+JobvkQf+ujzHOnxP4dsi3nxt1leePjLtHaC1dH2X7pnfpbtpeeuhLtVdfVah0ltqrfdAYHudwkOrKVxlOynJ4BFm3Py4fsNskM/dnzNRVk8fxdfDenJdVLtu6kQCKX/vblgbsn2NgmGCZ5pULBF6sq6hpF6RJXUkkHx+RpqfPDFd7Z5a5fjvdl6bpHjWCeGPOFF8e5PKKZNBzqvzMxc7gZUmZMLHzxoox4lUuydV2rJ4hhfX8R2y8sJBKWr3Ioq/WqdQlLX9vtSgMKuXt9x1IGukfsaJrtcSvMbl/EynYCmfC6qcJxFeO8fwnc/XK7By4V6IsWZ0Kmncq6Xbk6Jo0AzcIB6qSqWxJYXZRTmdqyafZGhwBUimeuuexrFMOoCMDY1/KA3B2io1b/0rSOe+QtEDE5NmdS7xd7i9fSGhJKnSgf/EmaSvkGBNWUdvC3dziWtZnJfdTUtuIhIb89eMN0OJMfo5BUM8coOVoNypFM8ahC85ISVDudLGH29RGb/ujkVW0FhxDMEugky8o0MpPFdHug7sW2Pcb+VJRTx336P6Z8X9ynX4MsT9njHe+zsKFuF+OmX19DsnmqT8247xXnkgO4Gal6OuTMEd5+/cQ84OTnRtH/FeJf2IeCxlVmA/BQvLj9WWRaN8l6ItjVPmb/VeO6Ff2l1lUqBW3o4sSvZKu1eHO+/Xubt7MOjE1ajO3UoMGYurfGgp+D2rsEiYBrnUoMhS6pNFKm5syTwcVsNlL1YI/zbGPqW12iDdJbWU17m9lR13abCIeKI84exyChZGXc2ZeJnWoSDPi0zGWJett8p+XnAds+xLhgDvpyCA88U6n/KzgFzitzqTG/w7nEgVk0WyZSFbiSP1Qj475Dp/6Wzvczf3Z9z/W30TlM5Mhr+uoWBYUgJ5R05Fl+MUb57kK0vzkLvvyiGxQrK+q8TSrDHi9addGW+i2oYFwxCv8D8p8DTKDF5Z+7RrhLdHxMhsJ06KKa0raX8SQvBR5wDYbkQHV3CCX2bRyXDZghYf6z+d5dz9aU1X55IyYUN3n1qhisdorjv38iDzqLs/1eMV+6a7N8bB5fV+IFRgeWHhM4p6lfZkPDP1i61yx97fRd1zu6o4FSRze5h3K09dn9Pam4jUDA27sSZqrT9hrXo4XITpksgK7zzsbZTipKMjWIHbytHK8A3aNm1GzQJnT9LSXC9LnoOoemJBQ5057v2KM1lx4Pwlt7ugM1+1Qp0UnQBNe31J53M827dpWY+vn7Hz85DzOJyYYDnEU3uBs5HXSZauiXlONI9eW89S/BNQVqIgSedKI75bztObdeyj6O5TYnNqvE9FPR8SNzo9pjqQB5W6Z+6GCiwd2umpT3On+IlMPLYa+4C1JtSNLMkffeuHiDNLXV5+L6ikqBpL81O1P7PyDVIW3x6usri2eBlzt/XSuCOyIHK10rva0lOxvTwFh2PQ+urynrxAlPrca7U9V2ZPVLWyHKZN2m8yt+9AoIg3UYb6ukaIJREbV7L9kqKlaEiq/mV1h59SfOElv6EGvIGhAmvhqPyB0sH16nET8ip/EqU/JkZYrLS+N9w7oihnbWgFsMDcVKvcpvBeRbxCtdrEFEsu2n9UuodK2tEi3x8q1XMQo0WPWWvn8emalIHietzmZhRs4fpBs2jh6HisCYSJqACATLAy2ywKlvWqpBu2dSZB97IWqaTbSMNkADk28eSKFzSu9FGvOYFV/0N3+OPD8hvzbaXU+hlpIC9ZYx5ko9FGxtKwWUzcCdJiM7CcDZqF5NviTprUarjOIsNa1dt3yRKPo0zSNfSqPupT45ezcWoC9ag+iQu6LyuF5etDhjOPD7l+AAAg7Ujs5uwQcTWajdgupCBGSlIlbNLC45bJK5IL7xSKNzfn1Y32QTUHuSulN8np3CGZ6SisfYn77mfD5KPEmI0LDyPLecr7EDrFuESH3cY3vqKQ8XRbPQ/ZW9rm/qtVbmoWwiNsKcN77pBe2zfbWvMIzj4AIGPsS0Eut3qQJJ4yY1f6XJldKxNKJCdcM1Z7kEB5ibeSFRPiXm1F0rs0mm+u5iB37ancNxXpVbMSA2gtPUhah/bcnq26duYaStH7cJ3FJbD0Wp7XJUGSoYLDhIbKKTmXT2YpHpuvk9VzKv8NY4ty0SMWCgCQFcTzc1SEz69NwWxWSfYrs5T7KZi5KbMzJTg+rmFEGV2SGcCSp0xmVK6SUH2IaGx4+bLaBJZSOyitP5OlTs4qquo9UNZUUwRrkFIb4FqLS3CoVYu2uIVPxUfC3tGtqq4V/hg3vSF5W0ZaH2t7/Vllc5eyOrwDLQAAkBEkBCiOYT4REJKSYX9nkupEMrxLig2ZVS4zeSXlwv8oSGr8FlHohH7xSq3kforJuq1T2NZLuC4khc0Po+wgVGAZvaSsWgdJRXsz1EiM8u3jY3WCVdhM8nPjWotLYFGOxdXGw2YwJIEtKyfdVW0Xr7LglVkX3Rkqdh8f80lGlZ7gbPmOAwAAKUYmEyXhdZd79/udlZFZefOcLaoisFZxx7VKE+tBcgFKEt9Imehz1XpFx/5Kqe0z1kiKfF7mhpctWOS5msBSuNBiQ+KSuqlrgy6V12EXrzV+tdUDniSl/8fnbeVMCcvSckFWlrqZjVYAAMgABSJqVvc3wdlaKawHWbvxhqg7GSvdwkRN+msZbCSGO7fH2aiiibiyOsz4H/1OXGdxqw21Dlf+iiRZ2ytYkB0vdJtnmxMsGTvu+sFSSwCALCBZ04c7vA5kiZ9T47n/h0oUQ8rYXbIY7G0NPW6VNlY67oomIovCzFNk18Z1FrvCWptrfZKiypvWOdJeqBVYFA9mstSKtuTr6ONyPQEAQMqReKg5HVx+KbukmxhIVGApqzzu1CRjexZDRwaWpB6qYCooYJhppdVkXGexM16WWQrLhxUoYxVq1tinMlpuvo5oF2WVRhMAAGSAH1H9C2m3i7jaz4nMWAi96fvKX0spvX1GK+plCo1it+T7RTLhtgohHjl2WGRMZJtUxXM41h4WZbfs3vZyPaEVxBLbAaEKQPJCQwK8ix1UZln2RxbOjnW5rCqr7A6vryRuJpPYF0oDhRVdWMFdXodv0hHmcI3FjzF+uLA1ftuWm6+jdQs0tB5aQCxrpr2GagQgcc6jYKjshTYvp9yTJPO75NN6Me6dhwqsXup7X4YzmeeqP0arpJ+yQUXda9e3lltVY/ZkZost63jSOCSuJfoPRZ8CPhfVCEBT+BXbB9i+x/bfNiyf5OOShaxlfeWhJL4g3N2u1RadKgNwXSWDIj0u3HNYdeKB2KJMF16rLdECSufwsYj7eBDVCEDTEA+W5MH8CNtX2P7cBmWSvFsyS3AntusTve2Hywz1DrSt1mKMqRYrJkvI1BK8hOlrqZDtuJ4YSRZ7XcSHn+tQjQC0RGj9jIIFoD9KwaLKb2SsDG+yncsmD7vfpSBWO1GqDaWthDbV8l5Z4sFUML2x3MO4WDIbeHxKKSes63sqi62+NBUowmezPnSL6yk4/zLsIIuyrtbA5y+kYLkNAEBrkHyEtzmbzLYHBZ4gGfF6e0qP+R53vBewNXU2eqjAUpo6Ndlmajpypb1Nhs3QiobMGxI3JuJKBtO6VFeQvqAktKi0mFFJellDo+PmtM5tnZ7e1TwXHtcnQrFq1a+VZYXVwdfTaGQJqxPcza6eUyoxICdTPIHyAIDozGWb6Wxztq3YtmXbgYJFn1uJ3C9ud3YntWhyTDUPVpZvZLpqN1991GyRR568oeWpGrj32apoC+9i+0tZYOV5U7qrokwRgRWUrfyqerunch9JzUnR3v9sNd9GdVambANhsJSLKFjb9DSS/GhjczfbwZTALB8AQCzc5+yXbKtSsPzNB9mmsr2XbSIFK1rEvaaxBKcvdAJKvNt3URAn9iylYAizTdMRqE2cQPIryZZSykcbKrKepPQEuneNU+OOKtihvwzSYhrHW051lYRUpeFArXIlZcnvLwmtbt13LP93xZSUpcDH7FdzWdjqtY5YsvbiPHdD/JZ76q0ktB5lu4rtx2zzUWUApB65i7/q7N9sP3V/f7sTWpL6aU22t1EQNiFrEebd/8OHN4L4qfmuT3+J7XX3wCVDfo+5e0XqqCaw2jbZpi6vgVcZiR6XhYXflgqpqPVeZPWhfEwX1dPGuaXurLU6NC2pNlg8zSdbvZMcI14/64k6kbx2eSSh4V/Z3s+2Gds73E12obtx/ouCtdEAANnmRarsge52Amu1MQSW9B0LKEh+mpmH7VCBJev5sQZ5dxbPZCnexYZ5sJZ0+GHwZ9Qz3NmnQmCxQPLyXtfMol9YaK39TS2f0JTbKed5F/FnJ6Tnuca+xnW+qGpJw72KEo+2ispwnDsX7YnzPtWP2+zyFJzI+iuqAoCOY4iWDvO1HdU8WG9kuFwr+H5hHIWsCq60ZF2q4sEqDV2oD6aoPON6vHG/JmPewyLrlxQ+E2J1UurTns6drpSakKozouhZZcPblLV+NV/bOJZW4zJ+rb2CeykAAHQO4QJLyXIzmfUYeIrUZArGbSt05pas8qtoAfWoStmITulMaP1tViH789Ffwz/vp2CmhChFGT7bWGn1SX5j6hJaiuepaAtPsg2EeaG6VHe11rZ66gRj3djncLsBAAAILCJj72GZsm9mBZb23sU/762sHW0piWfokK8qiZd0omhtRXp6oEbU68qWkqBPqhZU1nJpwVa0/hNDNByyTJGivOqptoO1uZwrZjoTlrXIQA4AABBYRIM0cO84mkAZXY9QUiq9K/xVlii26gTKZ7nYL1FK4rCqsEo2RIdd0KW7H8hTFS+VqdLOlFqXPzgxqxeZiMoBWnQPbjcAAACBRXnqetJa+wz3DetksWDa0ntt1Xn/VYXj86S05PR4G5pIDPKK7IvGFu+hUi6vkHdYP/TTmvIbBBNNsrlMJLfDp1lcPoWWAAAAnUPosJJnveesNXdmtmSK1uOebWJpumD9NmiNuRvNIyaBYeyjXJ9vWuNTJdNGsdLvqmgedeU85W2Q5TW4WTzeKdcTWgIAAHQO4WkaVGla1x8V0ecpizl8lFrDai3Lk/wr/C3VxtcUf87K9NFuNJOoCoN+76l8qBIOss+bCh8rDa+twedpswyHX/ms2W/i6wmJUgEAAAKLSuvbcQd3E3cO97IO2SqDZVuZO+X3WbKhAmuxXRwaE8Rl/0sXdT+aU957bYa9Jy3XVpbmWetfH/a6IZ8kS30lD5UJlgZaZ7xaYQOb2eFB+rfV6ubsr1UNAAAgHoEVMN+QOc8jfUkGy8Y9mtnMmnDHgYyPDvGmKgosOy+n8zdbFlhoJlEEhr1dKS90oU1tFfVVSXGllNpKkq1mtfxy/VCwAj0AAAAIrGUcCrO5kzxEabV99iSW3tIquxJ30G9UFlg5Gmdl/T5NFWN8jJpNyh5bLSspGENg2OKvwjO0W7d+Yq6aTN4ps+LSWFkK5nK0AgAA6DxChYM2tmyGrD2F/7Q4c4VT+n1DdvEGA3YBDdpFy5n8vaCKsgxLaUh0eVP/YXF2E5pJowqD7tVW/U1T5a2UzFWSvtpimEn81ZSMln6QC3AyXz+2fC0BAADoHEJdB/7IZfysukMbmq21PjRb/bvt7vZ6puZt1z8qvS75iaSci+zCsM9zBXnn96i+3dBU6q178eCYXyvSb1SLPrKqqvDYVilaIYvlN8Zcaqw/hxC/BwAAEFihAkv6C2vOylPXbjKrK1sF9PZeYAbOCFveeazgad/SXUaZfq30VDSXuhTWU1bTr6vWru9X1R9ae5/NZtHti0VbmCnrBaAhAAAABNYyDJUWuB7RaVj7iDL6grzuOjFTT+VKbc3H/G7+7T8VX2Yr2GEK4oRUJaH5VsEM/7LH692GO84uNJnaYEE+i6vz+XAVoqqv7mNpA6X0h7NXckVFU/jFoB34r6ph5uCRN1bU7ZPZprqfZeay9bufAJQ4d7d+VAIAWRNYIZ3Dmdzx7c0vbZqlQnZT96EsoI4KK6dnNQ3yFvY6C7Df5kz+iJzObYOUDWNjjX2Cq+2cau/RpTFEXU1/fYTtbZlLbmBJ1hw8S5EiVX9qhklsM9kOqvIemdE7A0ILAAAyKrDG87a8W4IWWOX/QHmltA3ZmVmnaBdj/FMNmddUyBuCvrGyeOLPDbF9m1+9jYI1W0CVylbWnuKZ8NQE1m1V6NNK703ZSx7lW+OfnrN64QSaUO9nN6fAQzXWmosivvagwMN1H9pbZxPiAe00JrnrYfMRf7vPXU/z4v4yeA1BZIFlKDR85Bpl6XPcAe6alULysa43pPzdh+zgRZUyLtjSeneauqkrtNvnMs+xxlyktDoCzSZUWlHBFm70qXBttfd4vFVpX5IVYwutvcylBTHW/MGSf22DHcSsGsRVmYmu85AOZS5aHuhgYVXN4zvfXVczkhBaADQssEYFuY9UIwPa0Fna0zJ9fnwWCskCSnfp7n1zNncld98LKr1DOn5tNYXlbJKFo431T/dUbiq/9V1oOhWl0ZtFUzh1yC5eGDY8VqrnMZyfvd64w/hH1uLd3jLGP5vbyGADn53Otlmdn5noOo5paHegA6nF4yuvSWjIHs7g8QVNJbSnG6qyDdhFtxdM8ZosjeBopXfUKreVVh55ktxyhMk6eYp/Wi2B12rJENbIzSELYH+3pD/BcrC4OoXr6u5y/FGlTTAhWyDq1Xp8rj6fMWFJfD1czddFf7XrpgqNiqSD3FM8AJ3EZKptOL3MOrTU4wtA6wWWHWPjd0jy0VczVt5jpBtfbAdpeIQNLfl9iIZ5C5eNMvHev5ptJprOqJox5tpFZsG5RVsIDe4ea4KAvN6te77On8/a0jiv8NGfOvY1E/okvk6E794DrQ90GLPqEFdl5P24b4OmEjpE2MdbVWVm9JPWmnOVp07NjJpUelffFKcMm8E5YavfBF1hl8w8DBUFltR3raWtlKIpaEKlCvk3GftlFkYmrE5zbgsXGlyrytvU096nszZT0/rmHM/qp8ZVWVOxClNjeJoHoFOQB5JG77tT3PXWj2oETdEcYS94Y2xBt+lfYK29JyuFDTIv6dNylO+uVjYpmQxZFXmrPJhVHCzawqHGmqfQhOjNgi18tUj+y+H1rsZsT7zpnMofxe9dLVPiytp/8XVwoVwPY18zFYk6xDcVTRB0EFE9ttNQhaBZhHqwRFzU4Ll4zTN0jvJyF1EG0heIcPK0t1Wv7d3Ht/6l1QKxh91W8T2mtK8nuqn7Mz1e3838llU7sfEoqxYOmEVfKtjhv5frrWKd89ZVmqFpQ9+jlN5Ga/25jFXBsDX+OdyWXo/4RA4AaM4DxWRUIWi5wBJxUaNqubLb9B2U07kdM5LhvUtp7xva0K2L7eDL1cTYWLPd+D33+H7hQO3lrlJKTeiolmNpYNBfdEiBhq5SVepJBJX4/CSRa9jQX5fuUXmV+w7/mqE6lIztxTlDdvCqiDtCkDoAzbte8EADmkZoz+jXuBWoIEk4TyaqPk0qVV2jUpuyePqqT8VSGSoNAtYRB3SzMf4+ZO38Tmk0LJoGBs3AwSzCq4qrkVQabnXtR14+hE/KxzJWDYu5DKfw8Q/Xeq0AACKzWcTPT0QVgpYLrO4at17ePKvuJGMvy1bJ9df56LfNhTvxasfaP/q+vx9rsmfbXlxZtWjAXzStYEVc1Z6mo9J7Zeiwl/o28JQ3I3NL4hh7Kbf7u6T913qtAAAAgMCqudOQTVvFGsM/01KVxX3TJhQU9fR4vWdwJ79CtazitQsI+4fF/sCnjDGPtbG8emHQLNpv2A79VkXIgVaeRCD76NG9J2ml35GlmYN8pM9ye/+xtPt6rhMAAAAQWKUhnVq30gCI9R+1vn9+lgrP/eMHlfZOyKn8mPFWNTk1yNzPP3ZksXBjuzUUa+jf1tg9uYzXq4gJZnPksXGdK+9Aq+3+masLbufc3h+Tdl/PdQIAAAACqxQbU+82ZIcuMtY8lJ0M75a6dPeX+/T4Xcuz3GLgBWPtZ7geTuPdDbZDI/H94q/ImF34vP4z6rkVISvDauP0+M17vL6zs1UTStYbfIDb+S8buT4AAAB0DrlqAqteDJlXPZs/o0t5szLkjxjPkuFcllYPs8B6uto7JWZIvDdjeSP4PYuNKZ4wbIf+IsOQ/IdNMto+XrPGfsNac6klbVRVqRokExUBFZreYkk7sRM9Refzp1bKWoUUrX/GEC1+LQ6PJwAAgPZFhyuv+re8DPsQXUrW3potx4RaT+vcxVyC8VIOTy1rOTeoJfTwVqu3y5B/k/XtDtaYM/m/C1R21m4ctoYuNsXih7hyWCyrqkFqQa6rHHXrviX/r7J5SumZXBUfzNzVYu0t3L5nSztv5PoAAADQOTS8VE64qrDWKnO68jR3zlnJa2Qpp70pnppwLllzhFXLppxQNlgAetAsLL23R/fy37R0uGMpN/nnVWXpON/4t1gyh+V012fSmi9MBKBvi7cVrf8zFpvXjaUHy7nCZOvWPc5rZalLdUt81TIilOuALP/jWe+b2vOmZfBaeYuF8uk5Pu+5xpbEAQAAAIFF0YJyLc3RJneF1vrwLFWGUvZg1odPsBY4rZKYCH4GiBfLV34gosYSWkqSbfp/KpriHdrqX5HW39BKbVet/puMJP76+2IzeAaLpD8VyV+YV11jysBSPJXqo4IdXqZ+5LMycWDk7EwV1MOhSqsZlLG1BksVZMxsY4t34pYBAAAgksCKmBjRslA5J09du3OHvUaWKoRF4fd9a97iX39SXUMGIkGrHBlbqEkycF34/LmbfVu41Rj/Az2692ir6EOa1JrNTlMg3iZr7ev8rXcXzPD5lox42IrKxZmNpaBlD716XCkubdgOLVc35W0Eu3M5z+ZX81m7SLgcLxRt4TyuH9sG1/zUUT9HM9fZfWzz2uQ+N1aZR5a7bO0K6gKAVgusoYiJ2bnzfkQZfUFed52YNY+Fp/RZpjTWST+tqazB0Fc9sxDFtfM3Mf6STQtU3IlFzXaeyu3I0malhMVW0ZC9g0XeX3MmdzP//+8jZVcNYoMke3sP9ZY8WDUe61QWriJYx2fvEpElcQoXDNqB/2Yohm4ksjTINNeh1psF+xm2frbrnGUBWUplD1desXUa2Md8JzDLZb8vo/d31AUAaRRYMXUmZ3L/uzfvatOM1UuexcNZwZI5Y4mswJtDmkWH6Q08Q3V13+qhgik8pJX3U/7ghr4tbpVX3XwztNsrrdYiipShUg6lyP++yHLxbj6yO5TWdxtrHh82QwvzKi9CuK7ddeluKvjD5JXW9ra1iLIdWbBeyT9XyeQVYulB/vcsRYoyJrCmOZsSYR/SIR/kTDraWWwzU+rViKO8ZSa6/Yid5ITmdSkuezvXxSQnDuNcQ3BGhb/NcyISAhIkL7DGx+FsMLTAKl8C3i8lyty89i6t9E98W8pO8JNaPsDvd866+jxQrvOW4cNHWPw8wn+6jHfWRcasYSx9gN+xgVJqMu9+XX5tHKuiSa4+7ZJdyPQCRfN5PwVrLN/41BMsEB/Ulh5nUfUYv3M4ioAuvdsaUkqP0G5j8imt1AWZFVdEfPp9CWxfOCE761Bv7jq/KTHvVzrao5yd4zqpVg8hynUw3VmSa8ytM6Lsl7iyp01otVtdTHbtePcE9n1SldeecXWYFY8tyKLAimP5GMe1ytIfWXzsmsUKKg0XWiu96w+JaqsUmXWoSUVNXCqC6FlnSx0q1kom8RVZIOVGCiyJn7Javenp+OPmS8LRzRCs3fFDX+S6O48ou2vEsNi9yZJ/bYYOeabr+JLmqBFeklZ1RNNd597sxXvLHr1L3DGkIU6t3epiqmtXrViYWQTkta5M0yARQKS+M/TRPa7N+gPG+GfxLhdmtI7yWqvTlCp1XjXPzy/FKaleSij+7E2219hed/aa+1tM2KU/rG1kaOx7nlI/ybK4Yt7idns2t9/BuK6FBJGn/fuaJK7KTHQd0cwmnxcpaz/b2S3qgEeKC/Hc7NHCY2jHupjcQnE1ukx7EAARSCzIfZTX5fZeM/6avM4fmMUp+iUlqvTXenXfRtbYw6lGl3gp27f4llSQB0rX6QVqNkEAu2IpUKAiW07l6v38Kt2658daewdayvKEO0UFU7h60C66IwNxV2Vx1aoOSUTdpCY97UuHNysFne9okdkKb1a71sWMFJVpJmGoEETRDdU62zg33uMp/M+rma4s7X3U87w/sAz5WL3SpZwRPpXrNKryUjf5UtqFnOqqIYnqsuVjttFa3yDiqg2ui1e4TKfGfw0kwjopedqflfB3THMd+MQUthcpf78Tms2gnesiTV4jubY2JwAaJP5M7mHixOgnrTXnKk+dmukaU2oTpeh31i8F+n6PqHZXn3SxEs9knTerNINPtUpwLU0MKikmtNUk8VvW1jeUJXn786r7MP7saZJioh0uCuubczyrnxqHjO31dqzznPcibma5/aeZzZywmErJerLavS7SJhon4dIGDeuesBe8mLfAR+JfwB3yPW1Qb+O1552glXcLC5S619RbZsq/8UtiyyX+XHZ5mQS9XZqWxsiXj6deLwsf7gZKq9/lvPzP+fPtIa6s/Te30wtLXsfYr4G256gEPBDTMiAoRguLpDpl1AUA7SCwijFvLuD9NWt88fwU2qLytJ6ilbpZkf6ubfBGIqImr3tKy0krK793lV+ggi242ZwNCq3S0J8JhvtkFzIb0BjSRpXWU6wvB9Yyx9yllPoai6vb+edebXQ9DEv75Hb6urTXuK+BDkE8LJNj2peItYszVv7NKJnh0k6pi/kpK8M8AiBugTWc0DZoB68sGv/PlM2s2JVEzETP805hodHPyuNz1FC+r8BzJcOHpeSfoq5Y/IjAspoFkQglVVp/qCS8luaiGnkYwaLL8h6ryidXSaoBNxS5rE5rNCZIkdqJxVm/8tS5XOa12udSkIzt/hxpn0m1/Q5BhnjimFk4mZKP60oKyd00I8b9dVJdpCmoXHJiIfEoiF9g+QltBSoMGTInE7VXj6MUbaZy+tfcT/+B//tR1i8NpSgYPURYeZgw7G+JitbNefeXeErf6mnvQ214LSzmdnkKt8/hpNp+ByGd6tSI+5hF6QzirpWTKL4A6U6qCxFjafFiTScAIhAa5N6dYAojz6o7ydjLWN4d0m4VqrT6OP/4OBm63tqSS//6jBdpOy7T/lyyfVlFTmjbK8HYS7ld3tVLve18vc+hZRdxnuo6viQ67xkRRNY0ij8TfbU6mEyNrdNXizCKKrI6rS7mujK3WlQeTEjRALIosIJgbv9MllofU0RrtmXNarW7siy0SP3VkhGhdRVRjMnFkqXLikjU6nA+Px8iRSu280XAZX2OrP9jbVWi7b5FPOPEznUUHk+yh3taj7Mjn+I67P46PzeJ4h1eKwuJsXIaTXZ1MC3Gjn2zEWKhETq1Lq5zbSeJJZ+qMd999wzKxpqTIKsCK/GgXEv/1T6drzzv+21bu6rUW++gSe/AovJ7Sim5udzIhX+Yfw6k7GjFdbMRH/P23arni0qrTaltAuXGaIq+f76x/mNtWLSTa+ygr3MmnerZMX7/tAYE1vQYPSjzXflriQmb6757phMBcXXsMyIIrE6ui/toqUet/FM4KabrYvR3zSXEW4G4JUDYTLIvXvf+Znz9at1ez+1aeZtSpjN/10XBWnMbF/cvJe+W9e9SOlfkv5UWU9Y6R8bYkrIZsoOU8/KUs3mXDX7kEjZmOTVXioanICBeBf+Q7xdKSU6tdhFd/DmJlVc6mFHIu9yG//xhFn9TSKmPKNV+LpxqCpiF1QND/uKdudYST4J74R7/XO5vR944tT+Bp/T51Pg6gfK5OGerifeznplYc2MSFfNdx9xopylCIK6UCAc3KLJQF5UezeO48CNw7m79BEAthHqwCk3IpMBd/auezZ/RpbxZHVTneaX0LnyJ7yI3PmW9p/iO8aB70r+TZLhqyVBi7KJTckC8jYLcXdsqrbbmO80GLKxW6tQLoGj9M4Zo8au6kcmf6WU6NR4/IteiDE3F5cnao44OdVqMHpsogqJ8LFIPu8d0PmY18P2oCwDaUWDlKJf4l5dSExBdStbux4Jj5w6s/4ksbt7HIud9LLoOINLDXCUvc13cza89pcm7T5F6wT2BypDiW051LWZbMGpfPWwT3OvjKViYemIplYKiDfn397BtQlq/UwdCizpkBLBKA7S3cF3MzlOeVPvUxTkxdGAznTCKw7NWj8CKK0npyRTPcI8Ii7kUPQ5J4o82r/OYUBcAtKvAinupnFCMLLZiTlee/qATCJ1MF/fza2ul1pb/dFNveR27RSyU3mAR8LLUGL/nLbL6lWW0qgzFKLWae31VRXZl/v8kz8tDSlXmLWvM6TkrOe3bZkmcckB7HEiH+nRM3pNaiMtDEmcdlJf+uTim+pyOuqi7LgBoP4HV1MzTlvq1yV2htT4cp2RktbilbJQSBTCOVdLSxJ5V1jBUY7wOJPzMXGFs8c42K9YMii/ztHgrro+ho59Yo8dijxjrIE5muX1GHa7bow5RgboAoA1oeqLRkM0WbeEcFhQv45SAJgjXF7i9nVtavKmJrTxh5lP8sS1x7W9qTO9pRR3EJVRElEyOsb46pS4AyCyhHqyhJqdsstY+ooy+IK+7TuygGYWg6ciSOIULBu3AI6q9Bk6T6Eyvcx111LibWjrTzWM6XkqoHuIYGpMyzkVd1FUXAGQWHd4NNX9jzmRt9TBOC0hOyZdmbJ7VovadJEl1qP0xdaZjsVmK60CGXec0qR5QFwC0CaEerPGliWhNxtACq3wJeL+EqL3mzYNU4FvjS2D7wgntN5+iP6H9SuxU1DisSWO8PjXldVDed9RZlVNjek+n1AUA7SmwDJlWHdM1ytLntNK74vSAWPW7NTdZ8q9tw6LNSXDf0plGzZ49lkdmUgzHKTPm5iVYD3GkFZgU03s6pS4AaE+B1YSg3MpYGtCGztKeliek8ThFICbeMsY/21h/sA3LNjfBfc9rwvFvnvI6iKseNkNd1FUXALSnwBpq4brE1trbe834a/I6fyAC3kF0FBVM4epBu+gO1Z4ZwZLsULOSEDLp4+zPUHtAXQCQZoFlWyhsgu+2p/A/H2dbDacJROQVbk+nWoj1ViJDQkl6w+ahilEXAGRCYDUtk3sI2ugnrTXnKU99D6cJRBLsvjnHs/qpce2TsT2LHaoMffVXea1TmErVPUCoCwDaXWB5vLW0Uyxt/i/IensqpbbAqQINtSNr/83t6MI0tOkEyfq6bgh4Rl0A0DkCq6lL5YSrrNc8Q+coL3cR/y+P0wXqZNgaf6Zv/dfhCWg51Y4PQ1qoCwA6R2AN85YKLF3ZbfoOyuncjgh4B7UjGduLc4bs4FWoi9QTR66tLJUVdVFbXQDQngKrZWkaRmHIDOXJnMy/bsvWhVMGamQxt51TClQY1shZG4XJGTnOrAytzUNdNLUuAEifwOrmLS14Vt1Jxl7K/eShOGWgNmVuL+F2c1cv9XZCaZMMjJ6MOigxFe0hk3UBAARWNawtBbz/mKXWxxXRmjhtoGp7IXqOrH+WtipV7TijIiiOznqsTPP3pbwOhDi8QvfX8B7UBQDtLrBSEeS+bK/5X+3T+crzvo/TBqo2Fd8/31j/sQ4qcpJZsac24fjjGCpah5LNtbV5k8qJugCg3QVWgbf09ZzFi7psz76e8t6NgHewPIp86z8wbId+2YHtYw+261IqsPojvl7PsV6XUP02ox5QFwBAYLUGQ+ZVz+bPZIE1C6cOVIIF1hlDtPjVDgxsT0JgyT4nxrCfuTW8R4aMNkthHQjiDZoSw35qHf5DXQDQzgIrF/5Sy5BILO42LyVr9yNFO+P0gWUbiL2F28fsPOWpTdccHKtDjXtYaFpM++mvscONQ1QkVbdxcF8d70NdANCuAqvVS+WE9qHGWqvMacrTH+D/roBTCBxvWWNO86ymNl4SpxriaZrONiOm/UmcTRz5mOZTbR4s8bYcFEMdiCicFXPdxlGn91Pti3KjLgBoZ4GVuiD3ZVQWzdEm92ut9eE4hUAwxlxhbPHPHV4NJ7nOOQ7vQFwdc63DVP0xCoA4RYWIlHVi2E9/Qu9t97pIgqQXHgegRGigip/uzRZt4RxL9mWcQsDt4AVuD+dKu0hzq20Ssyj6NHrZR1wzE2vtTKXDuz6G71uH4vPiST3OjPG8EOoiVvHeKJ20oDZoIaEerCHeUt2pWvuIMvoXed11EmYUdjKyJE7hF4N24JEOjLuqxGZO1Ext8CldOr+DYjoWGR68rs7vjmNYMi5PnuwjjiD/+xs4FtQFABlHh3db6d+YH7O2ehinsYOx9CD/e3ZG2mszRdZ9VN90+kkxi6typzyvzvc/E9N390f0VEhdTInpWGY2WHeoi2SYhhsnaAahHqzxvKUeQwus8k9Xnr6kmlgEbYtvjX96zuqFE2gCamNZZHjoDrZLXAfZX0VYycywGRRPfM3ojrle5DgujuG7J7oyz6izU5/sxE1cQ6TPUONDYqiL5ZkTg9irNuN2qnttc/d6P8HjBuIWWIa3jHgwrlaG9tFa74bT2VkYY26y1r8WNVGVg5zNdx3Ffa7jKHciUxL63jnUWDDzrBjFngiLs12HOpOqD1eKmJjuvBsTY6yHGREFKuoifia666DsYd3clXmzKm15OoQWiE1gNTEoNyqD2tLZmvQO/Ps4nNKOYYGx/tmG/EFURc2dypQEBVWcnal07HfEeCzlco8WmWWPxWSK33sn3E/RPTaoi2WZG1MbljIeVUed9bv6gcgC0QVW2oPcR2Ktvb3XjL8yr/NfQMB7J6CoYAq/GbSL7kBgeypp1HtVRj4rs+h2j/m4mi0yp8WwD9TF8gKrVQ8o11HyC2mDNqJt4pa0oRnKqtdxSjtBXqnn+HyfjJpILdNj6pCfyXAdSPuMy9uBulhKKz1I6xAC5EGnCSzxYgzS4HODZtHROKXtz6C/6Fg+3y/Ae9XWnakMW0m80PwM1oF48GbEuD/URToEFlFySxABCKz0YqhIxhZn8z9n4rS2L8aY7/u2cJXJToxgJ5FEZzo9Y3Vwf0KdMOoiYC611ps3CZc56DiBRSVvhpJ4rJOMtRfi1LahuLL2F3x+T6Pm55VKknYJmn0mIWExi+3gDAmKqZTcMiyoi6X1AAAEVgt01oAl+zVjzUU4ve0krsyFfF6PZFk10GZFi9oB3Z+CMsx34ippYZHmIbKkxRXqIh0CC2sYgg4WWAFD1tKXrG9O5d+HcZozzTCfx+/J+WzTcxnVgzWdWuvVmE/Nmb4+y31PGoXFJU0SV6iLgLlELZvkch0B0OECSwaQfGvNd4f9oYOstU/iVGcPY+0TfP4O5PN4oqKsZL5t6IbdaEcpn+un1nk1xFMxmZo3zHmf+77rU3LupL5lYs00ar5no9PrYgY133sbVy4vAIHVDiJLUcEO/8YYs7M15gqLJFmZQM5T6XwZ81E+f1d2wGzBRm/aM0ftY2oTO51zaOlyIs2kPKNuT2ptsPP1rvytXFuv0+uime19PiFFA4DAWl5kMU9zr70fGftp3/h/xfT+9J4rOT98nvYqnS8+bx1yrmY00EHeT8vP2Csv8Jzk8InMFJRVE1o9o62c9PHoJouLcvlF2MxNSfvp1LqY59p70l68ZwhZ3AEEVnUs2WuGzOLtC6awv2/93/GfCmgCqWBYzgefl/34/GzH56nT4hzqzXNUDiIO25cIr3UpiIeJuzOV7+1PUd3NdOLi4AQ7Wulgz3F1mrbyd3pdlK+dgxMQl/Pdw8rmEFegEXKdVmCllF+0hcsVeVcqq95jyWynKbeX0rQ1v9zdaaKzRUg81ZA1dLeh4jWK9F1F8v9jrV/k89OpdVKOqZFO8qAqN/yZzsYamhOPwjQKPE17OJMOsZ7Fe+c478h1lB5vTRiznE0aUVaxRtbVK6/T1+/KnrXOtRProlzmkW29kfI+M6KsCGgHEFh1i6xg4LDIv95rrb2X/zObrF3NGLOtUnotVmEbkC0tHI2YrXirfRHX8xPWmme11n/hP73C9f+maCrl3mI7u8rnOVE0g5YuvDtSgPVT/TFP80Z0PuT2OZnCPWDlxX/7M1yHI8tLI8o6dQxBOtLapT11Wl2MFEaTR1kY/aN+AhBPp8cdHGoBAAAAACBGMBwGAAAAAACBBQAAAAAAgQUAAAAAAIEFAAAAAAAgsAAAAAAAILAAAAAAACCwAAAAAAAABBYAAAAAAAQWAAAAAAAEFgAAAAAAgMACAAAAAIDAAgAAAACAwAIAAAAAgMACAAAAAAAQWAAAAAAAEFgAAAAAABBYAAAAAAAAAgsAAAAAAAILAAAAAAACCwAAAAAAQGABAAAAAEBgAQAAAABAYAEAAAAAAAgsAAAAAAAILAAAAAAACCwAAAAAAAgsAAAAAAAAgQUAAAAAAIEFAAAAAACBBQAAAAAAILAAAAAAACCwAAAAAAAgsAAAAAAAAAQWAAAAAAAEFgAAAAAABBYAAAAAAIDAAgAAAACAwAIAAAAAgMACAAAAAIDAAgAAAAAAEFgAAAAAABBYAAAAAAAQWAAAAAAAAAILAAAAAAACCwAAAAAAAgsAAAAAAEBgAQAAAABAYAEAAAAAQGABAAAAAAAILAAAAAAACCwAAAAAAAgsAAAAAAAILAAAAAAAAIEFAAAAAACBBQD4f3brQAAAAABAkL/1ACsURQAIFgAAggUAIFgAAIIFAMAkgAADAMHJEjWgOavWAAAAAElFTkSuQmCC;" parent="1" vertex="1">
          <mxGeometry x="608.85" y="250" width="51.43" height="27" as="geometry" />
        </mxCell>
        <mxCell id="XNcS4B2B-zJWbk4Hjfbm-132" value="" style="endArrow=classic;html=1;rounded=0;" parent="1" edge="1">
          <mxGeometry width="50" height="50" relative="1" as="geometry">
            <mxPoint x="392.64" y="580" as="sourcePoint" />
            <mxPoint x="393.14" y="600" as="targetPoint" />
          </mxGeometry>
        </mxCell>
        <mxCell id="XNcS4B2B-zJWbk4Hjfbm-133" value="" style="shape=ext;double=1;rounded=0;whiteSpace=wrap;html=1;" parent="1" vertex="1">
          <mxGeometry x="697" y="440" width="263" height="305" as="geometry" />
        </mxCell>
        <mxCell id="XNcS4B2B-zJWbk4Hjfbm-134" value="Controller" style="rounded=1;whiteSpace=wrap;html=1;" parent="1" vertex="1">
          <mxGeometry x="737" y="500" width="180" height="30" as="geometry" />
        </mxCell>
        <mxCell id="XNcS4B2B-zJWbk4Hjfbm-135" value="Service" style="rounded=1;whiteSpace=wrap;html=1;" parent="1" vertex="1">
          <mxGeometry x="737" y="550" width="180" height="30" as="geometry" />
        </mxCell>
        <mxCell id="XNcS4B2B-zJWbk4Hjfbm-136" value="Repository" style="rounded=1;whiteSpace=wrap;html=1;" parent="1" vertex="1">
          <mxGeometry x="740.9300000000001" y="600" width="176.07" height="30" as="geometry" />
        </mxCell>
        <mxCell id="XNcS4B2B-zJWbk4Hjfbm-137" value="Entities" style="rounded=1;whiteSpace=wrap;html=1;" parent="1" vertex="1">
          <mxGeometry x="737" y="650" width="180" height="30" as="geometry" />
        </mxCell>
        <mxCell id="XNcS4B2B-zJWbk4Hjfbm-138" value="" style="shape=image;verticalLabelPosition=bottom;labelBackgroundColor=default;verticalAlign=top;aspect=fixed;imageAspect=0;image=data:image/png,iVBORw0KGgoAAAANSUhEUgAAAlgAAAE7CAYAAAAB7v+1AAAAGXRFWHRTb2Z0d2FyZQBBZG9iZSBJbWFnZVJlYWR5ccllPAAAYMJJREFUeNrsnQmcHEX1x19Vz+yVhIQblSMcAoIKAqIikADiASiXisgVBEE8ICCoiEJABBWEACoKKAECCsopIod/2CAeeHDJIXe4TyEhyW52Z7rq/950TbLZTM/OTHfPdM/8vv152c3OTE9XdXXXr1+9eqWstQQAAAAAAOJDowoAAAAAACCwAAAAAAAgsAAAAAAAILAAAAAAAAAEFgAAAAAABBYAAAAAAAQWAAAAAACAwAIAAAAAgMACAAAAAIDAAgAAAAAAEFgAAAAAABBYAAAAAAAQWAAAAAAAEFgAAAAAAAACCwAAAAAAAgsAAAAAAAILAAAAAABAYAEAAAAAQGABAAAAAEBgAQAAAAAACCwAAAAAAAgsAAAAAAAILAAAAAAAAIEFAAAAAACBBQAAAAAAgQUAAAAAAIEFAAAAAAAgsAAAAAAAILAAAAAAACCwAAAAAAAABBYAAAAAAAQWAAAAAEBbkUMVAABANjnyxqntVqQ+ti3Z9mHbiG1ttufZHmG7ja2fbT7OPGgl5+7WD4EFAAAgM2zFdgLbHqP+viHbjmxfYbuD7RQntABINRgiBAAA0Gr2YvtDBXE1mh3YbmQ7AFUGILAAAACAcMQ79Su21Wp8/zj3/r1RdQACCwAAAFieFdl+xDaxzs9JeMvpbGuiCgEEFgAAALAsn6AgqL0R3sn2OVQhgMACAAAAluJR9GG+/VGNAAILAAAAWIqkZPhgxH1MZlsDVQkgsAAAAICAPNvbI+5DvGCroioBBBYAAAAQYNiGYtiPj6oEEFgAAABAwGK2hyLuY5DtRVQlgMACAAAAAsR79c+I+7iHbR6qEkBgAQAAAAGW7VqKNsT3c1QjgMACAAAAluXPbFc2+NlbnAEAgQUAAACMYIDtWLaH6/zcU+5zg6hCAIEFAAAALM9LbHtSsNhzLfyV7TNsD6LqAAQWAAAAEM5jbJ9lO4LtXyHvuY/tGLbdKQhuByDV5FAFAAAAUoAMF0rQusRkrc22AVsv2zDbk2xz2f6HagIQWAAAAED9vOnsflQFyDIYIgQAAAAAgMACAAAAAIDAAgAAAACAwAIAAAAAABBYAAAAAAAQWAAAAAAAEFgAAAAAAAACCwAAAAAAAgsAAAAAoA0IzeR+8HXvy1RBLG853np1HxlFpCybsTTIW7fqZSWpyPLfh+xi/p3/p3Tp/cb65Kn8SkrZ1Ywx2/Lf1+IXN+DdjSvtFsSF4m0RWfuEteZZrfVfrFWv+LbwplYeFXnjv5Ns3aqndP4MV/+QHaRe3qwOzl/pnNqB0vuyxoTcxGZ8TRebx5YPeV2WHZHKK6SsffeNuB/JcS12x5j0/a+bbTzbZHcMk93/fbZn2N6iIKv4M67uhlLezLqdlesxqWPucvU3sg+R8zUY4/67S/eNoL0OJdAetPuOvPuOYWdJ4o2oN2+5bmzZ67Md0SOuuQ3Z1mOb5K63pX1FUBfPU7A8klx7AwnXiZyPld3xSHuQBchfcN8bv8BqZ2zQr0jZ36OU2o5/7sWiamvted1U9uopKKJkZJboLC+4YVq6m+v/Gv79Lj4j/+HzUkQF1S1KZL22d7B9gG0dto3ZVmFbK6QVP+kEw3PuBvYQ29PuZvJ8jB1kbaKb6OMULN77Uba3u7+JuJLFfK9lu97dYONiXbb12XZg20ruAa6+PPfdqkKnZ9wxyYLEsnzLP9judXX5WkrawhZse7J9gm0TVx65nh5hu4HtRoq+QPI7Xfvalu3DFKwXuPqIepL2cyvb79lublDAy7Hv7drFu9l62BawPcD2J9ceHopYjlVde9uLbTN3rQy48/t/rr7+HtN5WdEJiXVdW5PvW8PV22qj3itt7HG2+e7nve6YnnZCI6us6u5TH3Bt573uQcajsUfRRHgtdHVxJ1s/23+dAIrr/OzBtj/bdiPuA/K9L1KwLuZlbP9p6AZnre0oD9ZiM+h16e7Pcce+h6e83as86YPmMexb/wZui9cOm6Hf9OheAw9WVT7sOogPsW3JtlIM+xQR8yjbg2z/YpvjbjBJIaLwB+7GVg05ppPZfh3xqflTzrZ1QiEqcgP+t+uIr3H11QrE03M829eliVV53zy2H7N9vwHhI2JnHydK16nxM1exTa+zIzyG7TgnQMIQQXs22+kN1teO7rNbV3mPCJ1L2b5NjS8u/RF3jW7jvitKP/O4a2u3u4eO1zNyy9vGXXPSbt4fo9vifie2pI3dFWE/W7m2tO0Y75M2fCbbWeU/nLtbPwTWaIFFSu3FHfPXczq3jcXoX/qcW7wVTfGvmvQZZO11EFjL0Os6OulIN6XArZ4UvvNoPcx2OdttbK/EuP+3OVHywRrfL56Yw9gubqDOPs32NffU3J1Qfckw4n1sFzoPy4KmXTJEv5TbdR2fEZF1bI2idCe2GWybU+AtrRfp/PasURBI3R1aZzmOq1Ms7uqE+oQa3y/euH3Z3qijvUl5j6LAEzc+gXMu3qzZ0senVGiJx/FjbF91AibJ+5R4+u52Dw13NiD+xDu1Zh2fOYntlHoEVtsHuTshtS7fii4nrX7naQ/iKsXnSs4Pn6drSueLzxvOVeka3cPd7EWUfDjhm5YgbvK1naC7zImH89l2brCjHX0DnlmHuBJyrkP5RB2fkWP9k/NEvD9BcSWswLa9qyvxaH2ebVwT2saxdYorcgL922O8Z2MnrG91HVGj53xb1ymNVfdfrlNclctxXB1ekfc4MTqhju8QD9SsGtvOju5BROpt64TEVdCXEX2XAk/zca7tpQWpr1vYrqPAg5f0fWqi+04Z1r2IgqHYWpAhy5/VKa7IXTe71nvzbusOO6+6Pqe1vk1p/XmFyKpMUPI1yvnS+lY+f/t0sMha33Xa19LYbuwkkSGbL7kOV+JTDopw7xCRtHsDn5MO64QaOvuVnHfjRicOms0mrpMVT9aHEvweEUHTG/ysDCmuF/KanNs/sn0upuMUAbhpldfXdkKhEb7pBMdY9DpRsnoD37GbE8zVxLW0tz+4h59mIWX5kRMzW7X4PrWee5C5wT1oNBt5ADvEtdsDanj/FyiIhasXEdrH1CNq21ZgcZfscS/9vS6v+xKl1PqQLRl03Si1AZ+/S/k8nmI7L6WIDG3NGePm3gpk2EiG6iTQ+PA6n9Tz7gbYqDfpw2MITQn0/r27CXaloJ4k0PtEiu71q4QEaL+9wc+Od4J5JF2uw/4VBQHIcTHOeRnC2D3C94mY3r+G90nM3R6NP++VPGxehdc2ch4baW89LWpnO7gHnwNb9P0HuvtUlOs6TqE3iwLvVF8VzfPFiPW9RacLrG6l6OfK099JwY0WRKOLz+N35Xx20LmUJ/MrKAgETyPKeVDknNxUxxO0DM/sGPG79wz5+8eduNomRfUkT7oSoH89xRNYP1IMfTDiPnYeIQrkOMXrdlxCfcK2VHnGuvxt14j7rsXTNoWiBZlLDNqaFQT0jTGchzhY0Qnj45v4nTL8dw7bJVT/UFuiz+VsR7D9NuQB5EMRj1fVcb9rQ4FlqU+ROk8rfSiBtoHP5xf5vJ5rk/EGpIlvUBC0mZXZrdu5jmbnGt4r09KjTqVcq8LfDneC9O0prSOJR/mj+xlX57Z2xH2IZ6nsfTyPAo9pUqwZ8nDUFcNDhEyYWGWM92wU8Tu8UUJKHhIkWH6DFLUxOcbT3MNZ0qzqyn9kiu9Lu7gHmw0r3D+i3ltrjfUKF1g2g5sctVLqZK3UFwm0ochSh/P5/XY2W2dNcWTy5PVDqjwckWYkHuQC9yRdjbVj+K6NKtTZ+TV8d6uRMIVrYvDYlMXRajGINNmH3CuTHl7KUeX4V7ko/BiExVixVVFjb9WI9iXeuKudyEgjp7J9JsH9y/UnQeUfz8B9aSsnBCeP+JtP0RMsj6+n4Ye8kK0cpNKBaZXbn/85lkD7iiytT/Bs/gGyxatUe81ZEO/GGRk+frmJycyu7yTY0dEoT4jE7/yYsjN5RYZIZYr9fhQMrUbt9KMgmdFlOPXEJpR7fgxCqvrtP9rrtfCWe0C4kJKfHRdVzEq+Jkkw+2DM+97YictNMnRfknipWRTELL4R0z5NPSejIn1NmWUcK2tx73s2Vrdpf3q8vjOpaP5CQa6mdkCGSc4kyt5FNwqJjzqpSZ2pxFLI1OzejNXRpBEi648tPhaZedWM+JkHKf1LDFVD8rCJl+xcJzLSzprufhKnl0k8dldmTFyVkRi8X7r7k9/ML86Ft6jsLIUk6wpqlfuOUnYVAh2AXctq9R1ji0fI+oVZIRceoy+xDJu1wYlZwd3cn0nwOxa7zk4C7LN6va/onqpldt39LRT1zRBXIoj/TNl+8pVjlzi/jTJ0zJLsU4Z/L4xhXxL3KjGO783wOZRZpOJdl4z40mk0JQwjVGBlKVO2R3pH1lifJ9Ax8Pnej59FruJ2ekfGiyI37SPa5LT0OtGTpMASEfeTjN/sBYl/usx1hC+14hJq0vdIh/aHjJ+rfMbEVRnJkxZ1aR1pJ+KV/ghlHwlhkPixAjVpElEuXLRkJs62Vyl9NCWXORekkwly3j3rSebswQyXQ56MJ8S0LxnKkCVt/kbBYs5P09J4AfFYSAzJ+k6cdFH8i72Ld+nlhOtLZo19uk3asGQXl5lfB7fpNbrIeQ3exO2qJbyLgqV+zouwj09T4wlt04YMz8tC4k3zpobeYHVWMjgotbfSehdcS52H5vNuLe1J1l6R0SJIosTPxrCfN9yTqiQA/SfbcJX3ek7QSecuKRZ2cE/na8VwHM9T+uPiXmV71h2r/FxIwYLSEmOyxgghKikf1m3C8UyjYBHfy9rs8pTFpSWv1i24U7Wud6RgmHB2gyJXroWzqTn5Bx93D4X3sj3lHpqVE0PaHYvEv23ors9VI9ZLawXWwtJ9J73IrMFePW5CXnUdz//TuJY6Ek9p7/iCHb5h0CxamPZZhROWTwEly8ZEnW4vwf7fdD9rwXed35+diQdFljKR6eeSy+qTEW6os1J7uwhydUnGa1kc9gEaO+hachzJGoay9MdeMZynavzAHdsrbXJdSjC0ZNO+kzoXWShdVjuQ4fLXRvW5azuTh5yk4+De467t3zfw2VMp2WTHIvquoiAT/F/cA89YSBiCeOBlkovMIp6a5kaQqyZg0i6wSMZUVSZnNYD4ntHezU3haG4P38vg0UfNMP1Xtk9R9OnHDzmTbNAyrLAPBet1rVHHPkQgXJKy+pUhS5lWLkMk91F9M9mecCZ5dH7khKekgFkrgeMUb5lkfP9SBtvwItcx/tMJV4lx+Q81ebZWShAPzG8o8CbL8LzEPhWrCIVV3cPNwe5hK6kwl881ILBkBmJScc0LKJikIgH4j9f52UH3kCQmMwNl+azjqTVrIDYusLpbvqzQGP2q0u/K6dzhSMvQ6ViSdtBr+35nrXkkQwcuwdpRpnxLXp6vUHy5XYSC6yTFJCeXTOM/yD0FV+MW9940xcKJd+4E9zMq0lme6zpOWTR4GsUfJCudoAzl3JWBtmucuO93Hoj/dPhNSCYpSKJd8dq9WodQeNaZpOvYkoKcZJ9K4PgkQH2cE8O1IJ2/DO8mMTQo+d9mOEEeh1C72dmXndBK07I9mQ1yV1rljlKk1iDQ8XA7eEdO5Y80tvhlyo7ilmDtyRE+Lx6j+xI8PhlGlCSeskbdnu5pdvRCyw+7138es9CL2vnL0MaP6uhQ6vFQHMb2J7aZ7hzGxUTXSfyDqsfQtZpyrN8tKT/OZiFDW1+jIHYoCjLbUoa8jqJgqaw4c+KtTIGHp9a8azKzdUrM9SRt5Qfu2kwiB1R5SFqSrO6clsaRuUzupaFBpaYorffFtQ3KaK0/r2zu12TtnRnJ8C4d6koRPn9jk45TZgWe74SUPB1u4O4b4rWQGIrXU1SnIvJkRvGlCX+PeG2eZPuF8zzExZ6uA3o4he31fuch+D8IqyVc6tpbnA8XsoDyC27fcSXR9dzDUa0C68sUb54oGS4Wb/tFCZ+PB9019H0nVNMrsAZ4S6O46tY9Kqfy36ZgiAWAMiuw6P520RbuHDKLKY0iq2/ZEIuVIz6lNruTe8t1/A+n9Pz/j4Ip6bc16fvE4yDDer+JUWT1uI7oKymqV+MEtoirBbjNLEFimiTFyuIE9v079wD2ixiFjqzLV56VV42tKV4PkAyFfqkJDz1lxGv9ddduj06twCqGxua18ko3lKeeA0mpnRF7BZZDqY8ZS/sXqDA7A2lGot44cQGMvF0RHdBEcVVGguBloWQZMoxruFDyDp3oBGOrkc7qOCewwFLEU3JYQuKqzCwKhukOiGl/qzinxPwx3iflivPmeUwTxVUZ8Zh9yz3EHtjKhhIqsPLNSXRabw+6mqc8LOYMwlWL8o7rpp5bWX+82uZFlZvvb3DGS0JTnlhbta6fePQk19A1FE9QsKSDkGGOi1pcry9SsF5iP5rYcp33Nyj5hLryPTKzVPLUxRG4vYrbTzWB9XaKN/ZKJob8vEXnSTz8X6UgpGEbCKwa0Mo7VCv9bjy8g7C+1lP6vd2q+xBj/dPbvLAyPCWB1o92+Em/qoU38TKyFIzEzhwX0/4+1mKBJbF1Mtx6J4HRXN5EMf+k+75vxrCvSTT22p0fYFsnpmO/h4Ice61EhrQlnuxWSjaPXf0CK01B7kFgO21MnncErm8wForbiefT1dxsHstIwHujN8zZriN8okNP9Wuu80lD0LXMkJJcRu+OYV/vd0/erTivMtx6DMRVRWRI8Owmf6fEYcksxb6I+5EA0Gpxy3KjlHQOcXlWZP3CNCTOlckZP6XAG5gegTVUV06+hA9S5clTORkGWBPXOBhTYEkySOUd41PxS0WbnglP3ctOCpIhzIUULbmgBK5KIswjKVh/sNOQGXfPpORYZCaZpIaII95EvAhbtEhgiSduFu4iFZHUFA82+TslB5vE+EXNjyVxVStWeV1mNH84pmOW5L43pui8iSiW4e4NIbBGIYHtfSq3vafVgRgaBLXfTtRBvrGzB+3gXWkJeB8lsOa5Tjlq9uat3I1f8r+cT+2z3MpYSAbotGWOl+FKmbn0vhj2tbnbXzORhdO/i5tHRay7zlox++sPFE8C0moeLFkS510xfEfB3YvSxAL3MNbsYPv0Jxrl4+jmDlLcjV24xkEd9HC7OTFP+d0onXl7JGnlYxSsSRYVWbxZrpHPuk75l27/7YwkFpyfsmOSp9K4PEAyXV4UebOy44twmE7pysafJmQ4ulVe4gfcPSxqH1jNQ7FpTH2sDC3fm8Lz90d3v22qFytUYHWlRM94yttHa287eK9AvfeSnPamaNv7Wd/6s1N4gNKRSXzAR2Lc57uc0JLh9GvdE5sMabzcZif3eWrdrMGxkIVr51K0LP2CLE+0YhMFj6wLdzfuG6FI8s9WLcX1intgWj/B79g2hn1I7qnrUirSX3cPn99JhcBqdZC7C2xfVWlPMrLmcX2DBuji9jPdM3QzN6fXUxjwLutySVLJnpj3K8OOBziTp8nbKYjjkPXj3mqD8ypC4MmUHpvEhPVTsF5hFGTWkywF9mITjlniAX+C20VVJBaqVXEzbzRBYMUxPPiae8BIK3IflCH8cc36wlAV5bd4MXRNHneH+nCl1Ba4tkGjcPvZksj7oiVzeqvbdG75YXe5Gf0rpqfHMN7n7Ah3k5bvvNKJlEUZPKXiypaEosUUH58s2CyLZEdV9OtRMN09aUR8P4y7RVWebeF3SwzRmwl/x8Yx7OOZlLeje9zxvb/lAquVS+WI96pPj18/r3Nfw9Bgxfr5l7XmH1p5r5X+b83KfC9/D4uJKaidCiLL00cVTfHKAbPoqVZ6sVZYfthdFN8PExZYZWSa90bOJFvzUxS482Wx2nvdE3oWmO8ETJqRmBmZxLBixP1s2JTbCbxXtdBKj6mco4UJ7l8C3MfHsJ+73D0tzfeOdAis1g+nKFkuYjVc1yOuMmMfMOR/R6nc3b7xX9We5/5uyGo9Sfv2A6TUMUqrj6K2lmF1bk/f4Tb9hRQOE0oskQwV7tLk7xXvyDHOJPjzz2w3OG/GQIrPpXjd/pvy9iYLYb8ag8BapwnHKh3OP3CLGJNWxhWJwEpyqFiGouOY1fb3DJxHGTE4qOUCq5u3VqGVt2NO5/aC92rEFWbtLK6No/nnPFVZI8gT8y1cZbfxe05QSsmC2D2oueD+lNe5vZUdd5mx/h0pO7jyulmbuSfJVrChs/0p8GTJYrOSAkG8XCaF4sVPeYOThJQypLRRxP28vQnH+tsM1GcaaPWTWZK5ZiaXuvzoIvDZDJxHyS0nqSSaEtedvjQNivqU9uSpejyu6QBj7aUsmr6sSA3W9nb6nuEfntInJ3xhZokVtPaOVoafsmzqZrmIaJjuRE1fC49DbrISiyEzbWS9NUkYKLPL0iRK/5uR9vZCyjvVcqf4J9waOp6uGASkPIhlIY7vefcA1BSBpcNfaNXm7aWV/gTavLsDGnqIrP0qN//aRYEq3Tp/ZIztRw2OaNNK78Lta89WtewxEK+RBKKnZQkFuenKMjw3UxAUv2NKjisrsyDjyDC/bsLH+HRGvA4g4Wf4GPYxn7Ix5CQCq2l5EUM9WAsTjamr9ChlqVePm5BXXcfz/+B1WaqwzlTWLlDl60BVV1ZG2fKvw1ynp/Iv21c7zx2Gp7R3fMEO3zBoFi1sdjzWBJo41lsudTcpycg+LiV1JkJLEphKwlYZTpKMyK1c+/CZjLS1OITgCgkfo8yqegm3hY5nNYruLZXrspCBskooTdNmIOtqgqfZG3Ms93mboL27c2BLwce3kgRdOVNKl86OqnjOAmVFdondYaz9O2pyGQ0qi/Ee06L2XQuXOTFzX8pqToYuJThUcskc0uIbZBaI4yEx6fi3uZTedBeguQIr7W013l6gSaQmyJ2Fw7tyOncYAttHKibzT+6Yl3nC1LaUlmG5atJ+ILGUXa4p3Uqe2haVuVSGSjvrtX2/5Xp8JKUH2c+2K5vMpD08Zce2FttFbFuyfZOCHD0gmzyJKgAUT6eLjrsegdXkIHelVe4oRWoNnJKyLlI0RMPPLLaDttJQlnhE8v4w9alxLKpUlfat/ofaXK5u35FT+SONLX45xTcGmZb9JQqWd5AFeLeldA31SryYLOcicVrPN/F735GRZhbHzLwkb8LiuXoNdwPAPEqBByqK17WPKH05cCqgKQ0erOYtlcNSQampSuvPo52Puruq3OIe3RveUkRYGVNLgwKjK4Xbm7K53yhr56T8vnC7M4mDOpBtZ0rPwuci+q52IuupJn3nKhlpYivGsI83Ejy+eU0WxiC9xDFMLClJZGbe4pSXdc1m3j9bmsldvDDdukflVP54khhgsEzd5FVpq/ImS8ZHCpsGWYFF/fFFW5gzZBY3JbFuX7TMI+LJkszrWzpBs29KxMbWbGe742lGgtK3ZaR9xZEkNMkZfgoPXyDGh3AZCRBvQNpDBlalJq5tnAuXtMnHPhre8tRzICm1cxaHcKVTLgcvW4rfDzJ2YHTL6myQtd2QUjRpZB1k7wSqjxlL+xeoMFtno6+R6cV/cyaz+SROa28KhurWbuFxfYqCeLFvNeG71stI61ozpvMNQNL8jwIvVhTPjgxnywS1V1NeVkmo3LQA81CBlW+KyFOr5ZR3XEYb5fyCHb5KGf2IVrlXLJleo8yG3FHvqJTaqg0vwoK15loWVncqpZ+21i7k39f0VWGLnMrvzuJygywWStpfN/XcymL11Ywduhzvxc7WZ9uJTdrdDtSac3Es2x8oWHInSTalIN4jzcv5SIqNtWLYzzMEQPJIvGchosAS/8LmFEzQSTPvJmpegHlLBZZW3qFa6U2z5r2yxl5uSf1g2BYelHryXPsyxpd4stVZeHxSa/UD/uPK7XD1cXn/Y6wvHej/KVI+uawRLLJo2Axd4encT/gUHqG0+kbGSibJR9/brboP4fKdnuFT9KSzCyjwZImXZyrbZ5z4asYTm1wGM5zQS5I+96T8rxSfj41iuvZfJQCSR+Inhyl67r3NMlDW9zT1AT78heSC3EtDSoo2Js87IlvdsV3o+8XjNemfKO252XvL8Qr/9SLjF//M77leKbVRlq88PlN3se3DZX+xUpyS+9tctm9ymf/JZT6XRcvbsjRsqLgdej5dzYf8mMrERJiqPOtMniRlGFE8Pp9wJmIryVl4H2b7OAXZ35NCkm9OSbnAeh/bSjHs5z/o+0ETGKB4FiffgoL1b9Ma6D6Z7V2pEFhDCa7YkVN5mSEnHpE1s9MG1XNFUzi0aIdu7VHVl4tTQbLPR5VvD+bCXst/Wj2T4srYl3zrH6pqWsldEb/3d8P+wON93oQLlNJbZ8UzqWQ4R3lf96l4eNEmF/bSTb3NLprEVdzvTDyq72Xbhm13to9Q/GkfxFO2F0ly3GQTD8rsxXMpnZmjtTu+OHgcfT9oEpLYOKozQJZ2+iCld5jwQ5T88lOtFVgS2N6nctt7Wh2QlQ7YkL2LrP0Sd8UPVQ9lV2SsT4N2UfkPf8v73Vd0e91HZzEQnI/5bGv9R0sB/GrsIHARlixS7i9af7ecVZfwR7KzpqRWB/rGXjZoB+9KKuC9BQJrNA84u8TdTPdjOyDmBwDxYslMvxcSLMd2FLj670lhS5LYqykx7EceauYRAM27N+wTcR+SCWCnlAos7R7+vGZ/aUW8hLY85bu5AzuJ0pPLp7rIsPYOtv0CcVWzMFnykz97lbWUvWSflub7pnBZIIKlHH5JPJaCr8aUWfQaf2JvFqYXZqjEPdwuT+T22ZVU208Rg+6JVSaYbMwm8WevxLTvd1LyyUAlvumTKW1H28b0lCxDoG8QAM3h3zHtR5b5WimF5ZOhwd2b/aWhHqyuhPSPp7x9tPa2y4L3yvrmKhYKh5NWtT1JspKSjnT8iHxH/Pl7iczTLDwyFfDORXlI69xyna5SNccoDbK4nG4UeZrUF7KgKHPam6Jt7z6+9S/roBurtO1vs/2O7Qy2HSPuL+9uZv9I+LgPZjsvZSJELo644krFo4A0DaBZSDb3/1H0yRkyk3Aq2zUpK99R1MT8V2V0uPKKdys9wytvVaW9lhS0XowxvzHWn0Y1uOmDITQWj16eFMsJLugS4/8P8YsD2bve7H81eZaNRlrg0KpZHA+wyPqKseZXGSl0l7RPbqerSHuN+xpIOTLcJjm1boxhX81YzmYdd9NME3tQMEQaXe0T3Ys+HzQRCXL/Z0z7Op7StayXxIXt24ovDhVYfsxbMHTkHaaU2iL93ht7mzW+PCEP1vbYGgyjtcEMtJF3+F5JwzDayJYC+Pl3RTWmVl3MnzrCZmS4kNvnltxOv1gK2o/9Gkg98jAhMVkPRtzPO5t0vNMpmLmUBiaynRDTvh5juxt9Pmgi4gS4M6Z9ST6+r6akXDKrUUKSxrfiy5uyVI7EIvXp8evnde7ItA8N8tH93VjzRaplqqnoC1kL0JolcVejRRb/vVt5uo9UtsQXl2PLQE0tPWFStgINB/FEtq4M7sPG2uma1CSuhs+kvuyePqpoilcOmEVPxSmaV8hG2KGIrB+xXRrRA9MMJGWDxI+J521hi+vtaxSkZ4gDiY97gQBoLnewvUnxrKMpXqz/o9anGjmUooc9NIyu0sHGuvEeZSmN1dKtrtQT1thpfKzPjKwHWlqGJcLKsqjKGxk206WZkbKJ4BBhumjJtpDlSHFzruZ1s3alKU3rciG3LA0HjrBhO1QKdpegd2LzbZEKZniUsBxZX0tsgKvnMLY/Z6D4q/Pxfif+ayAz/J3trSTuKwnwUWrOEj3VkAW4vxtjuW9AXw9agHhNH4ppX9LX/5CauCxNBXZyD4ste7IN9WB1x1gvWnk75nRurzR7r1gczfdN8XCr7KPlmXOCyCbx1hhJwUB+kIqAhYUIjR7erNvcPkpDQaVYJWVLw2hKqX2VopUzuFpfnrT+mjXFg6RcklhVvHDK18sIKWHIDnKZVcmCOisGdTIqVovrcB7/7QseeXdopVOcA81SXuf2VnbcZSwm70jwi8SVXk7OJ8ynYDbPgy2uABnPHHAeokZodszhCc7jc34L6kqyyv88xpv402zXoq8HLbnxBQvKx5XHTdL0/JiCWMlmx0i8x12XLc2NEyqwYptWrqiPO+djqEVjoLUdoqKCP3zsgF10+3LZ2ZdqLVdhOVpsB0pyooJIK4VGj9PjyVelPIsfZ9FxQFYXQ1aa9rSmdMFdO1b9LWaRJXUj9bLYDFYTsk90U88Bvbm+6/n3FVJc/BW09o7m0/h3PujBmPc92Xk8dqPlvbrPU5CoU15/sUVlj7p2+bMtOOYzKRje/HUTv1MSt15F8S5ALfsbJABag+TIk/QtceXG+woFs2GPaWIZZKj+ampyUtFK6PAX4tq8PbXS6U446duZZO1FtQzziIfKjCGYAkFlp2qlLuGPrJThi22C9rxfklI1nb+CS6w99lCZ7bfGnEwpHzbjdrtLqf3GdCU41nNPiV+gykPma7rX/kpB/EArnsDeRtGG899swTHL8gqXu86hGUOUWzgxF+dSWOLBvJAAaB2vs82OeZ9Hs51DjXvE62HXtIirwCETwsKIMaMiMnr1uAl51XU8/0+ntTX51vzNWv9kE9PKHs5bdRB3zmdTPMGCrUWpFT0vd6MxRjwqMqYe6uqtNc5I6qhoi2cpq7eWvGgpLr2ntHd8wQ7fMGgWLYwaRzWBJq7onhBrWRR1HdfZSvZhGfr6fRPLfQBFU78Ptaq1UhBzIZ4laa9zE/oeyYB/hhOicSLn+0n08aDFSDs8kG3VGPd5pLsuRWzdl8AxyxC9DEVKrHdqRst0tU4w6sYcy7e8TVOsHuYV/KFvLKKF84ZpOI5A5D4WlKeRVrPaQlyNaCfM97l2fsXnNVK5pI6LvC2yC2mxP3AcN5On0i0w6d387zExXQ+yEHK98Q3iPfwt2x/ZPkbJL/UgN8HPR/i8JCt8s8VnbX8KZjBJJxFnzj1ZBkeu7UsTEFevuH0D0GokTchFCex3qruPScxkXJ557fZ7u3u4SlUoUqjA6o649aq+d+V07rBUB7Yb80Mic1c1QVkHvZ72Lur2uo+njMZc1SA2DuzRvZezSFo3+q5K23Nk7PfSXWjJ8J47jNvzxlGvCebTDR5EtxNncnO6iYK0BEnMyJ3M9kuK5sqXp9NnU3DiZChWvIUy1PqZCE/jImjF4yi5dCQZ60GUzBCk1PtDBEAabnpEP3NCK27WYDuVggXoWR80PMS+CgUL1l/vHqY+nMaKTCrIXWmVO4o70DVS24Ks/Sf/c4Z2Gbsrea/K3pZaxJXS3sVK631su4qrcrvQ3icsqWuM8WXo6ukoAkvi2RbYt2b1mnGfzOv8XmmtOz7Wd+RU/mvGFr9K0dTz5pEPJUhLICZr1d3hbi79RJFXZxfRNoPt3RH3I9mgF6To9MlMTQkcl6V77nTHJ9PRn6l2PbNt6m7asnCz5NGZmOAxyrI4P0a/DlKETLb5vntISQJJRvwLCmb/3uYEl1wHMoP61QrvzzsxtoW7j27D9oG0V2Iu/IVGM91zN6nUFBYbn09xuReTsd+SZE5d1FVx3UURADJsKIHbYwwdjmdx9Sut9Wc65crjc7u5Vupa3y+IR+aJGltF6N95+ya/ur17KkklfH73VzZ3lbJ2ToTwpDiHlbZy9mUKPEZ/cUJLPLIym05mohWqCELxiomnSoJCZUhte4o+nCaBmzem9BRu7UyemF6iYA3Dp9xPz9WTlF88Xyu7ttiM9UMl+PMbhIWdQfqQNVll+ac9E/wOWVZrmvtdHsxedz9Hx/pKKhuZMLZ6CuqlZu9TrJncpavs1j2Kn/Yli+uEtLYaY8xsY/3+sL6n7Lka4q2auOLy9nHHe6HqIHG1pI6U2kzr3GXcPXyM6+Gtcr1VahMyg65nSaqnCq8besLa4hnK836Y4iKvwOf5+KItzBkyixuK1+uj8S9RvFP6hXEULK4sdqj7m8TzSAZlSfPwtBMV5az8cnNYm20Dti3d5+P0xPwtAw+VaznbLAXHI+klbkFfDlKI3C8kKF282s1Y/mpCmnXDCGqOMQ0VWDUOjY16FDP8CNhzIPe+H01rHBJ36K9wJ3mWLa1xEy4Uq3munNfF08q7gDvdz3Xq1edp74MsGi5fbAY/yzU1WMlLFeQGC7ZqQ4A+mYs9q/dl4bZ5agus1MeMpf25bczWjYXh/CsBgVWJ1Vv0pPcD55FJErkxyTJW49vgEpJ8Z6ejHwcpRobSj6BgdYG+NijPaxRMQIuyGHXNE7NCe4l8A1s39ayWU95xqe0fxTNlipcP2oFHhqjyNsxWzudUUVTw1qN6qVv1fFN5er/OfryxIrJ26/Mm/LCXxuW7qYtGm3iuZLg5yB8Wvlnrv2aNL7lShlPt/uD2ze181UauD4o/v0yamMN2cxO+Rzxy32qD+nqUTdY8nYc+HKQcifM8ug3KIbN/r6LoM7F15Dc2JLBU96Fa6U1T672y9JKy6vvVk0FWHRJkqVASWHt2ed0zcN2VHTv2q6TsQeWk98uaHeF6KJbi2ipvBRq0g7/2rX9fetfts5J89L3czg9pUGDJVOLr2rAJiMv8m0RVnkziQ26OP6UgcWFWeZmCFBLP4u4BMsIFlG1vq0xykTxZq1D0DNfP1fxAHv5C7R60UieqaCPyvCPSXMNFKpxnlH2jW1VOwSEd+5BdHCxkHBJPZIjWZzEx08abXyfzGouVx4+Vr+/hGronvGf0xhp6HfJN8aycl/tNqgvL7dzz6Ro+4MfqFIOL3EUuweU7ttH5lziiu5v0XeWnz+9Q4Oo/MGN1JfFxn3U3/NZes5StFchByxGnggTTZs2bNZeC5MDiLY5jotH/IgusoTpmfedUnjyVO5aCZT5S+9Q47C++dqxZgarKfadHdU/wdP4sq9Ta1ObpGOq+Wyu1Qs7Lzyyawu7WmjfD6jYYLixWrGMncK/NU/cTKgjCTqmapLVZZX2dy3F40dY+otkd5NYTr8VuTmjJUNfEjJ96cbm3YnKCzFiUITZ5Gjo4I3X1grvR/zkmgRQFqbdCO9x6KPnku9Sk72hGXUVBbnZfdwLj5IzUiayMICtTyGz3jSnI9RcFmdBV84xfXU1g1bIN8uYruz1pdUB6W5WigilcXaTio2Ovk0dh3hWJMds7r/KfgrgKrejtuA4Pq/YWGSoLorNCt2HfL56R+rJqdSC3+22l/dd6rYxAUihIQLgkD/1Dhs+4rPl1CFVZPilh5IYvucl+lYG6Eo+VeC3nxLAvmeL9WgwdxYtpuJJiEIpj1UVUIWCp9bFycYiZOAS11IXkx5pWjyenhdcc99dLZjZvEoMTSNram5Ebt1fjxh1mtyZ9EgV5dVIJt4i3jPV/zcdp5ZgbWag3R7m1rVKnWYir6g3Kyx2TU/mNcxS+icjyVC7USBLP2dLTfprp4XZxIpelq9ZrpQJ/p2CtQXk4eTRjp1oWOv6C8yS1kgEnsk5OcV1dzLY7xZcZWxaFjhq/tTAGkRYVcWW/GnEfMuT68hjvibocl9z0/9viuno+BnH1fIzHIxN2dqFk1hWMg+vcNffwiL99IAZBP7eeB5PQL+uqcetVvfvktLddupfE8f+Rs95f+6iPekO2SjPgAgu8Lb163LeUVm8jMIYTi1bjlnCi1YrCjDxNSntVTD9rlPl9uksqS+h4U7j9f7bWa6WKF0ZuVpIE85gMCC3p3CX+aX/nBUkD4hGcQcEaimkS5s86EfqFGkRAPSx24jzq032rZ+xKp39HxH3cVMN7/kTR0oc8mQKB9X8RrzcZIvt3Ah6iHdjOdddgGpAHLlnr8NOjrjkJxdg1hv0/V09ZQwVWboyt9EyuvFW5Q5RYklQHfFuJE1HaWqWokpXSBBBR2Cw4pfSHWFylOTN9ukSWp/e1irZno4om7+FflAk1n3x1A79xIOVF7ZL2z9fBKp5bcqnaNgZy8zybgiUgJM7hLyks7xz3VPh9Sj7fVSOIV20ntitSIBwuccdycULfMZsaH+KTyRZpmYX52wherEGqLfXJ4xQthYgs6TLU4nqSJL53Rvj8DTGL/DIydHqUEzT9Kbg/yZJfp9HyYQvvp2D5q6jUJbRDBZY/xhZENnmHKaW2SLmn4c1FZsFVA3YhjbZFdgEN2kUlgVXl85JQ9Etc3qwHIzfTiyUCSqbth8YNWMXS1RarWT+/47HUl1Wprfg6+CK5tRWrXzM1IQGUZ7F9koL4gStScHOXm8ohTlzNSfkpEQ/gAe6G/0CTv1tOssTUSWzdNKpxGakGkXxgMxv87I8oPQtLP+YeLBpBROK9NbxPhkNPp8biqGRCwkUpqSuZFPNKg9fE2Qkf203u/rBfC647edA43H1/mJA+JobvkQf+ujzHOnxP4dsi3nxt1leePjLtHaC1dH2X7pnfpbtpeeuhLtVdfVah0ltqrfdAYHudwkOrKVxlOynJ4BFm3Py4fsNskM/dnzNRVk8fxdfDenJdVLtu6kQCKX/vblgbsn2NgmGCZ5pULBF6sq6hpF6RJXUkkHx+RpqfPDFd7Z5a5fjvdl6bpHjWCeGPOFF8e5PKKZNBzqvzMxc7gZUmZMLHzxoox4lUuydV2rJ4hhfX8R2y8sJBKWr3Ioq/WqdQlLX9vtSgMKuXt9x1IGukfsaJrtcSvMbl/EynYCmfC6qcJxFeO8fwnc/XK7By4V6IsWZ0Kmncq6Xbk6Jo0AzcIB6qSqWxJYXZRTmdqyafZGhwBUimeuuexrFMOoCMDY1/KA3B2io1b/0rSOe+QtEDE5NmdS7xd7i9fSGhJKnSgf/EmaSvkGBNWUdvC3dziWtZnJfdTUtuIhIb89eMN0OJMfo5BUM8coOVoNypFM8ahC85ISVDudLGH29RGb/ujkVW0FhxDMEugky8o0MpPFdHug7sW2Pcb+VJRTx336P6Z8X9ynX4MsT9njHe+zsKFuF+OmX19DsnmqT8247xXnkgO4Gal6OuTMEd5+/cQ84OTnRtH/FeJf2IeCxlVmA/BQvLj9WWRaN8l6ItjVPmb/VeO6Ff2l1lUqBW3o4sSvZKu1eHO+/Xubt7MOjE1ajO3UoMGYurfGgp+D2rsEiYBrnUoMhS6pNFKm5syTwcVsNlL1YI/zbGPqW12iDdJbWU17m9lR13abCIeKI84exyChZGXc2ZeJnWoSDPi0zGWJett8p+XnAds+xLhgDvpyCA88U6n/KzgFzitzqTG/w7nEgVk0WyZSFbiSP1Qj475Dp/6Wzvczf3Z9z/W30TlM5Mhr+uoWBYUgJ5R05Fl+MUb57kK0vzkLvvyiGxQrK+q8TSrDHi9addGW+i2oYFwxCv8D8p8DTKDF5Z+7RrhLdHxMhsJ06KKa0raX8SQvBR5wDYbkQHV3CCX2bRyXDZghYf6z+d5dz9aU1X55IyYUN3n1qhisdorjv38iDzqLs/1eMV+6a7N8bB5fV+IFRgeWHhM4p6lfZkPDP1i61yx97fRd1zu6o4FSRze5h3K09dn9Pam4jUDA27sSZqrT9hrXo4XITpksgK7zzsbZTipKMjWIHbytHK8A3aNm1GzQJnT9LSXC9LnoOoemJBQ5057v2KM1lx4Pwlt7ugM1+1Qp0UnQBNe31J53M827dpWY+vn7Hz85DzOJyYYDnEU3uBs5HXSZauiXlONI9eW89S/BNQVqIgSedKI75bztObdeyj6O5TYnNqvE9FPR8SNzo9pjqQB5W6Z+6GCiwd2umpT3On+IlMPLYa+4C1JtSNLMkffeuHiDNLXV5+L6ikqBpL81O1P7PyDVIW3x6usri2eBlzt/XSuCOyIHK10rva0lOxvTwFh2PQ+urynrxAlPrca7U9V2ZPVLWyHKZN2m8yt+9AoIg3UYb6ukaIJREbV7L9kqKlaEiq/mV1h59SfOElv6EGvIGhAmvhqPyB0sH16nET8ip/EqU/JkZYrLS+N9w7oihnbWgFsMDcVKvcpvBeRbxCtdrEFEsu2n9UuodK2tEi3x8q1XMQo0WPWWvn8emalIHietzmZhRs4fpBs2jh6HisCYSJqACATLAy2ywKlvWqpBu2dSZB97IWqaTbSMNkADk28eSKFzSu9FGvOYFV/0N3+OPD8hvzbaXU+hlpIC9ZYx5ko9FGxtKwWUzcCdJiM7CcDZqF5NviTprUarjOIsNa1dt3yRKPo0zSNfSqPupT45ezcWoC9ag+iQu6LyuF5etDhjOPD7l+AAAg7Ujs5uwQcTWajdgupCBGSlIlbNLC45bJK5IL7xSKNzfn1Y32QTUHuSulN8np3CGZ6SisfYn77mfD5KPEmI0LDyPLecr7EDrFuESH3cY3vqKQ8XRbPQ/ZW9rm/qtVbmoWwiNsKcN77pBe2zfbWvMIzj4AIGPsS0Eut3qQJJ4yY1f6XJldKxNKJCdcM1Z7kEB5ibeSFRPiXm1F0rs0mm+u5iB37ancNxXpVbMSA2gtPUhah/bcnq26duYaStH7cJ3FJbD0Wp7XJUGSoYLDhIbKKTmXT2YpHpuvk9VzKv8NY4ty0SMWCgCQFcTzc1SEz69NwWxWSfYrs5T7KZi5KbMzJTg+rmFEGV2SGcCSp0xmVK6SUH2IaGx4+bLaBJZSOyitP5OlTs4qquo9UNZUUwRrkFIb4FqLS3CoVYu2uIVPxUfC3tGtqq4V/hg3vSF5W0ZaH2t7/Vllc5eyOrwDLQAAkBEkBCiOYT4REJKSYX9nkupEMrxLig2ZVS4zeSXlwv8oSGr8FlHohH7xSq3kforJuq1T2NZLuC4khc0Po+wgVGAZvaSsWgdJRXsz1EiM8u3jY3WCVdhM8nPjWotLYFGOxdXGw2YwJIEtKyfdVW0Xr7LglVkX3Rkqdh8f80lGlZ7gbPmOAwAAKUYmEyXhdZd79/udlZFZefOcLaoisFZxx7VKE+tBcgFKEt9Imehz1XpFx/5Kqe0z1kiKfF7mhpctWOS5msBSuNBiQ+KSuqlrgy6V12EXrzV+tdUDniSl/8fnbeVMCcvSckFWlrqZjVYAAMgABSJqVvc3wdlaKawHWbvxhqg7GSvdwkRN+msZbCSGO7fH2aiiibiyOsz4H/1OXGdxqw21Dlf+iiRZ2ytYkB0vdJtnmxMsGTvu+sFSSwCALCBZ04c7vA5kiZ9T47n/h0oUQ8rYXbIY7G0NPW6VNlY67oomIovCzFNk18Z1FrvCWptrfZKiypvWOdJeqBVYFA9mstSKtuTr6ONyPQEAQMqReKg5HVx+KbukmxhIVGApqzzu1CRjexZDRwaWpB6qYCooYJhppdVkXGexM16WWQrLhxUoYxVq1tinMlpuvo5oF2WVRhMAAGSAH1H9C2m3i7jaz4nMWAi96fvKX0spvX1GK+plCo1it+T7RTLhtgohHjl2WGRMZJtUxXM41h4WZbfs3vZyPaEVxBLbAaEKQPJCQwK8ix1UZln2RxbOjnW5rCqr7A6vryRuJpPYF0oDhRVdWMFdXodv0hHmcI3FjzF+uLA1ftuWm6+jdQs0tB5aQCxrpr2GagQgcc6jYKjshTYvp9yTJPO75NN6Me6dhwqsXup7X4YzmeeqP0arpJ+yQUXda9e3lltVY/ZkZost63jSOCSuJfoPRZ8CPhfVCEBT+BXbB9i+x/bfNiyf5OOShaxlfeWhJL4g3N2u1RadKgNwXSWDIj0u3HNYdeKB2KJMF16rLdECSufwsYj7eBDVCEDTEA+W5MH8CNtX2P7cBmWSvFsyS3AntusTve2Hywz1DrSt1mKMqRYrJkvI1BK8hOlrqZDtuJ4YSRZ7XcSHn+tQjQC0RGj9jIIFoD9KwaLKb2SsDG+yncsmD7vfpSBWO1GqDaWthDbV8l5Z4sFUML2x3MO4WDIbeHxKKSes63sqi62+NBUowmezPnSL6yk4/zLsIIuyrtbA5y+kYLkNAEBrkHyEtzmbzLYHBZ4gGfF6e0qP+R53vBewNXU2eqjAUpo6Ndlmajpypb1Nhs3QiobMGxI3JuJKBtO6VFeQvqAktKi0mFFJellDo+PmtM5tnZ7e1TwXHtcnQrFq1a+VZYXVwdfTaGQJqxPcza6eUyoxICdTPIHyAIDozGWb6Wxztq3YtmXbgYJFn1uJ3C9ud3YntWhyTDUPVpZvZLpqN1991GyRR568oeWpGrj32apoC+9i+0tZYOV5U7qrokwRgRWUrfyqerunch9JzUnR3v9sNd9GdVambANhsJSLKFjb9DSS/GhjczfbwZTALB8AQCzc5+yXbKtSsPzNB9mmsr2XbSIFK1rEvaaxBKcvdAJKvNt3URAn9iylYAizTdMRqE2cQPIryZZSykcbKrKepPQEuneNU+OOKtihvwzSYhrHW051lYRUpeFArXIlZcnvLwmtbt13LP93xZSUpcDH7FdzWdjqtY5YsvbiPHdD/JZ76q0ktB5lu4rtx2zzUWUApB65i7/q7N9sP3V/f7sTWpL6aU22t1EQNiFrEebd/8OHN4L4qfmuT3+J7XX3wCVDfo+5e0XqqCaw2jbZpi6vgVcZiR6XhYXflgqpqPVeZPWhfEwX1dPGuaXurLU6NC2pNlg8zSdbvZMcI14/64k6kbx2eSSh4V/Z3s+2Gds73E12obtx/ouCtdEAANnmRarsge52Amu1MQSW9B0LKEh+mpmH7VCBJev5sQZ5dxbPZCnexYZ5sJZ0+GHwZ9Qz3NmnQmCxQPLyXtfMol9YaK39TS2f0JTbKed5F/FnJ6Tnuca+xnW+qGpJw72KEo+2ispwnDsX7YnzPtWP2+zyFJzI+iuqAoCOY4iWDvO1HdU8WG9kuFwr+H5hHIWsCq60ZF2q4sEqDV2oD6aoPON6vHG/JmPewyLrlxQ+E2J1UurTns6drpSakKozouhZZcPblLV+NV/bOJZW4zJ+rb2CeykAAHQO4QJLyXIzmfUYeIrUZArGbSt05pas8qtoAfWoStmITulMaP1tViH789Ffwz/vp2CmhChFGT7bWGn1SX5j6hJaiuepaAtPsg2EeaG6VHe11rZ66gRj3djncLsBAAAILCJj72GZsm9mBZb23sU/762sHW0piWfokK8qiZd0omhtRXp6oEbU68qWkqBPqhZU1nJpwVa0/hNDNByyTJGivOqptoO1uZwrZjoTlrXIQA4AABBYRIM0cO84mkAZXY9QUiq9K/xVlii26gTKZ7nYL1FK4rCqsEo2RIdd0KW7H8hTFS+VqdLOlFqXPzgxqxeZiMoBWnQPbjcAAACBRXnqetJa+wz3DetksWDa0ntt1Xn/VYXj86S05PR4G5pIDPKK7IvGFu+hUi6vkHdYP/TTmvIbBBNNsrlMJLfDp1lcPoWWAAAAnUPosJJnveesNXdmtmSK1uOebWJpumD9NmiNuRvNIyaBYeyjXJ9vWuNTJdNGsdLvqmgedeU85W2Q5TW4WTzeKdcTWgIAAHQO4WkaVGla1x8V0ecpizl8lFrDai3Lk/wr/C3VxtcUf87K9NFuNJOoCoN+76l8qBIOss+bCh8rDa+twedpswyHX/ms2W/i6wmJUgEAAAKLSuvbcQd3E3cO97IO2SqDZVuZO+X3WbKhAmuxXRwaE8Rl/0sXdT+aU957bYa9Jy3XVpbmWetfH/a6IZ8kS30lD5UJlgZaZ7xaYQOb2eFB+rfV6ubsr1UNAAAgHoEVMN+QOc8jfUkGy8Y9mtnMmnDHgYyPDvGmKgosOy+n8zdbFlhoJlEEhr1dKS90oU1tFfVVSXGllNpKkq1mtfxy/VCwAj0AAAAIrGUcCrO5kzxEabV99iSW3tIquxJ30G9UFlg5Gmdl/T5NFWN8jJpNyh5bLSspGENg2OKvwjO0W7d+Yq6aTN4ps+LSWFkK5nK0AgAA6DxChYM2tmyGrD2F/7Q4c4VT+n1DdvEGA3YBDdpFy5n8vaCKsgxLaUh0eVP/YXF2E5pJowqD7tVW/U1T5a2UzFWSvtpimEn81ZSMln6QC3AyXz+2fC0BAADoHEJdB/7IZfysukMbmq21PjRb/bvt7vZ6puZt1z8qvS75iaSci+zCsM9zBXnn96i+3dBU6q178eCYXyvSb1SLPrKqqvDYVilaIYvlN8Zcaqw/hxC/BwAAEFihAkv6C2vOylPXbjKrK1sF9PZeYAbOCFveeazgad/SXUaZfq30VDSXuhTWU1bTr6vWru9X1R9ae5/NZtHti0VbmCnrBaAhAAAABNYyDJUWuB7RaVj7iDL6grzuOjFTT+VKbc3H/G7+7T8VX2Yr2GEK4oRUJaH5VsEM/7LH692GO84uNJnaYEE+i6vz+XAVoqqv7mNpA6X0h7NXckVFU/jFoB34r6ph5uCRN1bU7ZPZprqfZeay9bufAJQ4d7d+VAIAWRNYIZ3Dmdzx7c0vbZqlQnZT96EsoI4KK6dnNQ3yFvY6C7Df5kz+iJzObYOUDWNjjX2Cq+2cau/RpTFEXU1/fYTtbZlLbmBJ1hw8S5EiVX9qhklsM9kOqvIemdE7A0ILAAAyKrDG87a8W4IWWOX/QHmltA3ZmVmnaBdj/FMNmddUyBuCvrGyeOLPDbF9m1+9jYI1W0CVylbWnuKZ8NQE1m1V6NNK703ZSx7lW+OfnrN64QSaUO9nN6fAQzXWmosivvagwMN1H9pbZxPiAe00JrnrYfMRf7vPXU/z4v4yeA1BZIFlKDR85Bpl6XPcAe6alULysa43pPzdh+zgRZUyLtjSeneauqkrtNvnMs+xxlyktDoCzSZUWlHBFm70qXBttfd4vFVpX5IVYwutvcylBTHW/MGSf22DHcSsGsRVmYmu85AOZS5aHuhgYVXN4zvfXVczkhBaADQssEYFuY9UIwPa0Fna0zJ9fnwWCskCSnfp7n1zNncld98LKr1DOn5tNYXlbJKFo431T/dUbiq/9V1oOhWl0ZtFUzh1yC5eGDY8VqrnMZyfvd64w/hH1uLd3jLGP5vbyGADn53Otlmdn5noOo5paHegA6nF4yuvSWjIHs7g8QVNJbSnG6qyDdhFtxdM8ZosjeBopXfUKreVVh55ktxyhMk6eYp/Wi2B12rJENbIzSELYH+3pD/BcrC4OoXr6u5y/FGlTTAhWyDq1Xp8rj6fMWFJfD1czddFf7XrpgqNiqSD3FM8AJ3EZKptOL3MOrTU4wtA6wWWHWPjd0jy0VczVt5jpBtfbAdpeIQNLfl9iIZ5C5eNMvHev5ptJprOqJox5tpFZsG5RVsIDe4ea4KAvN6te77On8/a0jiv8NGfOvY1E/okvk6E794DrQ90GLPqEFdl5P24b4OmEjpE2MdbVWVm9JPWmnOVp07NjJpUelffFKcMm8E5YavfBF1hl8w8DBUFltR3raWtlKIpaEKlCvk3GftlFkYmrE5zbgsXGlyrytvU096nszZT0/rmHM/qp8ZVWVOxClNjeJoHoFOQB5JG77tT3PXWj2oETdEcYS94Y2xBt+lfYK29JyuFDTIv6dNylO+uVjYpmQxZFXmrPJhVHCzawqHGmqfQhOjNgi18tUj+y+H1rsZsT7zpnMofxe9dLVPiytp/8XVwoVwPY18zFYk6xDcVTRB0EFE9ttNQhaBZhHqwRFzU4Ll4zTN0jvJyF1EG0heIcPK0t1Wv7d3Ht/6l1QKxh91W8T2mtK8nuqn7Mz1e3838llU7sfEoqxYOmEVfKtjhv5frrWKd89ZVmqFpQ9+jlN5Ga/25jFXBsDX+OdyWXo/4RA4AaM4DxWRUIWi5wBJxUaNqubLb9B2U07kdM5LhvUtp7xva0K2L7eDL1cTYWLPd+D33+H7hQO3lrlJKTeiolmNpYNBfdEiBhq5SVepJBJX4/CSRa9jQX5fuUXmV+w7/mqE6lIztxTlDdvCqiDtCkDoAzbte8EADmkZoz+jXuBWoIEk4TyaqPk0qVV2jUpuyePqqT8VSGSoNAtYRB3SzMf4+ZO38Tmk0LJoGBs3AwSzCq4qrkVQabnXtR14+hE/KxzJWDYu5DKfw8Q/Xeq0AACKzWcTPT0QVgpYLrO4at17ePKvuJGMvy1bJ9df56LfNhTvxasfaP/q+vx9rsmfbXlxZtWjAXzStYEVc1Z6mo9J7Zeiwl/o28JQ3I3NL4hh7Kbf7u6T913qtAAAAgMCqudOQTVvFGsM/01KVxX3TJhQU9fR4vWdwJ79CtazitQsI+4fF/sCnjDGPtbG8emHQLNpv2A79VkXIgVaeRCD76NG9J2ml35GlmYN8pM9ye/+xtPt6rhMAAAAQWKUhnVq30gCI9R+1vn9+lgrP/eMHlfZOyKn8mPFWNTk1yNzPP3ZksXBjuzUUa+jf1tg9uYzXq4gJZnPksXGdK+9Aq+3+masLbufc3h+Tdl/PdQIAAAACqxQbU+82ZIcuMtY8lJ0M75a6dPeX+/T4Xcuz3GLgBWPtZ7geTuPdDbZDI/H94q/ImF34vP4z6rkVISvDauP0+M17vL6zs1UTStYbfIDb+S8buT4AAAB0DrlqAqteDJlXPZs/o0t5szLkjxjPkuFcllYPs8B6uto7JWZIvDdjeSP4PYuNKZ4wbIf+IsOQ/IdNMto+XrPGfsNac6klbVRVqRokExUBFZreYkk7sRM9Refzp1bKWoUUrX/GEC1+LQ6PJwAAgPZFhyuv+re8DPsQXUrW3potx4RaT+vcxVyC8VIOTy1rOTeoJfTwVqu3y5B/k/XtDtaYM/m/C1R21m4ctoYuNsXih7hyWCyrqkFqQa6rHHXrviX/r7J5SumZXBUfzNzVYu0t3L5nSztv5PoAAADQOTS8VE64qrDWKnO68jR3zlnJa2Qpp70pnppwLllzhFXLppxQNlgAetAsLL23R/fy37R0uGMpN/nnVWXpON/4t1gyh+V012fSmi9MBKBvi7cVrf8zFpvXjaUHy7nCZOvWPc5rZalLdUt81TIilOuALP/jWe+b2vOmZfBaeYuF8uk5Pu+5xpbEAQAAAIFF0YJyLc3RJneF1vrwLFWGUvZg1odPsBY4rZKYCH4GiBfLV34gosYSWkqSbfp/KpriHdrqX5HW39BKbVet/puMJP76+2IzeAaLpD8VyV+YV11jysBSPJXqo4IdXqZ+5LMycWDk7EwV1MOhSqsZlLG1BksVZMxsY4t34pYBAAAgksCKmBjRslA5J09du3OHvUaWKoRF4fd9a97iX39SXUMGIkGrHBlbqEkycF34/LmbfVu41Rj/Az2692ir6EOa1JrNTlMg3iZr7ev8rXcXzPD5lox42IrKxZmNpaBlD716XCkubdgOLVc35W0Eu3M5z+ZX81m7SLgcLxRt4TyuH9sG1/zUUT9HM9fZfWzz2uQ+N1aZR5a7bO0K6gKAVgusoYiJ2bnzfkQZfUFed52YNY+Fp/RZpjTWST+tqazB0Fc9sxDFtfM3Mf6STQtU3IlFzXaeyu3I0malhMVW0ZC9g0XeX3MmdzP//+8jZVcNYoMke3sP9ZY8WDUe61QWriJYx2fvEpElcQoXDNqB/2Yohm4ksjTINNeh1psF+xm2frbrnGUBWUplD1desXUa2Md8JzDLZb8vo/d31AUAaRRYMXUmZ3L/uzfvatOM1UuexcNZwZI5Y4mswJtDmkWH6Q08Q3V13+qhgik8pJX3U/7ghr4tbpVX3XwztNsrrdYiipShUg6lyP++yHLxbj6yO5TWdxtrHh82QwvzKi9CuK7ddeluKvjD5JXW9ra1iLIdWbBeyT9XyeQVYulB/vcsRYoyJrCmOZsSYR/SIR/kTDraWWwzU+rViKO8ZSa6/Yid5ITmdSkuezvXxSQnDuNcQ3BGhb/NcyISAhIkL7DGx+FsMLTAKl8C3i8lyty89i6t9E98W8pO8JNaPsDvd866+jxQrvOW4cNHWPw8wn+6jHfWRcasYSx9gN+xgVJqMu9+XX5tHKuiSa4+7ZJdyPQCRfN5PwVrLN/41BMsEB/Ulh5nUfUYv3M4ioAuvdsaUkqP0G5j8imt1AWZFVdEfPp9CWxfOCE761Bv7jq/KTHvVzrao5yd4zqpVg8hynUw3VmSa8ytM6Lsl7iyp01otVtdTHbtePcE9n1SldeecXWYFY8tyKLAimP5GMe1ytIfWXzsmsUKKg0XWiu96w+JaqsUmXWoSUVNXCqC6FlnSx0q1kom8RVZIOVGCiyJn7Javenp+OPmS8LRzRCs3fFDX+S6O48ou2vEsNi9yZJ/bYYOeabr+JLmqBFeklZ1RNNd597sxXvLHr1L3DGkIU6t3epiqmtXrViYWQTkta5M0yARQKS+M/TRPa7N+gPG+GfxLhdmtI7yWqvTlCp1XjXPzy/FKaleSij+7E2219hed/aa+1tM2KU/rG1kaOx7nlI/ybK4Yt7idns2t9/BuK6FBJGn/fuaJK7KTHQd0cwmnxcpaz/b2S3qgEeKC/Hc7NHCY2jHupjcQnE1ukx7EAARSCzIfZTX5fZeM/6avM4fmMUp+iUlqvTXenXfRtbYw6lGl3gp27f4llSQB0rX6QVqNkEAu2IpUKAiW07l6v38Kt2658daewdayvKEO0UFU7h60C66IwNxV2Vx1aoOSUTdpCY97UuHNysFne9okdkKb1a71sWMFJVpJmGoEETRDdU62zg33uMp/M+rma4s7X3U87w/sAz5WL3SpZwRPpXrNKryUjf5UtqFnOqqIYnqsuVjttFa3yDiqg2ui1e4TKfGfw0kwjopedqflfB3THMd+MQUthcpf78Tms2gnesiTV4jubY2JwAaJP5M7mHixOgnrTXnKk+dmukaU2oTpeh31i8F+n6PqHZXn3SxEs9knTerNINPtUpwLU0MKikmtNUk8VvW1jeUJXn786r7MP7saZJioh0uCuubczyrnxqHjO31dqzznPcibma5/aeZzZywmErJerLavS7SJhon4dIGDeuesBe8mLfAR+JfwB3yPW1Qb+O1552glXcLC5S619RbZsq/8UtiyyX+XHZ5mQS9XZqWxsiXj6deLwsf7gZKq9/lvPzP+fPtIa6s/Te30wtLXsfYr4G256gEPBDTMiAoRguLpDpl1AUA7SCwijFvLuD9NWt88fwU2qLytJ6ilbpZkf6ubfBGIqImr3tKy0krK793lV+ggi242ZwNCq3S0J8JhvtkFzIb0BjSRpXWU6wvB9Yyx9yllPoai6vb+edebXQ9DEv75Hb6urTXuK+BDkE8LJNj2peItYszVv7NKJnh0k6pi/kpK8M8AiBugTWc0DZoB68sGv/PlM2s2JVEzETP805hodHPyuNz1FC+r8BzJcOHpeSfoq5Y/IjAspoFkQglVVp/qCS8luaiGnkYwaLL8h6ryidXSaoBNxS5rE5rNCZIkdqJxVm/8tS5XOa12udSkIzt/hxpn0m1/Q5BhnjimFk4mZKP60oKyd00I8b9dVJdpCmoXHJiIfEoiF9g+QltBSoMGTInE7VXj6MUbaZy+tfcT/+B//tR1i8NpSgYPURYeZgw7G+JitbNefeXeErf6mnvQ214LSzmdnkKt8/hpNp+ByGd6tSI+5hF6QzirpWTKL4A6U6qCxFjafFiTScAIhAa5N6dYAojz6o7ydjLWN4d0m4VqrT6OP/4OBm63tqSS//6jBdpOy7T/lyyfVlFTmjbK8HYS7ld3tVLve18vc+hZRdxnuo6viQ67xkRRNY0ij8TfbU6mEyNrdNXizCKKrI6rS7mujK3WlQeTEjRALIosIJgbv9MllofU0RrtmXNarW7siy0SP3VkhGhdRVRjMnFkqXLikjU6nA+Px8iRSu280XAZX2OrP9jbVWi7b5FPOPEznUUHk+yh3taj7Mjn+I67P46PzeJ4h1eKwuJsXIaTXZ1MC3Gjn2zEWKhETq1Lq5zbSeJJZ+qMd999wzKxpqTIKsCK/GgXEv/1T6drzzv+21bu6rUW++gSe/AovJ7Sim5udzIhX+Yfw6k7GjFdbMRH/P23arni0qrTaltAuXGaIq+f76x/mNtWLSTa+ygr3MmnerZMX7/tAYE1vQYPSjzXflriQmb6757phMBcXXsMyIIrE6ui/toqUet/FM4KabrYvR3zSXEW4G4JUDYTLIvXvf+Znz9at1ez+1aeZtSpjN/10XBWnMbF/cvJe+W9e9SOlfkv5UWU9Y6R8bYkrIZsoOU8/KUs3mXDX7kEjZmOTVXioanICBeBf+Q7xdKSU6tdhFd/DmJlVc6mFHIu9yG//xhFn9TSKmPKNV+LpxqCpiF1QND/uKdudYST4J74R7/XO5vR944tT+Bp/T51Pg6gfK5OGerifeznplYc2MSFfNdx9xopylCIK6UCAc3KLJQF5UezeO48CNw7m79BEAthHqwCk3IpMBd/auezZ/RpbxZHVTneaX0LnyJ7yI3PmW9p/iO8aB70r+TZLhqyVBi7KJTckC8jYLcXdsqrbbmO80GLKxW6tQLoGj9M4Zo8au6kcmf6WU6NR4/IteiDE3F5cnao44OdVqMHpsogqJ8LFIPu8d0PmY18P2oCwDaUWDlKJf4l5dSExBdStbux4Jj5w6s/4ksbt7HIud9LLoOINLDXCUvc13cza89pcm7T5F6wT2BypDiW051LWZbMGpfPWwT3OvjKViYemIplYKiDfn397BtQlq/UwdCizpkBLBKA7S3cF3MzlOeVPvUxTkxdGAznTCKw7NWj8CKK0npyRTPcI8Ii7kUPQ5J4o82r/OYUBcAtKvAinupnFCMLLZiTlee/qATCJ1MF/fza2ul1pb/dFNveR27RSyU3mAR8LLUGL/nLbL6lWW0qgzFKLWae31VRXZl/v8kz8tDSlXmLWvM6TkrOe3bZkmcckB7HEiH+nRM3pNaiMtDEmcdlJf+uTim+pyOuqi7LgBoP4HV1MzTlvq1yV2htT4cp2RktbilbJQSBTCOVdLSxJ5V1jBUY7wOJPzMXGFs8c42K9YMii/ztHgrro+ho59Yo8dijxjrIE5muX1GHa7bow5RgboAoA1oeqLRkM0WbeEcFhQv45SAJgjXF7i9nVtavKmJrTxh5lP8sS1x7W9qTO9pRR3EJVRElEyOsb46pS4AyCyhHqyhJqdsstY+ooy+IK+7TuygGYWg6ciSOIULBu3AI6q9Bk6T6Eyvcx111LibWjrTzWM6XkqoHuIYGpMyzkVd1FUXAGQWHd4NNX9jzmRt9TBOC0hOyZdmbJ7VovadJEl1qP0xdaZjsVmK60CGXec0qR5QFwC0CaEerPGliWhNxtACq3wJeL+EqL3mzYNU4FvjS2D7wgntN5+iP6H9SuxU1DisSWO8PjXldVDed9RZlVNjek+n1AUA7SmwDJlWHdM1ytLntNK74vSAWPW7NTdZ8q9tw6LNSXDf0plGzZ49lkdmUgzHKTPm5iVYD3GkFZgU03s6pS4AaE+B1YSg3MpYGtCGztKeliek8ThFICbeMsY/21h/sA3LNjfBfc9rwvFvnvI6iKseNkNd1FUXALSnwBpq4brE1trbe834a/I6fyAC3kF0FBVM4epBu+gO1Z4ZwZLsULOSEDLp4+zPUHtAXQCQZoFlWyhsgu+2p/A/H2dbDacJROQVbk+nWoj1ViJDQkl6w+ahilEXAGRCYDUtk3sI2ugnrTXnKU99D6cJRBLsvjnHs/qpce2TsT2LHaoMffVXea1TmErVPUCoCwDaXWB5vLW0Uyxt/i/IensqpbbAqQINtSNr/83t6MI0tOkEyfq6bgh4Rl0A0DkCq6lL5YSrrNc8Q+coL3cR/y+P0wXqZNgaf6Zv/dfhCWg51Y4PQ1qoCwA6R2AN85YKLF3ZbfoOyuncjgh4B7UjGduLc4bs4FWoi9QTR66tLJUVdVFbXQDQngKrZWkaRmHIDOXJnMy/bsvWhVMGamQxt51TClQY1shZG4XJGTnOrAytzUNdNLUuAEifwOrmLS14Vt1Jxl7K/eShOGWgNmVuL+F2c1cv9XZCaZMMjJ6MOigxFe0hk3UBAARWNawtBbz/mKXWxxXRmjhtoGp7IXqOrH+WtipV7TijIiiOznqsTPP3pbwOhDi8QvfX8B7UBQDtLrBSEeS+bK/5X+3T+crzvo/TBqo2Fd8/31j/sQ4qcpJZsac24fjjGCpah5LNtbV5k8qJugCg3QVWgbf09ZzFi7psz76e8t6NgHewPIp86z8wbId+2YHtYw+261IqsPojvl7PsV6XUP02ox5QFwBAYLUGQ+ZVz+bPZIE1C6cOVIIF1hlDtPjVDgxsT0JgyT4nxrCfuTW8R4aMNkthHQjiDZoSw35qHf5DXQDQzgIrF/5Sy5BILO42LyVr9yNFO+P0gWUbiL2F28fsPOWpTdccHKtDjXtYaFpM++mvscONQ1QkVbdxcF8d70NdANCuAqvVS+WE9qHGWqvMacrTH+D/roBTCBxvWWNO86ymNl4SpxriaZrONiOm/UmcTRz5mOZTbR4s8bYcFEMdiCicFXPdxlGn91Pti3KjLgBoZ4GVuiD3ZVQWzdEm92ut9eE4hUAwxlxhbPHPHV4NJ7nOOQ7vQFwdc63DVP0xCoA4RYWIlHVi2E9/Qu9t97pIgqQXHgegRGigip/uzRZt4RxL9mWcQsDt4AVuD+dKu0hzq20Ssyj6NHrZR1wzE2vtTKXDuz6G71uH4vPiST3OjPG8EOoiVvHeKJ20oDZoIaEerCHeUt2pWvuIMvoXed11EmYUdjKyJE7hF4N24JEOjLuqxGZO1Ext8CldOr+DYjoWGR68rs7vjmNYMi5PnuwjjiD/+xs4FtQFABlHh3db6d+YH7O2ehinsYOx9CD/e3ZG2mszRdZ9VN90+kkxi6typzyvzvc/E9N390f0VEhdTInpWGY2WHeoi2SYhhsnaAahHqzxvKUeQwus8k9Xnr6kmlgEbYtvjX96zuqFE2gCamNZZHjoDrZLXAfZX0VYycywGRRPfM3ojrle5DgujuG7J7oyz6izU5/sxE1cQ6TPUONDYqiL5ZkTg9irNuN2qnttc/d6P8HjBuIWWIa3jHgwrlaG9tFa74bT2VkYY26y1r8WNVGVg5zNdx3Ffa7jKHciUxL63jnUWDDzrBjFngiLs12HOpOqD1eKmJjuvBsTY6yHGREFKuoifia666DsYd3clXmzKm15OoQWiE1gNTEoNyqD2tLZmvQO/Ps4nNKOYYGx/tmG/EFURc2dypQEBVWcnal07HfEeCzlco8WmWWPxWSK33sn3E/RPTaoi2WZG1MbljIeVUed9bv6gcgC0QVW2oPcR2Ktvb3XjL8yr/NfQMB7J6CoYAq/GbSL7kBgeypp1HtVRj4rs+h2j/m4mi0yp8WwD9TF8gKrVQ8o11HyC2mDNqJt4pa0oRnKqtdxSjtBXqnn+HyfjJpILdNj6pCfyXAdSPuMy9uBulhKKz1I6xAC5EGnCSzxYgzS4HODZtHROKXtz6C/6Fg+3y/Ae9XWnakMW0m80PwM1oF48GbEuD/URToEFlFySxABCKz0YqhIxhZn8z9n4rS2L8aY7/u2cJXJToxgJ5FEZzo9Y3Vwf0KdMOoiYC611ps3CZc56DiBRSVvhpJ4rJOMtRfi1LahuLL2F3x+T6Pm55VKknYJmn0mIWExi+3gDAmKqZTcMiyoi6X1AAAEVgt01oAl+zVjzUU4ve0krsyFfF6PZFk10GZFi9oB3Z+CMsx34ippYZHmIbKkxRXqIh0CC2sYgg4WWAFD1tKXrG9O5d+HcZozzTCfx+/J+WzTcxnVgzWdWuvVmE/Nmb4+y31PGoXFJU0SV6iLgLlELZvkch0B0OECSwaQfGvNd4f9oYOstU/iVGcPY+0TfP4O5PN4oqKsZL5t6IbdaEcpn+un1nk1xFMxmZo3zHmf+77rU3LupL5lYs00ar5no9PrYgY133sbVy4vAIHVDiJLUcEO/8YYs7M15gqLJFmZQM5T6XwZ81E+f1d2wGzBRm/aM0ftY2oTO51zaOlyIs2kPKNuT2ptsPP1rvytXFuv0+uime19PiFFA4DAWl5kMU9zr70fGftp3/h/xfT+9J4rOT98nvYqnS8+bx1yrmY00EHeT8vP2Csv8Jzk8InMFJRVE1o9o62c9PHoJouLcvlF2MxNSfvp1LqY59p70l68ZwhZ3AEEVnUs2WuGzOLtC6awv2/93/GfCmgCqWBYzgefl/34/GzH56nT4hzqzXNUDiIO25cIr3UpiIeJuzOV7+1PUd3NdOLi4AQ7Wulgz3F1mrbyd3pdlK+dgxMQl/Pdw8rmEFegEXKdVmCllF+0hcsVeVcqq95jyWynKbeX0rQ1v9zdaaKzRUg81ZA1dLeh4jWK9F1F8v9jrV/k89OpdVKOqZFO8qAqN/yZzsYamhOPwjQKPE17OJMOsZ7Fe+c478h1lB5vTRiznE0aUVaxRtbVK6/T1+/KnrXOtRProlzmkW29kfI+M6KsCGgHEFh1i6xg4LDIv95rrb2X/zObrF3NGLOtUnotVmEbkC0tHI2YrXirfRHX8xPWmme11n/hP73C9f+maCrl3mI7u8rnOVE0g5YuvDtSgPVT/TFP80Z0PuT2OZnCPWDlxX/7M1yHI8tLI8o6dQxBOtLapT11Wl2MFEaTR1kY/aN+AhBPp8cdHGoBAAAAACBGMBwGAAAAAACBBQAAAAAAgQUAAAAAAIEFAAAAAAAgsAAAAAAAILAAAAAAACCwAAAAAAAABBYAAAAAAAQWAAAAAAAEFgAAAAAAgMACAAAAAIDAAgAAAACAwAIAAAAAgMACAAAAAAAQWAAAAAAAEFgAAAAAABBYAAAAAAAAAgsAAAAAAAILAAAAAAACCwAAAAAAQGABAAAAAEBgAQAAAABAYAEAAAAAAAgsAAAAAAAILAAAAAAACCwAAAAAAAgsAAAAAAAAgQUAAAAAAIEFAAAAAACBBQAAAAAAILAAAAAAACCwAAAAAAAgsAAAAAAAAAQWAAAAAAAEFgAAAAAABBYAAAAAAIDAAgAAAACAwAIAAAAAgMACAAAAAIDAAgAAAAAAEFgAAAAAABBYAAAAAAAQWAAAAAAAAAILAAAAAAACCwAAAAAAAgsAAAAAAEBgAQAAAABAYAEAAAAAQGABAAAAAAAILAAAAAAACCwAAAAAAAgsAAAAAAAILAAAAAAAAIEFAAAAAACBBQD4f3brQAAAAABAkL/1ACsURQAIFgAAggUAIFgAAIIFAMAkgAADAMHJEjWgOavWAAAAAElFTkSuQmCC;" parent="1" vertex="1">
          <mxGeometry x="773" y="440" width="114.28" height="60" as="geometry" />
        </mxCell>
        <mxCell id="XNcS4B2B-zJWbk4Hjfbm-139" value="" style="endArrow=classic;html=1;rounded=0;" parent="1" edge="1">
          <mxGeometry width="50" height="50" relative="1" as="geometry">
            <mxPoint x="826.5" y="530" as="sourcePoint" />
            <mxPoint x="827" y="550" as="targetPoint" />
          </mxGeometry>
        </mxCell>
        <mxCell id="XNcS4B2B-zJWbk4Hjfbm-140" value="" style="endArrow=classic;html=1;rounded=0;" parent="1" edge="1">
          <mxGeometry width="50" height="50" relative="1" as="geometry">
            <mxPoint x="829.64" y="630" as="sourcePoint" />
            <mxPoint x="830.14" y="650" as="targetPoint" />
          </mxGeometry>
        </mxCell>
        <mxCell id="XNcS4B2B-zJWbk4Hjfbm-141" value="" style="image;sketch=0;aspect=fixed;html=1;points=[];align=center;fontSize=12;image=img/lib/mscae/Azure_Database_for_MySQL_servers.svg;" parent="1" vertex="1">
          <mxGeometry x="794.77" y="770" width="68.4" height="90" as="geometry" />
        </mxCell>
        <mxCell id="XNcS4B2B-zJWbk4Hjfbm-142" value="" style="endArrow=none;html=1;rounded=0;exitX=0.5;exitY=0;exitDx=0;exitDy=0;exitPerimeter=0;entryX=0.5;entryY=1;entryDx=0;entryDy=0;" parent="1" source="XNcS4B2B-zJWbk4Hjfbm-141" target="XNcS4B2B-zJWbk4Hjfbm-133" edge="1">
          <mxGeometry width="50" height="50" relative="1" as="geometry">
            <mxPoint x="821.2" y="870" as="sourcePoint" />
            <mxPoint x="871.2" y="820" as="targetPoint" />
          </mxGeometry>
        </mxCell>
        <mxCell id="XNcS4B2B-zJWbk4Hjfbm-143" value="parameter_db" style="text;html=1;align=center;verticalAlign=middle;resizable=0;points=[];autosize=1;strokeColor=none;fillColor=none;" parent="1" vertex="1">
          <mxGeometry x="780.14" y="860" width="100" height="30" as="geometry" />
        </mxCell>
        <mxCell id="XNcS4B2B-zJWbk4Hjfbm-144" value="" style="endArrow=classic;html=1;rounded=0;" parent="1" edge="1">
          <mxGeometry width="50" height="50" relative="1" as="geometry">
            <mxPoint x="829.64" y="580" as="sourcePoint" />
            <mxPoint x="830.14" y="600" as="targetPoint" />
          </mxGeometry>
        </mxCell>
        <mxCell id="XNcS4B2B-zJWbk4Hjfbm-145" value="Logback" style="rounded=1;whiteSpace=wrap;html=1;" parent="1" vertex="1">
          <mxGeometry x="300" y="700" width="180" height="30" as="geometry" />
        </mxCell>
        <mxCell id="XNcS4B2B-zJWbk4Hjfbm-149" value="" style="endArrow=classic;html=1;rounded=0;" parent="1" edge="1">
          <mxGeometry width="50" height="50" relative="1" as="geometry">
            <mxPoint x="391.47" y="680" as="sourcePoint" />
            <mxPoint x="391.97" y="700" as="targetPoint" />
          </mxGeometry>
        </mxCell>
        <mxCell id="XNcS4B2B-zJWbk4Hjfbm-151" value="Logback" style="rounded=1;whiteSpace=wrap;html=1;" parent="1" vertex="1">
          <mxGeometry x="738.2" y="700" width="180" height="30" as="geometry" />
        </mxCell>
        <mxCell id="XNcS4B2B-zJWbk4Hjfbm-152" value="" style="endArrow=classic;html=1;rounded=0;" parent="1" edge="1">
          <mxGeometry width="50" height="50" relative="1" as="geometry">
            <mxPoint x="826.5" y="680" as="sourcePoint" />
            <mxPoint x="827" y="700" as="targetPoint" />
          </mxGeometry>
        </mxCell>
        <mxCell id="XNcS4B2B-zJWbk4Hjfbm-153" value="" style="dashed=0;outlineConnect=0;html=1;align=center;labelPosition=center;verticalLabelPosition=bottom;verticalAlign=top;shape=mxgraph.webicons.json;gradientColor=#DFDEDE" parent="1" vertex="1">
          <mxGeometry x="370" y="170" width="31.34" height="35.8" as="geometry" />
        </mxCell>
        <mxCell id="9_DUYrVgI5oJMOayzd9k-1" value="" style="shape=image;verticalLabelPosition=bottom;labelBackgroundColor=default;verticalAlign=top;aspect=fixed;imageAspect=0;image=data:image/svg+xml,PHN2ZyB4bWxucz0iaHR0cDovL3d3dy53My5vcmcvMjAwMC9zdmciIHZpZXdCb3g9Ii0xMy41ODY3NDg3MzY2NjQ4MSAtMy41MDk2MDQ3MTE5OTQyMTA2IDgxLjcxMjc0ODczNjY2NDc5IDcyLjA1Mzg0OTY2NzI1MDU2IiBoZWlnaHQ9IjI1MDAiIHdpZHRoPSIyNTAwIj48c3R5bGU+LkN7ZmlsbDojZmY2YzM3fS5Ee2ZpbGw6I2ZmZn08L3N0eWxlPjxwYXRoIGNsYXNzPSJDIiBkPSJNNTcuMzI3IDEyLjQ0YTMyIDMyIDAgMSAwLTUuNzYxIDQ0Ljg4YzEzLjk4LTEwLjgwNCAxNi41Ni0zMC44OTUgNS43Ni00NC44OHoiLz48cGF0aCBjbGFzcz0iRCIgZD0iTTQyLjc5MyAyMC4zODhMMjkuMyAzMy45ODhsLTMuODEzLTMuOTJjMTMuMjgtMTMuMjggMTQuNjEzLTEyLjA4IDE3LjMwNy05LjY4eiIvPjxwYXRoIGNsYXNzPSJDIiBkPSJNMjkuMyAzNC4zNmEuNDguNDggMCAwIDEtLjMyLS4xMzNsLTMuODQtMy44NGEuNDguNDggMCAwIDEgMC0uNjY3YzEzLjA5My0xMy4wOTMgMTQuODgtMTIuNDggMTcuOTczLTkuNjhhLjQyNy40MjcgMCAwIDEgLjE2LjM0N2MuMDIuMTMtLjAzLjI2My0uMTMzLjM0N0wyOS42NDcgMzQuMjI4YS41MDYuNTA2IDAgMCAxLS4zNDcuMTMzem0tMy4xNDctNC4yOTNsMy4xNDcgMy4xNDcgMTIuOC0xMi44YTIuODggMi44OCAwIDAgMC0zLjc4Ny0uNjRjLTIuMzIgMS4wNC02LjA1MyA0LjIxMy0xMi4xNiAxMC4yOTN6Ii8+PHBhdGggY2xhc3M9IkQiIGQ9Ik0zMy4xNjcgMzcuNzQ4bC0zLjY4LTMuNzZMNDIuOTggMjAuNjU0YzMuNjI3IDMuNTQ3LTEuNzYgOS40NjctOS44MTMgMTcuMDkzeiIvPjxwYXRoIGNsYXNzPSJDIiBkPSJNMzMuMTY3IDM4LjIyOGEuNTYuNTYgMCAwIDEtLjMyLS4xMzNsLTMuNzYtMy42OGEuNTYuNTYgMCAwIDEgMC0uNDI3LjUxNy41MTcgMCAwIDEgMC0uMzQ3TDQyLjU4IDIwLjE0OGEuNTA2LjUwNiAwIDAgMSAuNjkzIDAgNC4xMzYgNC4xMzYgMCAwIDEgMS4zMzMgMy4xNzNjMCAzLjYtNC4xMDcgOC4xMzMtMTEuMDkzIDE0Ljc0N2EuNTYuNTYgMCAwIDEtLjM0Ny4xNnptLTIuOTg3LTQuMjRMMzMuMTkzIDM3YzUuMzMzLTUuMDQgMTAuNDI3LTEwLjI0IDEwLjQ1My0xMy43NmEzLjA0IDMuMDQgMCAwIDAtLjY5My0yLjA1M3oiLz48cGF0aCBjbGFzcz0iRCIgZD0iTTI1LjU5MyAzMC4xNDhsMi42NjcgMi42NjdhLjE2LjE2IDAgMCAxIDAgLjI0bC01LjYyNyAxLjJhLjUzMy41MzMgMCAwIDEtLjQ4LS45MDdsMy4yOC0zLjI1M3MuMTA3IDAgLjE2LjA1M3oiLz48cGF0aCBjbGFzcz0iQyIgZD0iTTIyLjUgMzQuNzg4YTEuMDQgMS4wNCAwIDAgMS0uODgtLjUwNyAxLjAxNCAxLjAxNCAwIDAgMSAuMTg3LTEuMmwzLjI1My0zLjI4YS42NC42NCAwIDAgMSAuODUzIDBsMi42NjcgMi42NjdjLjE1OC4xNS4yMi4zNzcuMTYuNTg3cy0uMjM2LjM3Ny0uNDUzLjQyN2wtNS42MjcgMS4yem0yLjk4Ny00LjA1M2wtMy4wMTMgMy4wMTMgNC45ODctMS4wNjd6bS4yNC0uMjR6Ii8+PHBhdGggY2xhc3M9IkQiIGQ9Ik00OS45NjcgMTIuODk0Yy0xLjkzLTEuODYyLTQuOTYyLTEuOTQtNi45ODYtLjE4M3MtMi4zNyA0Ljc3My0uNzk0IDYuOTQzIDQuNTQ3IDIuNzc4IDYuODQ3IDEuNGwtMy42MjctMy42Mjd6Ii8+PHBhdGggY2xhc3M9IkMiIGQ9Ik00Ni4zNjcgMjIuMjhhNS42NSA1LjY1IDAgMCAxLTUuMTU2LTMuNTA4IDUuNjY3IDUuNjY3IDAgMCAxIDEuMi02LjExOCA1LjcxIDUuNzEgMCAwIDEgOCAwYy4xMDIuMDg2LjE2LjIxMy4xNi4zNDdhLjQ2LjQ2IDAgMCAxLS4xNi4zNDdsLTQuMzIgNC4wOCAzLjI4IDMuMjI3YS40NS40NSAwIDAgMSAuMTMzLjQuNDguNDggMCAwIDEtLjIxMy4zNDcgNS44IDUuOCAwIDAgMS0yLjkzMy44OHptMC0xMC4zNDdjLTEuOS4wMS0zLjYgMS4xNTMtNC4zMTMgMi45cy0uMzI1IDMuNzU4IDEuMDA3IDUuMWE0LjY2NSA0LjY2NSAwIDAgMCA1LjE3My45ODdsLTMuMTQ3LTMuMTQ3YS40MjcuNDI3IDAgMCAxIDAtLjY2N2w0LjE2LTQuMTg3YTQuNzg1IDQuNzg1IDAgMCAwLTIuODgtLjk4N3oiLz48cGF0aCBjbGFzcz0iRCIgZD0iTTUwLjA0NyAxMi45NzRsLTQuNTYgNC41MzMgMy42MjcgMy42MjdhNS41MiA1LjUyIDAgMCAwIDEuMDEzLS43NDcgNS4zMzMgNS4zMzMgMCAwIDAtLjA4LTcuNDEzeiIvPjxwYXRoIGNsYXNzPSJDIiBkPSJNNDkuMDMzIDIxLjUzNGEuNC40IDAgMCAxLS4zMi0uMTMzbC0zLjYyNy0zLjYyN2EuNDI3LjQyNyAwIDAgMSAwLS42NjdsNC41MzMtNC40NTNhLjQ4LjQ4IDAgMCAxIC44IDAgNS42IDUuNiAwIDAgMSAwIDggNC44OCA0Ljg4IDAgMCAxLTEuMDY3Ljg1My40My40MyAwIDAgMS0uMzIuMDI3ek00Ni4xIDE3LjQyOGwzLjAxMyAzLjAxM2E1LjEyIDUuMTIgMCAwIDAgLjU4Ny0uNDggNC43MiA0LjcyIDAgMCAwIDEuMzg3LTMuMzMzIDQuNTggNC41OCAwIDAgMC0xLjE0Ny0zLjA0eiIvPjxwYXRoIGNsYXNzPSJEIiBkPSJNNDMuMzUzIDIwLjk0OGExLjk0OCAxLjk0OCAwIDAgMC0yLjY2NyAwTDI4LjYwNyAzM2wyIDIuMDI3IDEyLjc3My0xMS4yYTEuOTc3IDEuOTc3IDAgMCAwLS4wMjctMi44OHoiLz48cGF0aCBjbGFzcz0iQyIgZD0iTTMwLjUgMzUuNTA4YS40OC40OCAwIDAgMS0uMzItLjEzM2wtMi4wMjctMi4wMjdhLjQ4LjQ4IDAgMCAxIDAtLjY2N2wxMi4wOC0xMi4wMjdhMi40NTQgMi40NTQgMCAwIDEgNC4xODcgMS44MTMgMi41MSAyLjUxIDAgMCAxLS44MjcgMS43NmwtMTIuNzczIDExLjJhLjQ1NS40NTUgMCAwIDEtLjMyLjA4ek0yOS4wODcgMzNsMS4zMzMgMS4zNiAxMi41MzMtMTAuOTA3Yy4zMS0uMjcuNDk1LS42NTYuNTA3LTEuMDY3cy0uMTUtLjgxMy0uNDUzLTEuMDkzYTEuNDkzIDEuNDkzIDAgMCAwLTIuMTA3IDB6Ii8+PHBhdGggY2xhc3M9IkQiIGQ9Ik0xOS4yNDcgNDYuNzM0YS4yNy4yNyAwIDAgMCAwIC4zMmwuNTMzIDIuMzJhLjY4OC42ODggMCAwIDEtLjMzMi43LjY1LjY1IDAgMCAxLS43NjItLjA3N2wtMy42NTMtMy41MkwyNi40MiAzNWgzLjk0N2wyLjY2NyAyLjY2N2E2MC41NCA2MC41NCAwIDAgMS0xMy43ODcgOS4wNjd6Ii8+PHBhdGggY2xhc3M9IkMiIGQ9Ik0xOS4wMDcgNTAuNjU0Yy0uMzAyLS4wMDYtLjYtLjEzLS44LS4zNDdsLTMuNDkzLTMuNDkzYS40MjcuNDI3IDAgMCAxIDAtLjY2N0wyNi4xOCAzNC42NTRhLjQ1LjQ1IDAgMCAxIC4yNC0uMTMzaDMuOTczYS40OC40OCAwIDAgMSAuMzIgMGwyLjY2NyAyLjY2N2EuNDI2LjQyNiAwIDAgMSAuMTMzLjM3My40My40MyAwIDAgMS0uMTYuMzQ3bC0uMjEzLjE4N2E2NS4zMyA2NS4zMyAwIDAgMS0xMy42OCA4Ljc3M2wuNTA3IDIuMTZhMS4xNSAxLjE1IDAgMCAxLTEuMDkzIDEuNDEzem0tMy4yNTMtNC4xODdMMTguOSA0OS42NGEuMTYuMTYgMCAwIDAgLjIxMyAwIC4xNi4xNiAwIDAgMCAwLS4xODdsLS41MzMtMi4zMmEuNzQ0Ljc0NCAwIDAgMSAuNC0uODUzIDY1LjU2IDY1LjU2IDAgMCAwIDEzLjMzMy04LjU4N2wtMi4xODctMi4xODdoLTMuNTczem0zLjg0LjQ4eiIvPjxwYXRoIGNsYXNzPSJEIiBkPSJNMTIuMjg3IDQ5LjIxNGwyLjY2Ny0yLjY2NyA0LjEwNyA0LjEwNy02LjUzMy0uNDUzYS41MzQuNTM0IDAgMCAxLS4yNC0uOTg2eiIvPjxwYXRoIGNsYXNzPSJDIiBkPSJNMTkuMTQgNTEuMDU0bC02LjUwNy0uNDUzYy0uMzg2LS4wMzYtLjcxOC0uMy0uODU0LS42NTNzLS4wNTMtLjc3Mi4yMTQtMS4wNTRsMi42NjctMi42NjdhLjQ4LjQ4IDAgMCAxIC42NjcgMGw0LjA4IDQuMDhhLjQ1Mi40NTIgMCAwIDEgMCAuNTMzLjUwNy41MDcgMCAwIDEtLjI2Ny4yMTN6bS02LjUwNy0xLjQ5M2w1LjMzMy4zNDctMi45MzMtMi43NDd6Ii8+PHBhdGggY2xhc3M9IkQiIGQ9Ik0zMC43NCAzNS4zMjJsLTUuMzg3LjgyNyAzLjEyLTMuMDkzeiIvPjxwYXRoIGNsYXNzPSJDIiBkPSJNMjUuMzUzIDM2LjY1NGEuNDU2LjQ1NiAwIDAgMS0uNDI3LS4yNjcuNDUuNDUgMCAwIDEgMC0uNTMzbDMuMDkzLTMuMTJhLjUwNi41MDYgMCAwIDEgLjY5MyAwTDMwLjk4IDM1YS40NS40NSAwIDAgMSAwIC40OC40Ny40NyAwIDAgMS0uMzczLjM0N2wtNS4zMzMuODI3em0zLjEyLTIuOTA3TDI2Ljc0IDM1LjQ4bDIuOTg3LS40NTN6Ii8+PHBhdGggY2xhc3M9IkQiIGQ9Ik0zMC43NCAzNS4zMmwtMy43Ni40OGEuNDguNDggMCAwIDEtLjQ1My0uOGwxLjk0Ny0xLjk0N3oiLz48cGF0aCBjbGFzcz0iQyIgZD0iTTI2Ljg3MyAzNi4zMDhhLjk4Ny45ODcgMCAwIDEtLjg1My0uNTA3Ljk2Ljk2IDAgMCAxIC4xNi0xLjE0N2wxLjk0Ny0xLjk0N2EuNTA2LjUwNiAwIDAgMSAuNjkzIDBsMi4yNjcgMi4yNjdhLjQ4LjQ4IDAgMCAxLS4yOTMuODI3bC0zLjczMy40OHptMC0uOTg3bDIuODI3LS4zNDctMS4yNTMtMS4yNTMtMS42IDEuNnptMjMuMi0xOS4yOGEuNC40IDAgMCAwLS41MDctLjE2LjM3LjM3IDAgMCAwLS4xODYuMjIuMzc3LjM3NyAwIDAgMCAuMDI2LjI4N2MuMTg3LjM5My4xMzUuODU4LS4xMzMgMS4yYS4zMzguMzM4IDAgMCAwLS4xLjI1My4zOC4zOCAwIDAgMCAuMS4yNTMuMjkuMjkgMCAwIDAgLjIxMyAwIC4zNS4zNSAwIDAgMCAuMzQ3LS4xMDcgMS44NCAxLjg0IDAgMCAwIC4yNC0xLjk0N3oiLz48L3N2Zz4=;" vertex="1" parent="1">
          <mxGeometry x="280" y="260" width="36" height="36" as="geometry" />
        </mxCell>
      </root>
    </mxGraphModel>
  </diagram>
</mxfile>
